<svg xmlns="http://www.w3.org/2000/svg" width="40" height="40" viewBox="0 0 96 96">
                                        <defs>
                                            <style>
                                                .cls-1 {
                                                    fill: #39bc5b;
                                                    fill-rule: evenodd;
                                                }
                                            </style>
                                        </defs>
                                        <path id="Solution.svg" class="cls-1"
                                            d="M1150,536h-26a2,2,0,0,1-2-2v-7.36a10.344,10.344,0,0,1-2,.235,6,6,0,0,1,0-12,10.818,10.818,0,0,1,2.01.232L1122,510l-5.31,0h0a4.005,4.005,0,0,1-3.92-4.786,6.564,6.564,0,0,0,.16-1.214,2,2,0,0,0-4,0,6.426,6.426,0,0,0,.15,1.214,4.005,4.005,0,0,1-3.92,4.786h0l-7.08,0h0a2.01,2.01,0,0,1-2.08-1.845V508h0V482a2,2,0,0,1,2-2h52a2,2,0,0,1,2,2v52A2,2,0,0,1,1150,536Zm-28.79-16.973a6.821,6.821,0,0,0-1.21-.152,2,2,0,0,0,0,4,6.821,6.821,0,0,0,1.21-.152,4,4,0,0,1,4.79,3.917V532h22V510h-5.24a10.191,10.191,0,0,1,.24,2,6,6,0,0,1-12,0,11.241,11.241,0,0,1,.23-2.008L1126,510v5.112A4,4,0,0,1,1121.21,519.027ZM1100,506l5.16,0a10.171,10.171,0,0,1-.24-2,6.005,6.005,0,0,1,12.01,0,10.317,10.317,0,0,1-.24,2.008L1122,506v-5.173a4,4,0,0,1,4.79-3.917,6.744,6.744,0,0,0,1.21.153,2,2,0,0,0,0-4,6.821,6.821,0,0,0-1.21.152A4,4,0,0,1,1122,489.3V484h-22v22Zm26-22v5.3a10.248,10.248,0,0,1,2-.235,6,6,0,0,1,0,12,10.716,10.716,0,0,1-2.01-.232L1126,506h5.23a3.993,3.993,0,0,1,3.92,4.786A7.379,7.379,0,0,0,1135,512a2,2,0,0,0,4,0,7.391,7.391,0,0,0-.15-1.214,3.993,3.993,0,0,1,3.91-4.786H1148V484h-22Zm-27,34a11.241,11.241,0,0,1-.23,2.008l7.22-.009h0.02a1.985,1.985,0,0,1,1.39.577h0l0.01,0h0s0,0,.01,0h0v0h0v0h0v0h0a1.976,1.976,0,0,1,.58,1.4h0v7.115a4,4,0,0,1-4.79,3.917,6.821,6.821,0,0,0-1.21-.152,2,2,0,0,0,0,4,6.821,6.821,0,0,0,1.21-.152,4,4,0,0,1,4.79,3.917V548a2.008,2.008,0,0,1-2,2h-9.25a2,2,0,0,1,0-4H1104V540.64a10.344,10.344,0,0,1-2,.235,6,6,0,0,1,0-12,10.818,10.818,0,0,1,2.01.232L1104,524h-5.24a3.992,3.992,0,0,1-3.91-4.786A7.379,7.379,0,0,0,1095,518a2,2,0,0,0-4,0,7.379,7.379,0,0,0,.15,1.214,3.992,3.992,0,0,1-3.92,4.786H1082v15.5a2,2,0,0,1-4,0v-0.619c-0.45.045-.86,0.088-1.19,0.123l-3.31,5.228-0.28,6.18,0.51,0.767,3.97,3.78a3.686,3.686,0,0,0,1.35-.733c1.08-1.587,1.21-4.062,1.32-6.246a11.963,11.963,0,0,1,.76-4.474,12.483,12.483,0,0,1,6.91-6.132,3.664,3.664,0,0,1,3.29.66,7.346,7.346,0,0,1,2.35,5.667c-0.01.845-.2,5.673-0.4,10.785-0.09,2.231-.18,4.481-0.25,6.394a18.333,18.333,0,0,1-4.01,10.776c-0.52.668-1.01,1.279-1.44,1.819-0.42.522-.82,1.015-1.16,1.466a1.992,1.992,0,0,1-1.59.787,1.97,1.97,0,0,1-1.21-.41,2,2,0,0,1-.38-2.8c0.37-.491.79-1,1.22-1.545,0.45-.555.91-1.128,1.4-1.77a0.04,0.04,0,0,0,.02-0.022,14.386,14.386,0,0,0,3.15-8.45c0.07-1.914.16-4.165,0.25-6.4,0.19-4.862.39-9.89,0.4-10.684a4.152,4.152,0,0,0-.71-2.374,8.836,8.836,0,0,0-4.26,4.025,12.1,12.1,0,0,0-.34,2.9c-0.14,2.572-.31,5.772-2.01,8.283-1.26,1.852-4.22,2.558-4.8,2.681a2,2,0,0,1-1.79-.509l-4.96-4.725a1.742,1.742,0,0,1-.28-0.339l-1-1.5a1.976,1.976,0,0,1-.34-1.2l0.34-7.366a2,2,0,0,1,.31-0.978l4.11-6.485a1.991,1.991,0,0,1,1.44-.915c0.06-.008,1.1-0.133,2.61-0.279v-5.985l-6.46.832-9.98,11.263A7.1,7.1,0,0,0,1060,546v28a2,2,0,0,1-4,0V546a11.09,11.09,0,0,1,2.45-7.547c0.03-.031.05-0.06,0.08-0.089l10.52-11.871a1.994,1.994,0,0,1,1.24-.657l7.71-.993V522h0v-0.011h0v0h0v-0.016h0v-0.039h0V521.9h0a2.87,2.87,0,0,1,.04-0.3h0v-0.011h0v-0.018h0c0.01,0,.01-0.008.01-0.011v-0.014h0v-0.02h0.01v-0.02h0v0h0a0.017,0.017,0,0,1,.01-0.018,2.028,2.028,0,0,1,.23-0.536,1.941,1.941,0,0,1,.28-0.361A2.024,2.024,0,0,1,1080,520h7.23a10.247,10.247,0,0,1-.23-2A6,6,0,0,1,1099,518Z"
                                            transform="translate(-1056 -480)" />
                                    </svg>