<svg xmlns="http://www.w3.org/2000/svg" width="40" height="40" viewBox="0 0 80 96">
                                        <defs>
                                            <style>
                                                .cls-1 {
                                                    fill: #39bc5b;
                                                    fill-rule: evenodd;
                                                }
                                            </style>
                                        </defs>
                                        <path id="Qualification.svg" class="cls-1"
                                            d="M1222,547.292V574a2,2,0,0,1-1.11,1.789,1.962,1.962,0,0,1-.89.211,2,2,0,0,1-1.2-.4l-6.8-5.1-6.8,5.1a2,2,0,0,1-3.2-1.6v-26.7A20,20,0,1,1,1222,547.292ZM1206,570l4.8-3.6a2,2,0,0,1,2.4,0l4.8,3.6V549.075a19.963,19.963,0,0,1-12,0V570Zm6-56a16,16,0,1,0,16,16A16.019,16.019,0,0,0,1212,514Zm-0.46,23.28a2.012,2.012,0,0,1-1.45.717c-0.03,0-.06,0-0.09,0a1.979,1.979,0,0,1-1.41-.586l-6-6a2,2,0,1,1,2.82-2.829l4.46,4.452,8.59-10.318a2,2,0,0,1,3.08,2.561ZM1168,520h20a2,2,0,0,1,0,4h-20A2,2,0,0,1,1168,520Zm0,24h10a2,2,0,0,1,0,4h-10A2,2,0,0,1,1168,544Zm0-16h18a2,2,0,1,1,0,4h-18A2,2,0,1,1,1168,528Zm24-12h-24a2,2,0,0,1,0-4h24A2,2,0,0,1,1192,516Zm8-16h-32a2,2,0,0,1,0-4h32A2,2,0,0,1,1200,500Zm0,8h-32a2,2,0,0,1,0-4h32A2,2,0,0,1,1200,508Zm14,0a2,2,0,0,1-2-2V484h-56v74h42a2,2,0,1,1,0,4h-44a2,2,0,0,1-2-2V482a2,2,0,0,1,2-2h60a2,2,0,0,1,2,2v24A2,2,0,0,1,1214,508Z"
                                            transform="translate(-1152 -480)" />
                                    </svg>