<svg xmlns="http://www.w3.org/2000/svg" width="40" height="40" viewBox="0 0 86 96">
                                        <defs>
                                            <style>
                                                .cls-1 {
                                                    fill: #39bc5b;
                                                    fill-rule: evenodd;
                                                }
                                            </style>
                                        </defs>
                                        <path id="List.svg" class="cls-1"
                                            d="M263.673,573.957v-2.042h-2.046c-0.926,0-1.758.54-3.038,1.421a11.946,11.946,0,0,1-7.2,2.664h-13.3c-4.8,0-7.724-2.5-8.929-7.652-0.721-3.078-2.244-14.07-2.309-14.537l-0.008-.065a7.407,7.407,0,0,1,1.745-5.839,8.468,8.468,0,0,1,6.431-2.545h1.247a2.043,2.043,0,1,1,0,4.085H235.02a4.485,4.485,0,0,0-3.389,1.193,3.4,3.4,0,0,0-.719,2.648c0.1,0.7,1.576,11.316,2.235,14.131,0.777,3.319,2.071,4.5,4.943,4.5h13.3c2.051,0,3.358-.9,4.872-1.942a9.279,9.279,0,0,1,5.362-2.143h2.046V549.447h-2.046c-4.241,0-8.257-3.2-8.7-3.559l-0.139-.125c-0.65-.64-1.247-1.147-1.824-1.637-1.885-1.6-3.664-3.109-3.664-6.935v-1.784a1.962,1.962,0,0,0-2.068.167c-1.344,1.029-1.983,2-1.983,4.706a13.093,13.093,0,0,0,1.433,6.036,11.027,11.027,0,0,1,1.376,4.5l0.053,0.36a7.724,7.724,0,0,0,7.329,6.446,2.043,2.043,0,1,1,0,4.085,11.792,11.792,0,0,1-11.377-9.925l-0.055-.374a7.643,7.643,0,0,0-.789-2.91,16.945,16.945,0,0,1-2.063-8.213c0-3.694,1.038-6,3.584-7.947a6.118,6.118,0,0,1,6.282-.634,3.9,3.9,0,0,1,2.371,3.45v2.042c0,1.937.515,2.374,2.222,3.823,0.585,0.5,1.246,1.057,1.975,1.77,0.961,0.763,3.736,2.578,6.037,2.578h2.046v-2.043H278v30.638H263.673ZM273.907,547.4h-6.14v22.468h6.14V547.4Zm-53.7-.766-8.187,10.212a2.048,2.048,0,0,1-1.485.764c-0.038,0-.075,0-0.113,0a2.049,2.049,0,0,1-1.447-.6l-4.094-4.085a2.045,2.045,0,1,1,2.9-2.889l2.476,2.471,6.758-8.43A2.045,2.045,0,0,1,220.205,546.638Zm-9.672-33.96c-0.038,0-.075,0-0.113,0a2.046,2.046,0,0,1-1.447-.6L204.879,508a2.045,2.045,0,0,1,2.9-2.888l2.476,2.471,6.758-8.431a2.045,2.045,0,0,1,3.2,2.552l-8.187,10.213A2.052,2.052,0,0,1,210.533,512.678Zm9.672,11.492-8.187,10.212a2.048,2.048,0,0,1-1.485.764c-0.038,0-.075,0-0.113,0a2.049,2.049,0,0,1-1.447-.6l-4.094-4.086a2.045,2.045,0,1,1,2.9-2.888l2.476,2.471,6.758-8.43A2.045,2.045,0,0,1,220.205,524.17Zm39.335,15.064a2.044,2.044,0,0,1-2.046-2.043V491.059l-6.988-6.974H196.093v85.787H222.7a2.043,2.043,0,1,1,0,4.085H194.046A2.044,2.044,0,0,1,192,571.915V482.042A2.044,2.044,0,0,1,194.046,480h57.307a2.051,2.051,0,0,1,1.448.6l8.186,8.17a2.041,2.041,0,0,1,.6,1.445v46.978A2.044,2.044,0,0,1,259.54,539.234Zm-16.373-14.3H226.793a2.043,2.043,0,1,1,0-4.085h16.374A2.043,2.043,0,1,1,243.167,524.936Zm-16.374-22.468a2.043,2.043,0,1,1,0-4.085h10.234a2.043,2.043,0,1,1,0,4.085H226.793Zm18.42-8.17V488.17a2.047,2.047,0,0,1,4.094,0v4.085H253.4a2.043,2.043,0,1,1,0,4.085h-6.14A2.045,2.045,0,0,1,245.213,494.3Zm2.047,16.34H226.793a2.043,2.043,0,1,1,0-4.085H247.26A2.043,2.043,0,1,1,247.26,510.638Zm-20.467,18.383h6.14a2.043,2.043,0,1,1,0,4.085h-6.14A2.043,2.043,0,1,1,226.793,529.021Z"
                                            transform="translate(-192 -480)" />
                                    </svg>