<svg xmlns="http://www.w3.org/2000/svg" width="40" height="40" viewBox="0 0 96 96">
                                        <defs>
                                            <style>
                                                .cls-1 {
                                                    fill: #39bc5b;
                                                    fill-rule: evenodd;
                                                }
                                            </style>
                                        </defs>
                                        <path id="Agreement.svg" class="cls-1"
                                            d="M1342,494v22.126a10.817,10.817,0,0,1-3.46,7.965l-0.1.085-8.44,6.782V550h-12a3.625,3.625,0,0,1-3.37-1.654,3.276,3.276,0,0,1,.06-3.312q0.165-.285.33-0.585A5.552,5.552,0,0,0,1316,542a4,4,0,0,0-8,0,5.552,5.552,0,0,0,.98,2.449q0.165,0.3.33,0.585a3.276,3.276,0,0,1,.06,3.312A3.625,3.625,0,0,1,1306,550h-24v4a8.869,8.869,0,0,1-4,7.1V562h4v14h-34V562h2V539.874a10.817,10.817,0,0,1,3.46-7.965l0.1-.085,8.44-6.782V506h11.25a8.167,8.167,0,0,1-1.25-4,8,8,0,0,1,16,0,8.167,8.167,0,0,1-1.25,4H1310v-4a8.869,8.869,0,0,1,4-7.1V494h-4V480h34v14h-2Zm-90,72v6h26v-6h-26Zm10-35.827-5.88,4.725a6.805,6.805,0,0,0-2.12,4.976V562h20v-3.236l1.11-.553c0.01-.009,2.89-1.526,2.89-4.211v-4h-6.15c-0.73,5.046-4.29,8-9.85,8v-4c5.38,0,6-3.424,6-6v-2.828l4.5-4.5a3.953,3.953,0,0,0-.38-5.118c-0.45-.4-0.55-0.295-0.71-0.14l-10,10-2.82-2.828,3.41-3.415v-9ZM1294,510h-8a3.625,3.625,0,0,1-3.37-1.654,3.276,3.276,0,0,1,.06-3.312q0.165-.285.33-0.585A5.552,5.552,0,0,0,1284,502a4,4,0,0,0-8,0,5.552,5.552,0,0,0,.98,2.449q0.165,0.3.33,0.585a3.276,3.276,0,0,1,.06,3.312A3.625,3.625,0,0,1,1274,510h-8v25.171l2.59-2.585a4.312,4.312,0,0,1,6.2-.012,7.985,7.985,0,0,1,.77,10.676l-0.15.164L1272.83,546H1294V534.747a8.137,8.137,0,0,1-4,1.253,8,8,0,0,1,0-16,8.137,8.137,0,0,1,4,1.253V510Zm2.35,15.372a3.291,3.291,0,0,1-3.32-.064c-0.19-.105-0.38-0.217-0.58-0.333A5.582,5.582,0,0,0,1290,524a4,4,0,0,0,0,8,5.582,5.582,0,0,0,2.45-.975c0.2-.116.39-0.228,0.58-0.333a3.294,3.294,0,0,1,3.32-.064A3.644,3.644,0,0,1,1298,534v12h7.25a8.167,8.167,0,0,1-1.25-4,8,8,0,0,1,16,0,8.167,8.167,0,0,1-1.25,4H1326V520.829l-2.59,2.585a4.25,4.25,0,0,1-3.03,1.32,4.79,4.79,0,0,1-3.17-1.308,7.985,7.985,0,0,1-.77-10.676l0.15-.164,2.58-2.586H1298v12A3.644,3.644,0,0,1,1296.35,525.372ZM1320.15,506c0.73-5.046,4.29-8,9.85-8v4c-5.38,0-6,3.424-6,6v2.828l-4.5,4.5a3.953,3.953,0,0,0,.38,5.118c0.45,0.4.55,0.295,0.71,0.14l10-10,2.82,2.828-3.41,3.415v9l5.88-4.725a6.805,6.805,0,0,0,2.12-4.976V494h-20v3.236l-1.11.553c-0.01.009-2.89,1.526-2.89,4.211v4h6.15ZM1340,484h-26v6h26v-6Z"
                                            transform="translate(-1248 -480)" />
                                    </svg>