<svg version="1.1" xmlns="http://www.w3.org/2000/svg" width="50" height="50" viewBox="0 0 32 32">
        <path d="M18.057 31.445c-0.368 0-0.667-0.3-0.667-0.667v-25.333c0-0.368 0.299-0.667 0.667-0.667 0.367 0 0.667 0.299 0.667 0.667v25.333c0 0.367-0.3 0.667-0.667 0.667zM18.057 14.584c-0.18 0-0.36-0.072-0.492-0.215-0.249-0.271-0.232-0.692 0.039-0.943l3.224-2.972c0.271-0.249 0.693-0.232 0.943 0.039s0.232 0.692-0.039 0.943l-3.224 2.972c-0.128 0.117-0.289 0.176-0.451 0.176zM18.057 19.279c-0.107 0-0.213-0.027-0.312-0.079l-7.333-3.888c-0.325-0.172-0.449-0.576-0.277-0.901s0.576-0.448 0.901-0.277l7.333 3.888c0.325 0.172 0.449 0.577 0.277 0.901-0.12 0.225-0.351 0.356-0.589 0.356zM19.167 23.503c-1.987 0-3.88-0.885-5.173-2.393-1 0.549-2.119 0.836-3.271 0.836-3.768 0-6.833-3.065-6.833-6.833s3.065-6.833 6.833-6.833c0.188 0 0.379 0.009 0.573 0.028-0.049-0.313-0.073-0.616-0.073-0.917 0-3.768 3.065-6.833 6.833-6.833 2.789 0 5.299 1.723 6.328 4.317 2.273 1.167 3.729 3.52 3.729 6.071 0 1.872-0.787 3.656-2.167 4.953 0.031 0.243 0.055 0.5 0.055 0.771-0.001 3.769-3.064 6.835-6.835 6.835zM14.153 19.568c0.208 0 0.413 0.096 0.544 0.279 1.036 1.455 2.708 2.323 4.472 2.323 3.031 0 5.5-2.469 5.5-5.5 0-0.315-0.044-0.616-0.095-0.917-0.039-0.232 0.048-0.469 0.228-0.62 1.255-1.059 1.976-2.584 1.976-4.187 0-2.127-1.257-4.083-3.204-4.984-0.164-0.076-0.291-0.215-0.351-0.384-0.773-2.205-2.849-3.687-5.167-3.687-3.031 0-5.5 2.468-5.5 5.5 0 0.477 0.081 0.972 0.253 1.553 0.069 0.227 0.009 0.475-0.155 0.649-0.164 0.172-0.407 0.245-0.64 0.189-0.472-0.116-0.895-0.171-1.292-0.171-3.032 0-5.5 2.468-5.5 5.5 0 3.033 2.468 5.5 5.5 5.5 1.095 0 2.152-0.32 3.057-0.929 0.113-0.079 0.244-0.115 0.372-0.115z"></path>
        </svg>