<svg version="1.1" xmlns="http://www.w3.org/2000/svg" width="50" height="50" viewBox="0 0 32 32">
        <path d="M30.667 17.287h-20.277c-3.983 0-7.223-3.303-7.223-7.363 0-4.057 3.24-7.361 7.223-7.361 0.368 0 0.667 0.299 0.667 0.667s-0.299 0.667-0.667 0.667c-3.192 0-5.889 2.759-5.889 6.028 0 3.271 2.697 6.028 5.889 6.028h20.277c0.367 0 0.667 0.3 0.667 0.667 0 0.368-0.3 0.668-0.667 0.668zM9.817 29.437c-2.204 0-3.997-1.828-3.997-4.081 0-2.251 1.805-4.079 4.025-4.079h20.821c0.367 0 0.667 0.303 0.667 0.667 0 0.367-0.3 0.667-0.667 0.667h-20.821c-1.459 0-2.692 1.255-2.692 2.745 0 1.513 1.195 2.748 2.664 2.748 0.368 0 0.667 0.297 0.667 0.667 0 0.368-0.297 0.667-0.667 0.667zM30.667 19.953h-29.333c-0.368 0-0.667-0.3-0.667-0.667s0.299-0.667 0.667-0.667h29.333c0.367 0 0.667 0.3 0.667 0.667s-0.3 0.667-0.667 0.667z"></path>
        </svg>