<?xml version="1.0" standalone="no"?>
<!DOCTYPE svg PUBLIC "-//W3C//DTD SVG 20010904//EN"
 "http://www.w3.org/TR/2001/REC-SVG-20010904/DTD/svg10.dtd">
<svg version="1.0" xmlns="http://www.w3.org/2000/svg"
 width="512.000000pt" height="512.000000pt" viewBox="0 0 512.000000 512.000000"
 preserveAspectRatio="xMidYMid meet">
<defs>
    <style>
        .cls-1 {
            fill: #39bc5b;
            fill-rule: evenodd;
        }
    </style>
</defs>
<g transform="translate(0.000000,512.000000) scale(0.100000,-0.100000)"
fill="#000000" stroke="none">
<path class="cls-1" d="M2359 5020 c-249 -52 -472 -225 -588 -457 -34 -69 -81 -220 -81 -263
0 -58 -3 -60 -114 -60 l-101 0 -95 -160 c-52 -88 -97 -160 -100 -160 -3 0 -32
46 -65 103 -33 56 -77 121 -98 144 -101 110 -281 89 -362 -41 l-30 -49 -3
-319 -3 -318 80 0 81 0 0 295 0 296 25 24 c25 26 54 31 84 15 10 -5 78 -110
152 -234 74 -124 136 -225 139 -225 3 0 68 105 145 234 l140 235 62 0 c55 0
63 -2 63 -18 0 -66 49 -196 156 -412 l115 -235 -48 -51 c-58 -59 -79 -118 -69
-192 l6 -48 -60 -59 c-33 -33 -60 -63 -60 -66 0 -4 23 -46 50 -94 28 -48 50
-92 50 -99 0 -32 -32 -51 -126 -76 l-99 -27 0 -223 0 -223 98 -26 c95 -25 127
-45 127 -77 0 -7 -23 -51 -50 -99 -27 -48 -50 -90 -50 -93 0 -9 303 -312 312
-312 3 0 45 22 93 50 48 27 92 50 99 50 32 0 51 -32 76 -126 l27 -99 223 0
223 0 26 95 c30 110 33 116 64 124 18 4 50 -9 116 -46 l93 -51 154 154 c85 84
154 157 154 161 0 3 -22 45 -50 93 -27 48 -50 92 -50 99 0 32 32 51 126 76
l99 27 0 223 0 223 -99 27 c-94 25 -126 44 -126 76 0 7 23 51 50 99 28 48 50
90 50 94 0 3 -27 33 -60 66 l-59 59 6 56 c7 71 -22 144 -80 196 l-40 36 117
237 c107 217 156 347 156 413 0 16 8 18 63 18 l62 0 140 -235 c77 -129 142
-234 145 -234 3 0 65 101 139 225 74 124 142 229 152 234 30 16 59 11 84 -15
l25 -24 0 -296 0 -295 81 0 80 0 -3 318 -3 319 -30 49 c-81 130 -261 151 -362
41 -21 -23 -65 -88 -98 -144 -33 -57 -62 -103 -65 -103 -3 0 -48 72 -100 160
l-95 160 -101 0 c-111 0 -114 2 -114 60 0 43 -47 194 -81 263 -95 189 -260
340 -460 420 -141 57 -365 72 -530 37z m436 -174 c221 -75 374 -229 451 -451
25 -70 28 -95 28 -205 1 -164 -13 -208 -165 -512 l-119 -238 -175 0 -175 0 0
204 0 205 53 24 c66 30 118 81 154 150 24 45 28 63 28 137 -1 77 -4 91 -34
148 -38 70 -70 100 -145 140 -44 22 -63 26 -136 26 -100 0 -160 -24 -225 -89
-65 -64 -89 -125 -89 -225 -1 -74 3 -92 27 -137 36 -69 88 -120 154 -150 l53
-24 0 -205 0 -204 -175 0 -175 0 -119 238 c-152 304 -166 348 -165 512 0 110
3 135 28 205 70 203 216 360 406 435 100 40 167 50 305 46 109 -3 143 -7 210
-30z m-172 -540 c103 -43 128 -177 48 -257 -112 -113 -296 -12 -267 146 18 94
128 150 219 111z m472 -1051 c16 -15 25 -36 25 -55 0 -19 -9 -40 -25 -55 l-24
-25 -511 0 -511 0 -24 25 c-16 15 -25 36 -25 55 0 19 9 40 25 55 l24 25 511 0
511 0 24 -25z m-1116 -270 c21 -11 30 -23 34 -52 7 -56 44 -147 81 -201 l32
-47 -19 -50 c-61 -164 -11 -371 121 -497 272 -259 704 -132 799 235 19 75 13
190 -14 263 l-19 49 32 47 c37 54 74 145 81 201 5 29 13 41 36 53 22 12 32 13
41 4 8 -8 0 -31 -32 -91 l-43 -80 34 -82 c19 -45 37 -89 40 -98 3 -9 19 -19
36 -22 18 -4 56 -14 86 -23 l55 -15 0 -99 0 -99 -37 -10 c-21 -6 -60 -16 -87
-23 -27 -7 -51 -20 -53 -28 -3 -8 -21 -52 -40 -97 l-34 -82 43 -80 43 -80 -65
-66 c-35 -36 -69 -65 -75 -65 -6 0 -42 18 -80 41 -38 22 -76 38 -85 35 -8 -2
-53 -20 -100 -40 -93 -38 -84 -26 -120 -163 l-11 -43 -99 0 -99 0 -10 38 c-6
20 -16 59 -23 86 -7 27 -20 51 -28 53 -8 3 -52 21 -97 40 l-82 34 -80 -43 -80
-43 -68 68 -68 68 43 80 43 80 -34 82 c-19 45 -37 89 -40 97 -2 8 -26 21 -53
28 -27 7 -66 17 -86 23 l-38 10 0 99 0 99 38 10 c20 6 59 16 86 23 27 7 51 20
53 28 3 8 21 52 40 97 l35 83 -42 75 c-23 42 -39 82 -36 90 7 19 10 19 45 0z
m971 -39 c0 -7 -16 -45 -35 -83 -43 -86 -103 -144 -193 -186 -61 -29 -76 -32
-162 -32 -86 0 -101 3 -162 32 -90 42 -150 100 -193 186 -19 38 -35 76 -35 83
0 12 67 14 390 14 323 0 390 -2 390 -14z m-550 -442 c40 -14 84 -19 160 -19
110 0 166 13 262 61 l47 24 7 -45 c13 -87 -18 -188 -80 -262 -14 -16 -53 -45
-88 -64 -58 -31 -70 -34 -148 -33 -72 0 -93 4 -136 26 -75 39 -107 70 -142
136 -34 63 -49 146 -38 206 l7 36 47 -24 c26 -13 72 -32 102 -42z"/>
<path class="cls-1" d="M720 3200 l0 -80 80 0 80 0 0 80 0 80 -80 0 -80 0 0 -80z"/>
<path class="cls-1" d="M4240 3200 l0 -80 80 0 80 0 0 80 0 80 -80 0 -80 0 0 -80z"/>
<path class="cls-1" d="M720 2880 l0 -80 80 0 80 0 0 80 0 80 -80 0 -80 0 0 -80z"/>
<path class="cls-1" d="M4240 2880 l0 -80 80 0 80 0 0 80 0 80 -80 0 -80 0 0 -80z"/>
<path class="cls-1" d="M681 2624 c-253 -68 -410 -331 -346 -577 20 -78 58 -150 106 -202
l40 -43 -73 -39 c-106 -55 -203 -155 -257 -264 -70 -142 -71 -149 -71 -821 l0
-598 680 0 680 0 0 160 0 160 176 0 c214 0 241 7 309 75 98 97 101 222 8 325
-66 74 -94 80 -360 80 l-223 0 0 23 c0 12 -7 108 -16 212 -17 210 -39 308 -87
399 -31 58 -150 191 -192 215 l-20 11 20 12 c46 27 135 123 164 177 102 192
73 406 -76 562 -118 124 -300 177 -462 133z m270 -185 c67 -36 98 -68 137
-143 22 -43 26 -64 26 -136 1 -78 -2 -90 -33 -148 -38 -70 -70 -100 -145 -140
-43 -22 -64 -26 -136 -26 -72 0 -93 4 -136 26 -75 40 -107 70 -145 140 -31 58
-34 70 -33 148 0 100 24 160 89 225 100 100 249 121 376 54z m-136 -774 c129
-34 237 -123 298 -243 40 -80 41 -88 66 -379 21 -242 29 -264 101 -300 42 -22
55 -23 278 -23 l233 0 24 -25 c33 -32 33 -78 0 -110 l-24 -25 -293 0 c-273 0
-296 2 -338 21 -25 11 -58 32 -73 47 -61 57 -66 81 -98 420 -16 174 -31 317
-32 317 -5 4 -148 -12 -152 -17 -3 -2 9 -146 25 -320 32 -349 42 -391 110
-477 67 -85 165 -138 274 -148 l66 -6 0 -78 0 -79 -520 0 -520 0 0 510 c0 539
2 572 48 670 32 69 139 178 207 210 106 50 216 62 320 35z"/>
<path class="cls-1" d="M4201 2624 c-253 -68 -410 -331 -346 -579 9 -32 30 -84 46 -116 29
-54 118 -150 164 -177 l20 -12 -20 -11 c-11 -6 -52 -44 -92 -84 -78 -81 -132
-177 -157 -280 -12 -51 -46 -391 -46 -462 l0 -23 -221 0 c-145 0 -236 -4 -263
-12 -55 -16 -138 -99 -154 -154 -28 -94 -8 -169 63 -239 68 -68 95 -75 309
-75 l176 0 0 -160 0 -160 680 0 680 0 0 598 c0 672 -1 679 -71 821 -54 109
-151 209 -257 264 l-73 39 40 43 c102 111 144 282 106 428 -67 259 -333 419
-584 351z m270 -185 c67 -36 98 -68 137 -143 22 -43 26 -64 26 -136 1 -78 -2
-90 -33 -148 -38 -70 -70 -100 -145 -140 -43 -22 -64 -26 -136 -26 -72 0 -93
4 -136 26 -75 40 -107 70 -145 140 -31 58 -34 70 -33 148 0 100 24 160 89 225
100 100 249 121 376 54z m41 -770 c89 -19 158 -58 229 -128 70 -71 109 -140
128 -229 7 -35 11 -226 11 -562 l0 -510 -520 0 -520 0 0 79 0 78 66 6 c109 10
214 68 280 155 62 82 72 127 104 470 16 174 28 318 25 320 -4 5 -147 21 -152
17 -1 0 -16 -143 -32 -317 -32 -339 -37 -363 -98 -420 -15 -15 -48 -36 -73
-47 -42 -19 -65 -21 -338 -21 l-293 0 -24 25 c-33 32 -33 78 0 110 l24 25 233
0 c223 0 236 1 278 22 72 37 80 59 101 301 25 291 26 299 66 379 95 190 300
290 505 247z"/>
</g>
</svg>
