<svg version="1.1" xmlns="http://www.w3.org/2000/svg" width="50" height="50" viewBox="0 0 32 32">
        <path d="M16 32c-0.109 0-0.219-0.027-0.317-0.081l-13.439-7.679c-0.199-0.117-0.323-0.328-0.323-0.559v-15.36c0-0.231 0.123-0.441 0.323-0.557l13.439-7.68c0.196-0.112 0.44-0.112 0.636 0l13.439 7.68c0.2 0.117 0.323 0.328 0.323 0.557v15.36c0 0.231-0.123 0.441-0.323 0.559l-13.439 7.68c-0.1 0.052-0.209 0.080-0.319 0.080zM3.201 23.309l12.799 7.313 12.8-7.312v-14.617l-12.8-7.313-12.799 7.313v14.616zM9.623 24.32c-0.157 0-0.315-0.057-0.439-0.173-0.257-0.241-0.271-0.647-0.028-0.904l11.817-12.595c-3.012 0.412-9.188 2.075-9.633 8.755-0.023 0.352-0.332 0.635-0.68 0.597-0.352-0.025-0.62-0.329-0.596-0.681 0.657-9.855 12.392-10.085 12.509-10.087 0.243-0.007 0.489 0.148 0.593 0.383 0.103 0.239 0.055 0.509-0.12 0.696l-12.957 13.808c-0.127 0.133-0.297 0.201-0.467 0.201zM14.325 23.321c-0.476 0-0.985-0.028-1.531-0.081-0.352-0.036-0.608-0.352-0.571-0.704 0.036-0.349 0.348-0.623 0.703-0.568 5.692 0.585 6.631-2.28 7.716-5.607 0.584-1.787 1.187-3.633 2.561-5.007 0.251-0.251 0.655-0.251 0.905 0 0.251 0.247 0.251 0.655 0 0.905-1.16 1.157-1.688 2.781-2.251 4.5-1.007 3.091-2.141 6.561-7.533 6.561z"></path>
        </svg>