<svg version="1.1" xmlns="http://www.w3.org/2000/svg" width="50" height="50" viewBox="0 0 32 32">
        <path d="M13.333 30.945h-8c-0.341 0-0.628-0.257-0.663-0.596l-1.333-12.667c-0.039-0.364 0.227-0.695 0.593-0.735 0.363-0.049 0.695 0.227 0.732 0.593l1.271 12.071h6.8l1.271-12.071c0.039-0.367 0.369-0.64 0.732-0.593 0.367 0.039 0.632 0.367 0.593 0.735l-1.333 12.667c-0.035 0.339-0.321 0.596-0.663 0.596zM22.667 30.279c-0.367 0-0.667-0.3-0.667-0.667v-9.333c0-0.369 0.3-0.667 0.667-0.667s0.667 0.297 0.667 0.667v9.333c0 0.367-0.3 0.667-0.667 0.667zM28 20.945c-0.367 0-0.667-0.3-0.667-0.667v-10.667h-9.745l-6.475 5.829c-0.275 0.245-0.695 0.223-0.941-0.049-0.247-0.275-0.224-0.695 0.049-0.943l6.667-6c0.123-0.111 0.281-0.172 0.445-0.172h10.667c0.367 0 0.667 0.299 0.667 0.667v11.333c0 0.368-0.3 0.668-0.667 0.668zM22.584 7.556c-1.792 0-3.251-1.459-3.251-3.251 0-1.795 1.459-3.251 3.251-3.251s3.251 1.459 3.251 3.251c-0.001 1.793-1.46 3.251-3.251 3.251zM22.584 2.389c-1.057 0-1.917 0.86-1.917 1.917s0.86 1.917 1.917 1.917 1.917-0.861 1.917-1.917c-0.001-1.055-0.861-1.917-1.917-1.917zM25.333 30.945h-5.333c-0.367 0-0.667-0.3-0.667-0.667v-18c0-0.368 0.3-0.667 0.667-0.667s0.667 0.299 0.667 0.667v17.333h4v-17.333c0-0.368 0.3-0.667 0.667-0.667s0.667 0.299 0.667 0.667v18c0 0.367-0.3 0.667-0.667 0.667z"></path>
        </svg>