<?xml version="1.0" standalone="no"?>
<!DOCTYPE svg PUBLIC "-//W3C//DTD SVG 20010904//EN"
 "http://www.w3.org/TR/2001/REC-SVG-20010904/DTD/svg10.dtd">
<svg version="1.0" xmlns="http://www.w3.org/2000/svg"
 width="512.000000pt" height="512.000000pt" viewBox="0 0 512.000000 512.000000"
 preserveAspectRatio="xMidYMid meet">

<g transform="translate(0.000000,512.000000) scale(0.100000,-0.100000)"
fill="#000000" stroke="none">
<path d="M455 5095 l-25 -24 0 -1086 0 -1085 85 0 85 0 0 1025 0 1025 1620 0
1620 0 0 -300 0 -300 85 0 85 0 0 350 c0 234 -4 357 -11 373 -6 14 -22 30 -36
36 -17 8 -507 11 -1754 11 l-1730 0 -24 -25z"/>
<path d="M1561 4691 c-49 -17 -85 -50 -393 -357 -216 -217 -346 -354 -358
-380 -13 -27 -20 -61 -20 -102 0 -105 43 -178 131 -227 46 -25 65 -29 131 -30
l77 0 52 -75 c28 -41 64 -91 80 -111 l28 -35 -342 -340 -342 -340 -45 12
c-126 35 -268 -44 -305 -170 -19 -63 -19 -90 1 -156 14 -49 32 -70 168 -208
176 -179 216 -205 316 -206 143 0 252 109 251 253 0 31 -4 68 -10 81 -9 23 12
46 332 367 l340 342 56 -43 c31 -24 82 -60 114 -81 l58 -38 -6 -52 c-19 -148
98 -285 242 -285 117 0 107 -7 481 364 241 240 349 354 364 386 26 53 29 147
6 201 -25 57 -83 114 -140 139 -44 19 -64 22 -123 17 l-70 -6 -42 67 c-140
224 -388 471 -653 649 l-44 30 -1 84 c0 66 -5 93 -22 124 -62 116 -192 169
-312 126z m147 -187 c13 -15 22 -38 22 -57 0 -28 -35 -66 -312 -345 -172 -172
-326 -320 -342 -329 -55 -29 -116 10 -116 75 0 36 13 51 323 358 177 177 329
324 337 327 26 10 64 -3 88 -29z m173 -345 c160 -107 297 -231 425 -382 71
-84 194 -258 194 -274 0 -5 -114 -122 -254 -262 -184 -184 -258 -252 -270
-248 -25 10 -135 85 -191 131 -199 164 -414 399 -496 543 l-24 43 255 255
c140 140 258 255 263 255 4 0 48 -27 98 -61z m905 -733 c21 -18 28 -32 28 -60
0 -35 -16 -53 -325 -362 -288 -287 -328 -324 -356 -324 -17 0 -39 3 -48 6 -24
10 -47 62 -40 93 4 18 110 131 328 349 287 287 326 322 354 322 19 0 43 -10
59 -24z m-1321 -246 l59 -60 -54 -55 c-30 -30 -59 -55 -64 -55 -13 0 -116 101
-116 114 0 11 100 116 110 116 3 0 32 -27 65 -60z m-240 -240 l60 -60 -210
-210 -210 -210 -62 62 -63 63 207 207 c114 115 210 208 213 208 3 0 32 -27 65
-60z m-547 -543 c126 -126 142 -145 142 -175 0 -47 -14 -69 -54 -82 -28 -9
-40 -8 -63 4 -42 22 -280 267 -288 296 -14 57 46 118 100 104 11 -3 84 -70
163 -147z"/>
<path d="M3070 4605 l0 -85 85 0 85 0 0 85 0 85 -85 0 -85 0 0 -85z"/>
<path d="M3412 4608 l3 -83 83 -3 82 -3 0 86 0 85 -85 0 -86 0 3 -82z"/>
<path d="M2472 4268 l3 -83 428 -3 427 -2 0 85 0 85 -430 0 -431 0 3 -82z"/>
<path d="M3525 4155 l-25 -24 0 -616 0 -615 -230 0 -231 0 -24 -25 -25 -24 0
-616 0 -615 -229 0 c-229 0 -230 0 -258 -24 l-28 -24 -3 -729 c-2 -400 0 -743
3 -762 4 -18 17 -44 30 -57 l24 -24 1226 0 1226 0 24 25 25 24 0 2041 0 2041
-25 24 -24 25 -716 0 -716 0 -24 -25z m405 -333 l0 -189 26 -24 26 -24 268 -3
c296 -3 331 2 350 53 6 15 10 105 10 201 l0 174 125 0 125 0 0 -555 0 -555
-595 0 -595 0 0 555 0 555 130 0 130 0 0 -188z m508 61 l-3 -128 -167 -3 -168
-2 0 130 0 130 170 0 171 0 -3 -127z m-856 -1384 l3 -231 28 -24 28 -24 369 0
369 0 28 24 28 24 3 231 3 231 210 0 209 0 0 -555 0 -555 -850 0 -850 0 0 555
0 555 209 0 210 0 3 -231z m688 61 l0 -170 -260 0 -260 0 0 170 0 170 260 0
260 0 0 -170z m-940 -1340 l0 -231 25 -24 24 -25 376 0 376 0 24 25 25 24 0
231 0 230 340 0 340 0 0 -640 0 -640 -1105 0 -1105 0 0 640 0 640 340 0 340 0
0 -230z m680 60 l0 -170 -255 0 -255 0 0 170 0 170 255 0 255 0 0 -170z"/>
<path d="M4180 3155 l0 -85 85 0 85 0 0 85 0 85 -85 0 -85 0 0 -85z"/>
<path d="M4520 3155 l0 -85 85 0 85 0 0 85 0 85 -85 0 -85 0 0 -85z"/>
<path d="M4180 1875 l0 -85 85 0 85 0 0 85 0 85 -85 0 -85 0 0 -85z"/>
<path d="M4520 1875 l0 -85 85 0 85 0 0 85 0 85 -85 0 -85 0 0 -85z"/>
<path d="M4180 425 l0 -85 85 0 85 0 0 85 0 85 -85 0 -85 0 0 -85z"/>
<path d="M4520 425 l0 -85 85 0 85 0 0 85 0 85 -85 0 -85 0 0 -85z"/>
<path d="M430 1265 l0 -616 25 -24 24 -25 911 0 910 0 0 85 0 85 -850 0 -850
0 0 555 0 555 -85 0 -85 0 0 -615z"/>
<path d="M1110 1795 l0 -85 85 0 85 0 0 85 0 85 -85 0 -85 0 0 -85z"/>
<path d="M1450 1795 l0 -85 425 0 425 0 0 85 0 85 -425 0 -425 0 0 -85z"/>
<path d="M940 1455 l0 -85 680 0 680 0 0 85 0 85 -680 0 -680 0 0 -85z"/>
<path d="M940 1105 l0 -85 595 0 595 0 0 85 0 85 -595 0 -595 0 0 -85z"/>
<path d="M92 803 l3 -308 27 -51 c35 -67 115 -138 184 -163 53 -20 74 -21 645
-21 l590 0 -3 83 -3 82 -587 5 c-576 5 -587 5 -615 26 -15 11 -38 36 -51 54
-22 32 -22 39 -22 316 l0 284 -86 0 -85 0 3 -307z"/>
<path d="M1710 345 l0 -85 85 0 86 0 -3 83 -3 82 -82 3 -83 3 0 -86z"/>
</g>
</svg>
