<svg version="1.1" xmlns="http://www.w3.org/2000/svg" width="50" height="50" viewBox="0 0 32 32">
        <path d="M4.243 24.728c-0.269 0-0.512-0.164-0.616-0.413s-0.047-0.535 0.144-0.727c0.505-0.507 1.404-1.724 2.039-3.057-3.191-1.453-5.143-3.957-5.143-6.652 0-4.377 5.084-7.94 11.333-7.94 6.251 0 11.333 3.563 11.333 7.94s-5.084 7.939-11.333 7.939c-0.373 0-0.74-0.017-1.103-0.043-1.849 1.959-4.088 2.953-6.655 2.953zM12 7.272c-5.515 0-10 2.964-10 6.607 0 2.308 1.891 4.485 4.935 5.683 0.165 0.067 0.299 0.195 0.368 0.359 0.069 0.163 0.073 0.348 0.007 0.512-0.396 0.988-0.983 2.003-1.556 2.82 1.651-0.325 3.116-1.195 4.373-2.608 0.139-0.156 0.344-0.236 0.555-0.22 0.432 0.037 0.869 0.064 1.317 0.064 5.515 0 10-2.964 10-6.605 0.001-3.647-4.484-6.611-9.999-6.611zM27.979 26.061c-2.377 0-4.451-0.917-6.167-2.727-2.724 0.192-5.597-0.415-7.736-1.664-0.319-0.185-0.425-0.591-0.24-0.912s0.595-0.427 0.912-0.24c1.989 1.16 4.723 1.685 7.277 1.461 0.204-0.021 0.416 0.064 0.555 0.22 1.123 1.257 2.424 2.051 3.888 2.365-0.508-0.74-1.020-1.637-1.368-2.512-0.067-0.164-0.064-0.349 0.007-0.512 0.069-0.163 0.203-0.292 0.367-0.36 2.792-1.092 4.527-3.085 4.527-5.196 0-3.336-4.12-6.051-9.185-6.051-0.368 0-0.667-0.3-0.667-0.667s0.299-0.667 0.667-0.667c5.8 0 10.519 3.309 10.519 7.384 0 2.496-1.797 4.811-4.732 6.168 0.583 1.203 1.405 2.319 1.851 2.764 0.192 0.192 0.249 0.475 0.144 0.727-0.104 0.251-0.345 0.417-0.617 0.417z"></path>
        </svg>