<?xml version="1.0" standalone="no"?>
<!DOCTYPE svg PUBLIC "-//W3C//DTD SVG 20010904//EN"
 "http://www.w3.org/TR/2001/REC-SVG-20010904/DTD/svg10.dtd">
<svg version="1.0" xmlns="http://www.w3.org/2000/svg"
 width="20.000000pt" height="20.000000pt" viewBox="0 0 20.000000 20.000000"
 preserveAspectRatio="xMidYMid meet">

<g transform="translate(0.000000,20.000000) scale(0.100000,-0.100000)"
fill="#000000" stroke="none">
<path d="M20 162 c0 -4 18 -26 40 -47 l40 -39 40 39 c22 21 40 43 40 47 0 4
-36 8 -80 8 -44 0 -80 -4 -80 -8z"/>
<path d="M0 100 l0 -65 32 33 33 32 -33 32 -32 33 0 -65z"/>
<path d="M165 130 l-29 -30 32 -33 32 -32 0 63 c0 34 -1 62 -3 62 -2 0 -16
-14 -32 -30z"/>
<path d="M42 67 c-12 -13 -22 -26 -22 -30 0 -4 36 -7 80 -7 44 0 80 4 80 8 0
5 -11 19 -25 32 -21 19 -27 21 -40 10 -12 -10 -19 -10 -27 -2 -17 17 -21 15
-46 -11z"/>
</g>
</svg>
