<?xml version="1.0" encoding="UTF-8"?>
<svg xmlns="http://www.w3.org/2000/svg" xmlns:xlink="http://www.w3.org/1999/xlink" width="17px" height="17px" viewBox="0 0 17 17" version="1.1">
<g id="surface1">
<path style=" stroke:none;fill-rule:nonzero;fill:rgb(108,152,225);fill-opacity:1;" d="M 1.132812 2.179688 C 0.71875 2.289062 0.34375 2.609375 0.140625 3.019531 C 0.015625 3.265625 0.015625 3.273438 0.015625 3.683594 C 0.015625 4.082031 0.0195312 4.109375 0.121094 4.324219 C 0.179688 4.445312 0.300781 4.625 0.386719 4.71875 C 0.601562 4.945312 7.699219 9.6875 7.972656 9.78125 C 8.222656 9.867188 8.777344 9.867188 9.027344 9.78125 C 9.300781 9.6875 16.398438 4.945312 16.613281 4.71875 C 16.703125 4.625 16.820312 4.445312 16.878906 4.324219 C 16.96875 4.128906 16.984375 4.058594 16.992188 3.761719 C 17.007812 3.484375 16.996094 3.390625 16.9375 3.210938 C 16.765625 2.695312 16.355469 2.308594 15.855469 2.175781 C 15.683594 2.132812 14.839844 2.125 8.484375 2.128906 C 2.3125 2.128906 1.285156 2.136719 1.132812 2.179688 Z M 1.132812 2.179688 "/>
<path style=" stroke:none;fill-rule:nonzero;fill:rgb(108,152,225);fill-opacity:1;" d="M 0.0078125 9.703125 L 0.015625 13.730469 L 0.140625 13.976562 C 0.277344 14.261719 0.523438 14.53125 0.78125 14.675781 C 1.152344 14.886719 0.632812 14.875 8.5 14.875 C 14.835938 14.875 15.683594 14.867188 15.855469 14.824219 C 16.351562 14.691406 16.765625 14.304688 16.933594 13.800781 C 17 13.597656 17 13.542969 16.992188 9.636719 L 16.984375 5.675781 L 13.398438 8.070312 C 11.425781 9.386719 9.730469 10.503906 9.628906 10.554688 C 9.1875 10.785156 8.570312 10.878906 8.085938 10.792969 C 7.550781 10.703125 7.554688 10.703125 3.703125 8.132812 C 1.714844 6.808594 0.0625 5.710938 0.0390625 5.699219 C 0.0078125 5.675781 0 6.457031 0.0078125 9.703125 Z M 0.0078125 9.703125 "/>
</g>
</svg>
