<?xml version="1.0" encoding="UTF-8"?>
<svg xmlns="http://www.w3.org/2000/svg" xmlns:xlink="http://www.w3.org/1999/xlink" width="20px" height="20px" viewBox="0 0 20 20" version="1.1">
<g id="surface1">
<path style=" stroke:none;fill-rule:nonzero;fill:rgb(0%,0%,0%);fill-opacity:1;" d="M 2.675781 3.921875 C 2.132812 4.09375 1.726562 4.496094 1.5625 5.035156 C 1.488281 5.273438 1.484375 5.410156 1.484375 9.765625 C 1.484375 13.996094 1.488281 14.265625 1.554688 14.480469 C 1.734375 15.046875 2.207031 15.492188 2.777344 15.621094 C 3.015625 15.675781 16.984375 15.675781 17.222656 15.621094 C 17.792969 15.492188 18.265625 15.046875 18.445312 14.480469 C 18.511719 14.265625 18.515625 13.996094 18.515625 9.765625 C 18.515625 5.410156 18.511719 5.273438 18.4375 5.035156 C 18.292969 4.566406 17.980469 4.210938 17.515625 3.996094 L 17.285156 3.886719 L 10.058594 3.878906 C 4.308594 3.875 2.800781 3.882812 2.675781 3.921875 Z M 17.058594 4.5625 C 17.089844 4.582031 15.832031 5.714844 13.550781 7.726562 L 10 10.859375 L 6.449219 7.726562 C 4.21875 5.757812 2.914062 4.578125 2.941406 4.5625 C 3.003906 4.523438 16.996094 4.523438 17.058594 4.5625 Z M 4.714844 7.121094 L 6.835938 8.988281 L 5.558594 10.441406 C 4.855469 11.242188 3.816406 12.425781 3.246094 13.078125 C 2.230469 14.234375 2.207031 14.257812 2.175781 14.144531 C 2.160156 14.078125 2.152344 12.0625 2.15625 9.660156 C 2.167969 5.601562 2.171875 5.28125 2.234375 5.140625 L 2.304688 4.992188 L 2.449219 5.121094 C 2.53125 5.191406 3.550781 6.089844 4.714844 7.121094 Z M 17.84375 9.671875 C 17.847656 12.082031 17.839844 14.09375 17.820312 14.140625 C 17.792969 14.21875 17.546875 13.953125 15.496094 11.617188 C 14.234375 10.179688 13.207031 8.988281 13.214844 8.972656 C 13.21875 8.953125 14.226562 8.054688 15.449219 6.972656 L 17.675781 5.007812 L 17.753906 5.148438 C 17.832031 5.289062 17.832031 5.375 17.84375 9.671875 Z M 8.664062 10.605469 C 9.273438 11.140625 9.824219 11.605469 9.886719 11.632812 C 9.976562 11.671875 10.023438 11.671875 10.117188 11.632812 C 10.179688 11.605469 10.769531 11.105469 11.425781 10.527344 C 12.082031 9.945312 12.636719 9.472656 12.65625 9.472656 C 12.675781 9.472656 13.75 10.675781 15.039062 12.148438 L 17.386719 14.820312 L 17.238281 14.902344 C 17.089844 14.980469 17.066406 14.980469 10 14.980469 C 2.984375 14.980469 2.910156 14.980469 2.769531 14.902344 L 2.628906 14.824219 L 7.347656 9.449219 L 7.453125 9.539062 C 7.511719 9.589844 8.058594 10.066406 8.664062 10.605469 Z M 8.664062 10.605469 "/>
</g>
</svg>
