<svg version="1.1" xmlns="http://www.w3.org/2000/svg" width="50" height="50" viewBox="0 0 32 32">
        <path d="M16 24.667c-5.147 0-9.333-4.188-9.333-9.333s4.187-9.333 9.333-9.333c5.145 0 9.333 4.188 9.333 9.333s-4.188 9.333-9.333 9.333zM16 7.333c-4.412 0-8 3.588-8 8s3.588 8 8 8c4.412 0 8-3.588 8-8s-3.588-8-8-8zM16 31.333c-0.368 0-0.667-0.3-0.667-0.667v-4c0-0.367 0.299-0.667 0.667-0.667s0.667 0.3 0.667 0.667v4c0 0.367-0.299 0.667-0.667 0.667zM16 4.667c-0.368 0-0.667-0.3-0.667-0.667v-2.667c0-0.367 0.299-0.667 0.667-0.667s0.667 0.3 0.667 0.667v2.667c0 0.367-0.299 0.667-0.667 0.667zM30 16h-2.667c-0.367 0-0.667-0.3-0.667-0.667s0.3-0.667 0.667-0.667h2.667c0.367 0 0.667 0.3 0.667 0.667s-0.3 0.667-0.667 0.667zM4.667 16h-2.667c-0.368 0-0.667-0.3-0.667-0.667s0.299-0.667 0.667-0.667h2.667c0.368 0 0.667 0.3 0.667 0.667s-0.299 0.667-0.667 0.667zM26.369 27.036c-0.169 0-0.341-0.065-0.472-0.195l-2.533-2.533c-0.26-0.257-0.26-0.684 0-0.943 0.259-0.257 0.683-0.257 0.943 0l2.533 2.533c0.26 0.257 0.26 0.685 0 0.943-0.128 0.131-0.299 0.195-0.471 0.195zM7.497 8.164c-0.171 0-0.341-0.065-0.472-0.195l-1.868-1.865c-0.26-0.257-0.26-0.685 0-0.943s0.683-0.257 0.943 0l1.868 1.865c0.26 0.26 0.26 0.687 0 0.943-0.131 0.129-0.301 0.195-0.471 0.195zM24.031 7.693c-0.172 0-0.341-0.065-0.472-0.195-0.259-0.259-0.259-0.684 0-0.943l1.397-1.397c0.26-0.26 0.683-0.26 0.943 0s0.26 0.683 0 0.943l-1.397 1.397c-0.129 0.129-0.301 0.195-0.471 0.195zM5.629 26.093c-0.171 0-0.341-0.065-0.472-0.195-0.26-0.26-0.26-0.683 0-0.943l2.064-2.063c0.26-0.26 0.683-0.26 0.943 0s0.26 0.683 0 0.943l-2.064 2.063c-0.129 0.129-0.3 0.195-0.471 0.195z"></path>
        </svg>