<?xml version="1.0" encoding="UTF-8"?>
<svg xmlns="http://www.w3.org/2000/svg" xmlns:xlink="http://www.w3.org/1999/xlink" width="23px" height="23px" viewBox="0 0 23 23" version="1.1">
<g id="surface1">
<path style=" stroke:none;fill-rule:nonzero;fill:rgb(0%,0%,0%);fill-opacity:1;" d="M 7.230469 0.046875 C 5.746094 0.109375 4.730469 0.296875 3.871094 0.667969 C 3.070312 1.011719 2.589844 1.328125 2 1.917969 C 1.199219 2.714844 0.699219 3.609375 0.386719 4.804688 C 0.109375 5.867188 0.046875 7.082031 0.046875 11.5 C 0.046875 15.84375 0.105469 17.074219 0.363281 18.132812 C 1.011719 20.773438 2.941406 22.453125 5.789062 22.84375 C 6.601562 22.953125 8.308594 23 11.566406 23 C 14.597656 23 16.347656 22.953125 17.132812 22.863281 C 18.738281 22.671875 19.996094 22.117188 20.992188 21.160156 C 22.109375 20.082031 22.703125 18.796875 22.917969 16.957031 C 23.003906 16.238281 23.003906 6.652344 22.917969 5.976562 C 22.746094 4.601562 22.332031 3.464844 21.691406 2.601562 C 21.367188 2.171875 20.6875 1.519531 20.257812 1.226562 C 19.292969 0.578125 18.128906 0.21875 16.597656 0.0859375 C 15.875 0.0273438 8.453125 -0.00390625 7.230469 0.046875 Z M 16.941406 2.214844 C 18.222656 2.402344 18.941406 2.722656 19.632812 3.410156 C 20.082031 3.859375 20.332031 4.253906 20.550781 4.867188 C 20.917969 5.898438 20.957031 6.445312 20.957031 11.523438 C 20.957031 14.445312 20.9375 15.855469 20.894531 16.324219 C 20.769531 17.882812 20.457031 18.726562 19.726562 19.5 C 18.972656 20.308594 18.019531 20.710938 16.554688 20.84375 C 15.761719 20.917969 9.1875 20.957031 7.675781 20.890625 C 6.988281 20.867188 6.273438 20.820312 6.082031 20.796875 C 5.234375 20.679688 4.410156 20.375 3.902344 20.003906 C 3.578125 19.765625 3.070312 19.207031 2.878906 18.894531 C 2.5 18.265625 2.277344 17.382812 2.199219 16.257812 C 2.066406 14.21875 2.113281 7.21875 2.265625 6.0625 C 2.425781 4.859375 2.800781 4.050781 3.503906 3.367188 C 4.273438 2.621094 5.292969 2.253906 6.867188 2.15625 C 7.207031 2.136719 9.5 2.125 11.972656 2.132812 C 15.804688 2.140625 16.535156 2.152344 16.941406 2.214844 Z M 16.941406 2.214844 "/>
<path style=" stroke:none;fill-rule:nonzero;fill:rgb(0%,0%,0%);fill-opacity:1;" d="M 17.078125 4.132812 C 16.574219 4.386719 16.328125 4.785156 16.328125 5.367188 C 16.328125 5.792969 16.425781 6.042969 16.714844 6.332031 C 17.003906 6.609375 17.253906 6.714844 17.675781 6.714844 C 17.976562 6.714844 18.078125 6.695312 18.289062 6.589844 C 18.746094 6.363281 19 5.976562 19.039062 5.453125 C 19.070312 4.988281 18.964844 4.71875 18.644531 4.398438 C 18.351562 4.101562 18.089844 4 17.65625 4 C 17.410156 4 17.300781 4.023438 17.078125 4.132812 Z M 17.078125 4.132812 "/>
<path style=" stroke:none;fill-rule:nonzero;fill:rgb(0%,0%,0%);fill-opacity:1;" d="M 10.492188 5.6875 C 9.3125 5.902344 8.265625 6.453125 7.386719 7.339844 C 6.21875 8.503906 5.65625 9.863281 5.65625 11.5 C 5.65625 12.488281 5.839844 13.300781 6.246094 14.121094 C 7.503906 16.617188 10.273438 17.898438 12.964844 17.226562 C 14.023438 16.960938 14.84375 16.503906 15.636719 15.738281 C 16.351562 15.046875 16.832031 14.289062 17.132812 13.386719 C 17.347656 12.734375 17.429688 12.234375 17.429688 11.5 C 17.429688 10.773438 17.347656 10.265625 17.136719 9.628906 C 16.847656 8.761719 16.433594 8.082031 15.78125 7.410156 C 14.890625 6.492188 13.785156 5.898438 12.558594 5.683594 C 12.0625 5.597656 10.980469 5.597656 10.492188 5.6875 Z M 12.269531 7.746094 C 14.328125 8.136719 15.695312 10.160156 15.300781 12.234375 C 15.054688 13.484375 14.136719 14.597656 12.960938 15.050781 C 12.382812 15.277344 12.054688 15.332031 11.386719 15.304688 C 10.914062 15.289062 10.734375 15.257812 10.421875 15.160156 C 9.058594 14.730469 8.066406 13.628906 7.789062 12.246094 C 7.679688 11.710938 7.722656 10.878906 7.882812 10.375 C 8.308594 9.035156 9.433594 8.019531 10.777344 7.75 C 11.179688 7.667969 11.867188 7.667969 12.269531 7.746094 Z M 12.269531 7.746094 "/>
</g>
</svg>
