<?xml version="1.0" standalone="no"?>
<!DOCTYPE svg PUBLIC "-//W3C//DTD SVG 20010904//EN"
 "http://www.w3.org/TR/2001/REC-SVG-20010904/DTD/svg10.dtd">
<svg version="1.0" xmlns="http://www.w3.org/2000/svg"
 width="24" height="24" viewBox="0 0 24 24"
 preserveAspectRatio="xMidYMid meet">

<g 
fill="#000000" stroke="none">
<path d="M22 217 c-19 -20 -22 -35 -22 -98 0 -66 3 -78 23 -97 20 -19 35 -22
98 -22 66 0 78 3 97 23 19 20 22 35 22 98 0 66 -3 78 -23 97 -20 19 -35 22
-98 22 -66 0 -78 -3 -97 -23z m180 -14 c14 -12 18 -31 18 -81 0 -89 -12 -102
-101 -102 -84 0 -99 15 -99 102 0 80 19 98 102 98 43 0 67 -5 80 -17z"/>
<path d="M175 189 c-10 -15 3 -25 16 -12 7 7 7 13 1 17 -6 3 -14 1 -17 -5z"/>
<path d="M77 162 c-22 -24 -21 -65 1 -85 40 -36 102 -9 102 45 0 51 -69 78
-103 40z m73 -17 c26 -32 -13 -81 -47 -59 -10 6 -19 19 -21 28 -8 38 43 61 68
31z"/>
</g>
</svg>
