<?xml version="1.0" encoding="UTF-8"?>
<svg xmlns="http://www.w3.org/2000/svg" xmlns:xlink="http://www.w3.org/1999/xlink" width="15px" height="15px" viewBox="0 0 15 15" version="1.1">
<g id="surface1">
<path style=" stroke:none;fill-rule:nonzero;fill:rgb(0%,0%,0%);fill-opacity:1;" d="M 3.425781 0.0429688 C 1.753906 0.328125 0.429688 1.609375 0.0664062 3.289062 C 0.015625 3.511719 0.015625 3.8125 0.015625 7.5 C 0.015625 11.1875 0.015625 11.488281 0.0664062 11.710938 C 0.242188 12.523438 0.617188 13.214844 1.203125 13.796875 C 1.785156 14.382812 2.476562 14.757812 3.289062 14.933594 C 3.511719 14.984375 3.8125 14.984375 7.5 14.984375 C 11.1875 14.984375 11.488281 14.984375 11.710938 14.933594 C 12.523438 14.757812 13.214844 14.382812 13.796875 13.796875 C 14.382812 13.214844 14.757812 12.523438 14.933594 11.710938 C 14.984375 11.488281 14.984375 11.1875 14.984375 7.5 C 14.984375 3.8125 14.984375 3.511719 14.933594 3.289062 C 14.757812 2.476562 14.382812 1.785156 13.796875 1.203125 C 13.226562 0.628906 12.574219 0.273438 11.734375 0.0664062 C 11.546875 0.0195312 11.1875 0.015625 7.585938 0.0117188 C 4.484375 0.0078125 3.601562 0.015625 3.425781 0.0429688 Z M 11.410156 0.949219 C 12.109375 1.074219 12.628906 1.347656 13.140625 1.859375 C 13.652344 2.371094 13.925781 2.890625 14.050781 3.589844 C 14.113281 3.9375 14.113281 11.0625 14.050781 11.410156 C 13.925781 12.109375 13.652344 12.628906 13.140625 13.140625 C 12.628906 13.652344 12.109375 13.925781 11.410156 14.050781 C 11.0625 14.113281 3.9375 14.113281 3.589844 14.050781 C 2.890625 13.925781 2.371094 13.652344 1.859375 13.140625 C 1.347656 12.628906 1.074219 12.109375 0.949219 11.410156 C 0.886719 11.0625 0.886719 3.9375 0.949219 3.589844 C 1.074219 2.890625 1.347656 2.371094 1.859375 1.859375 C 2.359375 1.355469 2.878906 1.082031 3.558594 0.953125 C 3.875 0.894531 11.078125 0.890625 11.410156 0.949219 Z M 11.410156 0.949219 "/>
<path style=" stroke:none;fill-rule:nonzero;fill:rgb(0%,0%,0%);fill-opacity:1;" d="M 11.605469 1.90625 C 11.277344 1.972656 10.929688 2.21875 10.765625 2.511719 C 10.523438 2.945312 10.5625 3.523438 10.859375 3.90625 C 11.09375 4.210938 11.402344 4.367188 11.796875 4.390625 C 12.460938 4.421875 12.992188 3.988281 13.101562 3.328125 C 13.246094 2.46875 12.472656 1.738281 11.605469 1.90625 Z M 12.054688 2.855469 C 12.089844 2.882812 12.148438 2.953125 12.175781 3.011719 C 12.21875 3.105469 12.21875 3.132812 12.183594 3.234375 C 12.136719 3.367188 11.988281 3.484375 11.875 3.484375 C 11.75 3.484375 11.609375 3.398438 11.5625 3.296875 C 11.5 3.167969 11.5 3.082031 11.570312 2.964844 C 11.679688 2.792969 11.886719 2.75 12.054688 2.855469 Z M 12.054688 2.855469 "/>
<path style=" stroke:none;fill-rule:nonzero;fill:rgb(0%,0%,0%);fill-opacity:1;" d="M 7.03125 3.398438 C 6.511719 3.460938 6.042969 3.605469 5.597656 3.839844 C 4.46875 4.429688 3.664062 5.519531 3.4375 6.765625 C 3.367188 7.140625 3.367188 7.859375 3.4375 8.234375 C 3.742188 9.914062 5.085938 11.257812 6.765625 11.5625 C 7.140625 11.632812 7.859375 11.632812 8.234375 11.5625 C 9.914062 11.257812 11.257812 9.914062 11.5625 8.234375 C 11.632812 7.859375 11.632812 7.140625 11.5625 6.765625 C 11.335938 5.519531 10.535156 4.4375 9.402344 3.835938 C 9.070312 3.664062 8.605469 3.507812 8.246094 3.441406 C 7.917969 3.382812 7.320312 3.363281 7.03125 3.398438 Z M 8.050781 4.339844 C 8.265625 4.371094 8.710938 4.515625 8.921875 4.625 C 9.507812 4.917969 10.082031 5.492188 10.375 6.078125 C 10.484375 6.285156 10.628906 6.730469 10.667969 6.964844 C 10.707031 7.21875 10.707031 7.78125 10.667969 8.035156 C 10.628906 8.269531 10.484375 8.714844 10.375 8.921875 C 10.082031 9.507812 9.507812 10.082031 8.921875 10.375 C 8.714844 10.484375 8.269531 10.628906 8.035156 10.667969 C 7.78125 10.707031 7.21875 10.707031 6.964844 10.667969 C 6.730469 10.628906 6.285156 10.484375 6.078125 10.375 C 5.492188 10.082031 4.917969 9.507812 4.625 8.921875 C 4.515625 8.714844 4.371094 8.269531 4.332031 8.035156 C 4.292969 7.78125 4.292969 7.21875 4.332031 6.964844 C 4.371094 6.730469 4.515625 6.285156 4.625 6.078125 C 4.960938 5.402344 5.59375 4.8125 6.265625 4.539062 C 6.851562 4.300781 7.398438 4.238281 8.050781 4.339844 Z M 8.050781 4.339844 "/>
</g>
</svg>
