<?xml version="1.0" encoding="UTF-8"?>
<svg xmlns="http://www.w3.org/2000/svg" xmlns:xlink="http://www.w3.org/1999/xlink" width="24px" height="24px" viewBox="0 0 24 24" version="1.1">
<g id="surface1">
<path style=" stroke:none;fill-rule:nonzero;fill:rgb(0%,0%,0%);fill-opacity:1;" d="M 7.542969 0.046875 C 5.996094 0.113281 4.9375 0.308594 4.039062 0.695312 C 3.203125 1.054688 2.703125 1.386719 2.085938 2 C 1.25 2.832031 0.730469 3.765625 0.402344 5.015625 C 0.113281 6.121094 0.046875 7.390625 0.046875 12 C 0.046875 16.53125 0.109375 17.816406 0.378906 18.921875 C 1.054688 21.675781 3.070312 23.429688 6.039062 23.835938 C 6.886719 23.949219 8.667969 24 12.070312 24 C 15.234375 24 17.058594 23.953125 17.878906 23.855469 C 19.554688 23.65625 20.867188 23.078125 21.90625 22.082031 C 23.070312 20.957031 23.691406 19.613281 23.914062 17.695312 C 24.003906 16.945312 24.003906 6.941406 23.914062 6.234375 C 23.734375 4.800781 23.304688 3.617188 22.632812 2.714844 C 22.296875 2.265625 21.585938 1.585938 21.140625 1.28125 C 20.132812 0.601562 18.917969 0.226562 17.320312 0.0898438 C 16.566406 0.0273438 8.820312 -0.00390625 7.542969 0.046875 Z M 17.679688 2.3125 C 19.015625 2.507812 19.765625 2.839844 20.488281 3.558594 C 20.957031 4.027344 21.214844 4.4375 21.445312 5.078125 C 21.828125 6.15625 21.867188 6.726562 21.867188 12.023438 C 21.867188 15.074219 21.847656 16.542969 21.804688 17.035156 C 21.671875 18.660156 21.347656 19.539062 20.585938 20.347656 C 19.796875 21.191406 18.804688 21.609375 17.273438 21.75 C 16.445312 21.828125 9.585938 21.867188 8.007812 21.800781 C 7.292969 21.773438 6.546875 21.726562 6.347656 21.699219 C 5.460938 21.578125 4.601562 21.261719 4.070312 20.875 C 3.734375 20.625 3.203125 20.042969 3.003906 19.714844 C 2.609375 19.058594 2.375 18.136719 2.296875 16.964844 C 2.15625 14.835938 2.203125 7.53125 2.363281 6.324219 C 2.53125 5.070312 2.921875 4.226562 3.65625 3.515625 C 4.460938 2.734375 5.523438 2.351562 7.164062 2.25 C 7.519531 2.230469 9.914062 2.21875 12.492188 2.226562 C 16.492188 2.234375 17.253906 2.246094 17.679688 2.3125 Z M 17.679688 2.3125 "/>
<path style=" stroke:none;fill-rule:nonzero;fill:rgb(0%,0%,0%);fill-opacity:1;" d="M 17.820312 4.3125 C 17.292969 4.578125 17.039062 4.992188 17.039062 5.601562 C 17.039062 6.042969 17.140625 6.304688 17.441406 6.605469 C 17.742188 6.898438 18.003906 7.007812 18.445312 7.007812 C 18.757812 7.007812 18.863281 6.988281 19.085938 6.875 C 19.5625 6.640625 19.828125 6.234375 19.867188 5.691406 C 19.898438 5.207031 19.789062 4.925781 19.457031 4.589844 C 19.148438 4.28125 18.875 4.171875 18.421875 4.171875 C 18.167969 4.171875 18.054688 4.199219 17.820312 4.3125 Z M 17.820312 4.3125 "/>
<path style=" stroke:none;fill-rule:nonzero;fill:rgb(0%,0%,0%);fill-opacity:1;" d="M 10.949219 5.933594 C 9.71875 6.160156 8.625 6.734375 7.707031 7.660156 C 6.488281 8.875 5.902344 10.292969 5.902344 12 C 5.902344 13.03125 6.09375 13.878906 6.519531 14.734375 C 7.832031 17.339844 10.71875 18.675781 13.527344 17.976562 C 14.632812 17.699219 15.488281 17.222656 16.316406 16.421875 C 17.0625 15.699219 17.5625 14.910156 17.878906 13.96875 C 18.101562 13.289062 18.1875 12.765625 18.1875 12 C 18.1875 11.242188 18.101562 10.710938 17.882812 10.046875 C 17.582031 9.144531 17.148438 8.433594 16.46875 7.730469 C 15.539062 6.773438 14.382812 6.15625 13.105469 5.929688 C 12.585938 5.839844 11.457031 5.839844 10.949219 5.933594 Z M 12.804688 8.082031 C 14.953125 8.492188 16.378906 10.601562 15.964844 12.765625 C 15.710938 14.070312 14.75 15.234375 13.523438 15.707031 C 12.921875 15.941406 12.578125 16 11.882812 15.96875 C 11.390625 15.953125 11.199219 15.921875 10.875 15.820312 C 9.453125 15.371094 8.417969 14.222656 8.128906 12.777344 C 8.015625 12.21875 8.058594 11.351562 8.226562 10.828125 C 8.667969 9.429688 9.84375 8.367188 11.246094 8.085938 C 11.664062 8 12.382812 8 12.804688 8.082031 Z M 12.804688 8.082031 "/>
</g>
</svg>
