<?xml version="1.0" encoding="utf-8"?>
<svg width="14px" height="14px" viewBox="0 0 14 14" version="1.1" xmlns:xlink="http://www.w3.org/1999/xlink" xmlns="http://www.w3.org/2000/svg">
  <defs>
    <path d="M0 0L14 0L14 14L0 14L0 0Z" id="path_1" />
    <clipPath id="mask_1">
      <use xlink:href="#path_1" />
    </clipPath>
  </defs>
  <g id="Vector">
    <path d="M0 0L14 0L14 14L0 14L0 0Z" id="Background" fill="none" fill-rule="evenodd" stroke="none" />
    <g clip-path="url(#mask_1)">
      <path d="M6.87421 3.16254C4.92393 3.16254 3.35083 4.64857 3.35083 6.49091C3.35083 8.33325 4.92393 9.81933 6.87421 9.81933C8.82448 9.81933 10.3976 8.33325 10.3976 6.49091C10.3976 4.64857 8.82448 3.16254 6.87421 3.16254L6.87421 3.16254ZM6.87427 8.65479C5.61395 8.65479 4.58362 7.68438 4.58362 6.49091C4.58362 5.29745 5.61088 4.32703 6.87427 4.32703C8.13766 4.32703 9.16492 5.29745 9.16492 6.49091C9.16492 7.68438 8.13459 8.65479 6.87427 8.65479L6.87427 8.65479L6.87427 8.65479ZM11.3636 3.02639C11.3636 3.45801 10.9956 3.80272 10.5418 3.80272C10.0849 3.80272 9.71997 3.45511 9.71997 3.02639C9.71997 2.59767 10.088 2.25006 10.5418 2.25006C10.9956 2.25006 11.3636 2.59767 11.3636 3.02639L11.3636 3.02639ZM13.6972 3.81431C13.6451 2.77437 13.3936 1.8532 12.5871 1.09425C11.7837 0.335298 10.8086 0.097765 9.70768 0.045624C8.57308 -0.015208 5.17237 -0.015208 4.03777 0.045624C2.93998 0.094869 1.96484 0.332398 1.15836 1.09136C0.351877 1.85031 0.103493 2.77147 0.048297 3.81141C-0.016099 4.88321 -0.016099 8.09571 0.048297 9.16751C0.100427 10.2074 0.351877 11.1286 1.15836 11.8875C1.96484 12.6465 2.93691 12.884 4.03777 12.9362C5.17237 12.997 8.57308 12.997 9.70768 12.9362C10.8086 12.8869 11.7837 12.6494 12.5871 11.8875C13.3905 11.1286 13.642 10.2074 13.6972 9.16751C13.7616 8.09571 13.7616 4.88611 13.6972 3.81431L13.6972 3.81431L13.6972 3.81431ZM12.2314 10.3175C11.9922 10.8853 11.5292 11.3227 10.9251 11.5515C10.0205 11.8904 7.87395 11.8122 6.87428 11.8122C5.87461 11.8122 3.72501 11.8875 2.82347 11.5515C2.22244 11.3256 1.75941 10.8882 1.51716 10.3175C1.15838 9.46303 1.24117 7.43525 1.24117 6.49091C1.24117 5.54657 1.16144 3.51594 1.51716 2.66429C1.75634 2.09653 2.21938 1.65912 2.82347 1.43028C3.72808 1.09136 5.87461 1.16957 6.87428 1.16957C7.87395 1.16957 10.0236 1.09425 10.9251 1.43028C11.5261 1.65622 11.9892 2.09363 12.2314 2.66429C12.5902 3.51884 12.5074 5.54657 12.5074 6.49091C12.5074 7.43525 12.5902 9.46593 12.2314 10.3175L12.2314 10.3175Z" transform="translate(0.25463867 0.7636719)" id="Shape" fill="#ACB8C1" fill-rule="evenodd" stroke="none" />
    </g>
  </g>
</svg>