<?xml version="1.0" standalone="no"?>
<!DOCTYPE svg PUBLIC "-//W3C//DTD SVG 20010904//EN"
 "http://www.w3.org/TR/2001/REC-SVG-20010904/DTD/svg10.dtd">
<svg version="1.0" xmlns="http://www.w3.org/2000/svg"
 width="512.000000pt" height="512.000000pt" viewBox="0 0 512.000000 512.000000"
 preserveAspectRatio="xMidYMid meet">
<defs>
    <style>
        .cls-1 {
            fill: #39bc5b;
            fill-rule: evenodd;
        }
    </style>
</defs>
<g transform="translate(0.000000,512.000000) scale(0.100000,-0.100000)"
fill="#000000" stroke="none">
<path class="cls-1" d="M3128 5021 c-96 -31 -190 -116 -219 -196 l-12 -33 -141 -5 c-134 -4
-147 -6 -261 -46 -147 -52 -241 -62 -355 -36 -127 28 -153 29 -177 9 -38 -32
-523 -859 -523 -892 0 -88 73 -235 159 -321 177 -177 438 -219 670 -109 86 40
206 158 249 244 37 73 66 168 60 198 -2 11 -93 170 -201 353 -108 182 -197
334 -197 336 0 2 48 7 108 9 93 4 123 10 228 47 129 44 213 59 306 53 55 -4
57 -5 63 -35 12 -55 67 -147 112 -187 42 -36 76 -56 136 -79 l27 -11 0 -718 0
-718 -89 -17 c-266 -50 -518 -232 -632 -458 -35 -71 -36 -90 -5 -126 l24 -28
782 0 782 0 24 28 c31 37 30 57 -7 127 -121 228 -368 408 -626 457 l-93 17 0
721 0 720 48 17 c101 36 192 135 217 237 l12 46 59 5 c90 9 168 -5 299 -50
102 -35 137 -43 233 -48 l112 -7 -200 -338 c-131 -222 -200 -347 -200 -365 0
-45 29 -132 67 -201 123 -222 395 -336 647 -271 109 28 169 63 258 151 85 84
138 177 160 281 l12 56 -204 343 c-112 189 -229 387 -259 439 -70 117 -78 121
-193 94 -54 -12 -118 -19 -183 -19 -92 1 -110 4 -225 45 -120 42 -130 44 -261
48 l-136 4 -23 48 c-71 152 -269 235 -432 181z m208 -168 c107 -55 136 -209
57 -304 -37 -43 -93 -69 -152 -69 -63 0 -97 13 -140 53 -43 41 -61 84 -61 147
0 153 157 245 296 173z m-1146 -665 l168 -283 -346 -3 c-190 -1 -347 -1 -349
1 -2 2 74 135 169 295 96 161 177 287 182 282 4 -4 84 -136 176 -292z m2460 0
l168 -283 -346 -3 c-190 -1 -347 -1 -349 1 -2 2 74 135 169 295 100 168 177
287 182 282 5 -5 84 -136 176 -292z m-2276 -480 c-49 -97 -147 -173 -259 -203
-171 -47 -363 27 -457 174 -15 25 -28 49 -28 53 0 4 171 8 380 8 l381 0 -17
-32z m2476 25 c-1 -22 -83 -123 -126 -156 -81 -62 -143 -81 -259 -82 -92 0
-106 3 -166 31 -37 18 -86 49 -109 70 -40 36 -100 118 -100 136 0 4 171 8 380
8 209 0 380 -3 380 -7z m-1375 -1047 c44 -15 112 -46 150 -68 68 -40 215 -175
215 -197 0 -8 -166 -11 -600 -11 -421 0 -600 3 -600 11 0 18 113 130 173 171
75 51 146 83 238 108 113 30 314 24 424 -14z"/>
<path class="cls-1" d="M1764 2200 c-66 -10 -174 -45 -244 -80 -46 -23 -614 -349 -715 -411
l-31 -18 -44 74 c-60 103 -100 130 -194 130 -70 0 -73 -1 -215 -80 -80 -44
-161 -96 -180 -115 -60 -58 -77 -150 -42 -225 40 -88 733 -1301 759 -1329 36
-38 97 -66 147 -66 46 0 95 22 250 109 126 71 179 120 195 182 17 61 6 110
-45 204 l-45 82 72 42 72 42 545 -147 c300 -81 573 -153 606 -160 127 -28 316
-9 417 41 82 41 1655 1014 1693 1048 24 21 56 63 72 95 25 51 28 68 28 157 0
126 -23 182 -102 255 -122 112 -301 118 -532 17 -42 -18 -281 -153 -531 -299
-446 -260 -533 -309 -576 -322 l-21 -6 20 57 c41 123 7 265 -84 348 -56 50
-107 73 -227 100 -159 36 -324 86 -532 160 -253 91 -295 104 -370 115 -72 11
-74 11 -146 0z m408 -246 c285 -101 426 -144 593 -183 103 -23 132 -34 157
-57 47 -45 61 -80 56 -141 -5 -62 -29 -100 -79 -125 -64 -33 -130 -23 -484 77
-107 30 -208 55 -224 55 -66 0 -102 -75 -59 -123 19 -22 62 -37 263 -93 332
-91 400 -105 552 -111 117 -5 139 -3 204 17 97 29 85 23 609 328 250 146 487
280 527 299 193 89 349 79 403 -28 27 -51 26 -130 0 -185 -20 -40 -59 -66
-838 -545 -449 -277 -844 -515 -877 -528 -53 -22 -74 -25 -175 -25 l-115 0
-580 158 c-319 86 -593 158 -610 158 -19 1 -63 -17 -123 -52 -51 -29 -94 -51
-96 -49 -15 21 -416 739 -416 747 0 13 684 407 778 448 92 40 167 54 242 47
31 -3 158 -42 292 -89z m-1284 -789 c422 -745 414 -731 408 -753 -9 -27 -273
-175 -301 -168 -18 5 -101 143 -380 637 -197 348 -363 645 -369 660 -14 38 -9
42 144 129 80 45 134 69 150 68 22 -3 66 -75 348 -573z"/>
<path class="cls-1" d="M448 1554 c-43 -23 -53 -90 -20 -128 56 -62 152 -21 152 65 0 28 -53
79 -82 79 -13 -1 -35 -7 -50 -16z"/>
</g>
</svg>
