<svg width="435" height="87" viewBox="0 0 435 87" fill="none" xmlns="http://www.w3.org/2000/svg">
<path d="M140.267 58.4811H138.309C138.027 56.9125 137.924 55.3171 138.001 53.7253C136.938 55.7535 134.616 58.8168 128.405 58.8168C119.872 58.8168 115.508 52.3266 115.508 43.8781C115.508 34.996 120.18 28.3379 128.88 28.3379C135.287 28.3379 139.539 31.6949 140.463 37.1641H138.169C136.896 32.9678 133.972 30.4499 128.797 30.4499C121.369 30.4499 117.97 36.2268 117.97 43.7382C117.97 50.5361 121.229 56.6907 128.489 56.6907C135.749 56.6907 138.001 51.851 138.001 45.2768V44.9272H128.517V42.815H140.323L140.267 58.4811Z" fill="black"/>
<path d="M147.178 43.0207C147.178 39.4539 147.178 37.9292 147.178 37.2439H149.262C149.262 37.9292 149.346 39.286 149.346 41.9996C149.904 40.4809 150.907 39.1662 152.225 38.2277C153.543 37.2892 155.114 36.7707 156.732 36.7402V39.0342C152.325 39.328 149.346 42.3773 149.346 47.4268V58.463H147.22L147.178 43.0207Z" fill="black"/>
<path d="M161.067 48.1122C161.067 53.5953 163.865 56.9803 167.935 56.9803C169.252 57.0898 170.569 56.7574 171.676 56.0354C172.783 55.3135 173.617 54.2432 174.048 52.9938H176.216C175.721 54.8056 174.615 56.3908 173.086 57.4816C171.557 58.5723 169.698 59.1018 167.824 58.9806C161.375 58.9806 158.871 53.3855 158.871 48.0282C158.871 41.9576 161.879 36.7402 168.075 36.7402C174.622 36.7402 176.692 42.3353 176.692 46.3777C176.692 46.9652 176.692 47.5666 176.692 48.1122H161.067ZM174.524 46.2519C174.524 42.0556 172.188 38.7265 168.019 38.7265C163.851 38.7265 161.655 41.7898 161.193 46.2519H174.524Z" fill="black"/>
<path d="M182.579 48.1122C182.579 53.5953 185.377 56.9804 189.461 56.9804C190.778 57.085 192.091 56.7505 193.197 56.0292C194.303 55.308 195.139 54.2405 195.574 52.9938H197.728C197.238 54.8084 196.133 56.3967 194.603 57.4883C193.072 58.5798 191.211 59.1073 189.336 58.9806C182.873 58.9806 180.369 53.3855 180.369 48.0283C180.369 41.9576 183.391 36.7402 189.587 36.7402C196.12 36.7402 198.204 42.3353 198.204 46.3777C198.204 46.9652 198.204 47.5667 198.204 48.1122H182.579ZM196.036 46.2519C196.036 42.0556 193.7 38.7265 189.545 38.7265C185.167 38.7265 183.167 41.7898 182.705 46.2519H196.036Z" fill="black"/>
<path d="M203.423 42.6073C203.423 40.7329 203.423 38.9565 203.423 37.2501H205.451C205.552 38.5903 205.585 39.9349 205.549 41.2785C206.074 39.8727 207.038 38.6731 208.297 37.857C209.557 37.0409 211.045 36.6515 212.543 36.7464C216.32 36.7464 219.677 38.8586 219.677 44.7194V58.4833H217.551V45.0691C217.551 41.2784 215.984 38.8167 212.291 38.8167C207.242 38.8167 205.507 43.013 205.507 47.6569V58.4833H203.381L203.423 42.6073Z" fill="black"/>
<path d="M241.458 48.1986L237.625 58.4795H235.303L246.214 28.7559H248.927L260.3 58.4795H257.796L253.935 48.1986H241.458ZM253.208 46.0725C249.906 37.2463 248.2 33.0081 247.612 31.0078C246.885 33.2598 244.969 38.5192 242.297 46.0725H253.208Z" fill="black"/>
<path d="M264.914 58.4796V27.1895H266.998V58.4796H264.914Z" fill="black"/>
<path d="M273.996 58.4796V27.1895H276.108V58.4796H273.996Z" fill="black"/>
<path d="M283.086 27.1895H285.184V31.3018H283.086V27.1895ZM283.086 37.2465H285.184V58.4796H283.086V37.2465Z" fill="black"/>
<path d="M306.433 54.4346C306.42 55.7879 306.518 57.1399 306.727 58.477H304.769C304.509 57.4053 304.378 56.3066 304.377 55.2039C303.663 56.7705 301.789 58.9806 297.383 58.9806C292.459 58.9806 290.389 55.7914 290.389 52.6162C290.389 47.9444 293.998 45.8183 300.362 45.8183H304.391V43.6501C304.391 41.538 303.761 38.6845 298.921 38.6845C294.627 38.6845 293.998 40.9365 293.522 42.685H291.41C291.662 40.349 293.102 36.7402 298.963 36.7402C303.803 36.7402 306.517 38.7685 306.517 43.4404L306.433 54.4346ZM304.349 47.6506H300.152C295.438 47.6506 292.515 48.8815 292.515 52.5323C292.501 53.1596 292.622 53.7825 292.868 54.3596C293.114 54.9368 293.48 55.455 293.942 55.8797C294.404 56.3045 294.951 56.626 295.546 56.823C296.142 57.02 296.773 57.0879 297.397 57.0223C303.468 57.0223 304.307 52.9939 304.307 48.4059L304.349 47.6506Z" fill="black"/>
<path d="M313.441 42.6073C313.441 40.7329 313.441 38.9565 313.441 37.2501H315.512C315.596 37.9354 315.638 40.691 315.596 41.2785C316.121 39.8727 317.084 38.6731 318.344 37.857C319.603 37.0409 321.092 36.6515 322.59 36.7464C326.366 36.7464 329.724 38.8586 329.724 44.7194V58.4833H327.597V45.0691C327.597 41.2784 326.031 38.8167 322.338 38.8167C317.288 38.8167 315.54 43.013 315.54 47.6569V58.4833H313.441V42.6073Z" fill="black"/>
<path d="M352.327 52.2368C351.306 55.9715 348.844 58.9789 344.088 58.9789C338.787 58.9789 335.01 55.0343 335.01 47.9426C335.01 42.1238 338.115 36.7526 344.354 36.7526C346.3 36.6414 348.215 37.2842 349.699 38.5476C351.184 39.8109 352.125 41.5976 352.327 43.5366H350.159C349.935 42.1624 349.218 40.9169 348.141 40.0337C347.065 39.1504 345.703 38.6901 344.312 38.7388C339.808 38.7388 337.318 42.5714 337.318 47.8727C337.318 52.9222 339.696 56.9927 344.144 56.9927C347.249 56.9927 349.124 55.426 350.215 52.2508L352.327 52.2368Z" fill="black"/>
<path d="M357.129 46.8661C357.129 52.3492 359.927 55.7342 364.012 55.7342C365.328 55.8413 366.643 55.5078 367.75 54.7862C368.856 54.0646 369.692 52.9958 370.124 51.7477H372.293C371.797 53.5595 370.691 55.1447 369.162 56.2355C367.633 57.3262 365.774 57.8558 363.9 57.7345C357.451 57.7345 354.947 52.1394 354.947 46.7821C354.947 40.7115 357.955 35.4941 364.151 35.4941C370.698 35.4941 372.768 41.0892 372.768 45.1316C372.768 45.7191 372.768 46.3206 372.768 46.8661H357.129ZM370.6 45.0058C370.6 40.8095 368.264 37.4804 364.096 37.4804C359.927 37.4804 357.731 40.5437 357.255 45.0058H370.6Z" fill="black"/>
<path d="M377.83 58.4771V52.9941H379.942V58.4771H377.83Z" fill="black"/>
<path d="M386.221 28.7559H388.515V44.1423C390.893 41.8483 399.384 33.8613 404.699 28.7559H407.748L394.418 41.3447L408.518 58.4097H405.72L392.823 42.8274L388.627 46.5621V58.4097H386.333L386.221 28.7559Z" fill="black"/>
<path d="M434.746 58.4811H432.83C432.565 56.9106 432.467 55.3165 432.536 53.7253C431.473 55.7535 429.137 58.8168 422.94 58.8168C414.407 58.8168 410.043 52.3266 410.043 43.8781C410.043 34.996 414.701 28.3379 423.416 28.3379C429.822 28.3379 434.061 31.6949 434.998 37.1641H432.704C431.431 32.9678 428.507 30.4499 423.332 30.4499C415.89 30.4499 412.505 36.2268 412.505 43.7382C412.505 50.5361 415.764 56.6907 423.024 56.6907C430.284 56.6907 432.536 51.851 432.536 45.2768V44.9272H422.94V42.815H434.746V58.4811Z" fill="black"/>
<path d="M14.7825 33.513C17.1692 37.0999 20.2847 40.1439 23.9261 42.4467C27.5675 44.7494 31.6531 46.2593 35.9169 46.878C40.1806 47.4967 44.5269 47.2103 48.6726 46.0375C52.8184 44.8647 56.6706 42.8318 59.9783 40.0711C63.2173 44.3431 65.8812 49.022 67.9017 53.9877C70.4867 60.3866 72.2796 67.0775 73.2405 73.9115C65.3314 81.6484 54.7497 86.0475 43.6866 86.1979C32.6235 86.3482 21.9263 82.2384 13.8098 74.7193C5.6933 67.2002 0.779222 56.8477 0.0849935 45.8054C-0.609235 34.7631 2.96957 23.8767 10.0804 15.4002C17.1913 6.92376 27.2896 1.50651 38.2844 0.270095C49.2792 -0.966317 60.3284 2.07281 69.1443 8.75823C77.9602 15.4437 83.8675 25.2633 85.6431 36.184C87.4187 47.1047 84.9266 58.29 78.6828 67.424C77.032 62.0582 74.8624 56.866 72.2048 51.9209C69.2567 46.4176 65.5252 41.3714 61.1271 36.9404C58.5017 33.3962 55.1431 30.4598 51.2801 28.3312C47.4171 26.2026 43.1406 24.9319 38.742 24.6057C34.3435 24.2795 29.9263 24.9055 25.7916 26.441C21.6569 27.9765 17.9019 30.3855 14.7825 33.5036V33.513Z" fill="#A0B720"/>
</svg>
