<?xml version="1.0" encoding="utf-8"?>
<svg width="30px" height="30px" viewBox="0 0 30 30" version="1.1" xmlns:xlink="http://www.w3.org/1999/xlink" xmlns="http://www.w3.org/2000/svg">
  <g id="Group-53-(1)">
    <path d="M0 15C0 6.71573 6.71573 0 15 0C23.2843 0 30 6.71573 30 15C30 23.2843 23.2843 30 15 30C6.71573 30 0 23.2843 0 15Z" id="Circle" fill="#00324C" fill-rule="evenodd" stroke="none" />
    <path d="M13.5 0L1.5 0C0.675 0 0.00750017 0.675 0.00750017 1.5L0 10.5C0 11.325 0.675 12 1.5 12L13.5 12C14.325 12 15 11.325 15 10.5L15 1.5C15 0.675 14.325 0 13.5 0L13.5 0ZM13.5 3L7.5 6.75L1.5 3L1.5 1.5L7.5 5.25L13.5 1.5L13.5 3L13.5 3Z" transform="translate(7.5 9)" id="Shape" fill="#FFFFFF" fill-rule="evenodd" stroke="none" />
  </g>
</svg>