<?xml version="1.0" encoding="UTF-8"?>
<svg xmlns="http://www.w3.org/2000/svg" xmlns:xlink="http://www.w3.org/1999/xlink" width="20px" height="20px" viewBox="0 0 20 20" version="1.1">
<g id="surface1">
<path style=" stroke:none;fill-rule:nonzero;fill:rgb(0%,0%,0%);fill-opacity:1;" d="M 8.925781 0.0546875 C 7.535156 0.285156 6.292969 0.828125 5.273438 1.660156 C 4.96875 1.910156 4.367188 2.515625 4.128906 2.8125 C 3.308594 3.839844 2.75 5.132812 2.558594 6.449219 C 2.480469 6.988281 2.480469 7.992188 2.558594 8.476562 C 2.972656 11.050781 5.046875 15.070312 7.464844 17.988281 C 7.886719 18.496094 8.738281 19.351562 9.0625 19.589844 C 9.980469 20.265625 10.460938 20.136719 11.699219 18.890625 C 12.492188 18.097656 13.242188 17.15625 14.082031 15.898438 C 15.867188 13.234375 17.117188 10.46875 17.441406 8.476562 C 17.519531 7.992188 17.519531 6.988281 17.441406 6.449219 C 17.027344 3.625 15.046875 1.253906 12.363281 0.367188 C 11.511719 0.0898438 11.132812 0.0273438 10.117188 0.015625 C 9.527344 0.0078125 9.136719 0.0234375 8.925781 0.0546875 Z M 10.535156 1.304688 C 11.40625 1.355469 12.402344 1.683594 13.230469 2.195312 C 14.445312 2.9375 15.445312 4.191406 15.898438 5.539062 C 16.101562 6.152344 16.175781 6.5625 16.199219 7.269531 C 16.222656 7.980469 16.191406 8.316406 16.03125 8.972656 C 15.457031 11.347656 13.472656 14.878906 11.238281 17.515625 C 10.8125 18.019531 10.183594 18.625 10.054688 18.65625 C 9.933594 18.6875 9.832031 18.617188 9.421875 18.226562 C 8.859375 17.6875 7.976562 16.59375 7.199219 15.46875 C 5.351562 12.792969 4.089844 10.097656 3.824219 8.246094 C 3.757812 7.78125 3.800781 6.726562 3.902344 6.257812 C 4.441406 3.8125 6.324219 1.921875 8.742188 1.40625 C 9.117188 1.324219 9.867188 1.253906 10.078125 1.273438 C 10.132812 1.28125 10.335938 1.292969 10.535156 1.304688 Z M 10.535156 1.304688 "/>
<path style=" stroke:none;fill-rule:nonzero;fill:rgb(0%,0%,0%);fill-opacity:1;" d="M 9.375 4.511719 C 8.269531 4.738281 7.398438 5.507812 7.019531 6.59375 C 6.914062 6.890625 6.898438 7 6.882812 7.449219 C 6.871094 7.84375 6.882812 8.035156 6.933594 8.269531 C 7.226562 9.589844 8.28125 10.542969 9.636719 10.710938 C 11.015625 10.878906 12.363281 10.09375 12.902344 8.804688 C 13.078125 8.386719 13.136719 8.019531 13.117188 7.449219 C 13.101562 7 13.085938 6.890625 12.980469 6.59375 C 12.597656 5.503906 11.703125 4.722656 10.59375 4.507812 C 10.242188 4.441406 9.714844 4.441406 9.375 4.511719 Z M 10.449219 5.800781 C 10.984375 5.941406 11.425781 6.3125 11.671875 6.824219 C 11.8125 7.125 11.816406 7.136719 11.816406 7.597656 C 11.816406 8.039062 11.808594 8.082031 11.695312 8.320312 C 11.457031 8.824219 11.117188 9.140625 10.605469 9.335938 C 10.273438 9.464844 9.726562 9.464844 9.394531 9.335938 C 8.898438 9.144531 8.5625 8.839844 8.332031 8.371094 C 8.183594 8.074219 8.183594 8.066406 8.183594 7.601562 C 8.183594 7.136719 8.1875 7.125 8.328125 6.824219 C 8.71875 6.007812 9.601562 5.582031 10.449219 5.800781 Z M 10.449219 5.800781 "/>
</g>
</svg>
