<svg version="1.1" xmlns="http://www.w3.org/2000/svg" width="50" height="50" viewBox="0 0 32 32">
        <path d="M27.333 32h-19.333c-2.205 0-4-1.795-4-4v-24c0-2.252 2.508-4 4.667-4h18c0.367 0 0.667 0.299 0.667 0.667s-0.3 0.667-0.667 0.667h-18c-1.5 0-3.333 1.231-3.333 2.667v1.333c0 1.436 1.833 2.667 3.333 2.667h18.667c0.367 0 0.667 0.299 0.667 0.667v22.667c0 0.367-0.3 0.667-0.667 0.667zM5.333 8.017v19.983c0 1.472 1.196 2.667 2.667 2.667h18.667v-21.333h-18c-1.157 0-2.416-0.503-3.333-1.316zM25.333 5.333h-17.333c-0.368 0-0.667-0.299-0.667-0.667s0.299-0.667 0.667-0.667h17.333c0.367 0 0.667 0.299 0.667 0.667s-0.3 0.667-0.667 0.667z"></path>
        </svg>