<?xml version="1.0" standalone="no"?>
<!DOCTYPE svg PUBLIC "-//W3C//DTD SVG 20010904//EN"
 "http://www.w3.org/TR/2001/REC-SVG-20010904/DTD/svg10.dtd">
<svg version="1.0" xmlns="http://www.w3.org/2000/svg"
 width="700.000000pt" height="608.000000pt" viewBox="0 0 700.000000 608.000000"
 preserveAspectRatio="xMidYMid meet">

<g transform="translate(0.000000,608.000000) scale(0.100000,-0.100000)"
fill="#000000" stroke="none">
<path d="M3439 5771 l-29 -29 0 -246 c0 -244 0 -245 24 -273 19 -22 32 -28 66
-28 34 0 47 6 66 28 24 28 24 29 24 273 l0 246 -29 29 c-20 20 -39 29 -61 29
-22 0 -41 -9 -61 -29z"/>
<path d="M2218 5455 c-33 -18 -48 -44 -48 -81 0 -30 196 -381 238 -426 55 -59
152 -21 152 59 0 30 -22 77 -106 223 -58 102 -116 195 -128 207 -28 30 -74 37
-108 18z"/>
<path d="M4705 5461 c-31 -13 -45 -33 -150 -215 -126 -219 -129 -226 -111
-270 24 -57 90 -75 138 -37 35 28 248 402 248 435 0 38 -16 63 -50 81 -32 17
-45 18 -75 6z"/>
<path d="M3300 4899 c-439 -56 -833 -273 -1110 -609 -166 -201 -293 -469 -351
-738 -27 -126 -37 -400 -19 -539 60 -480 332 -927 727 -1193 l52 -35 1 -572
c0 -554 1 -574 21 -628 29 -77 102 -154 181 -191 l63 -29 635 0 635 0 63 29
c79 37 152 114 181 191 20 54 21 74 21 629 l0 573 52 33 c287 186 538 517 652
861 58 172 77 284 83 479 6 196 -9 333 -53 499 -200 742 -881 1258 -1649 1250
-66 -1 -149 -5 -185 -10z m530 -212 c292 -70 522 -198 730 -407 265 -265 412
-583 439 -952 25 -340 -60 -663 -250 -949 -87 -131 -282 -324 -416 -413 -57
-38 -104 -69 -105 -70 -1 0 -4 -89 -7 -196 l-6 -195 -715 0 -715 0 -6 195 c-3
107 -6 196 -7 197 -1 1 -39 26 -84 56 -109 71 -147 102 -246 200 -294 289
-445 655 -444 1072 2 411 149 762 442 1055 212 213 462 350 746 409 143 30
142 30 349 26 160 -3 206 -7 295 -28z m390 -3517 l0 -140 -609 0 -608 0 -27
-25 c-28 -26 -35 -79 -15 -117 25 -47 39 -48 670 -48 l591 0 -4 -88 c-5 -104
-28 -151 -89 -182 -37 -19 -61 -20 -629 -20 -568 0 -592 1 -629 20 -22 11 -50
36 -62 57 -24 38 -24 42 -27 361 l-3 322 720 0 721 0 0 -140z"/>
<path d="M2570 3859 c-46 -6 -85 -16 -100 -27 -77 -58 -121 -420 -76 -627 71
-323 262 -590 543 -758 329 -198 783 -201 1115 -6 144 84 289 219 377 347 186
274 244 623 155 930 -36 125 -39 127 -180 143 -288 32 -622 -82 -843 -287
l-61 -56 -61 56 c-166 154 -399 259 -632 285 -107 12 -129 12 -237 0z m271
-194 c184 -32 340 -109 483 -238 l60 -53 -23 -32 c-27 -38 -107 -206 -116
-244 -4 -16 -11 -28 -15 -28 -4 0 -67 72 -141 161 -73 88 -141 165 -150 170
-77 41 -168 -47 -127 -124 6 -12 93 -118 193 -237 l182 -215 5 -147 5 -147
-51 20 c-81 32 -201 108 -275 176 -193 176 -311 439 -311 693 0 84 27 242 43
252 20 13 149 9 238 -7z m1556 7 c7 -4 20 -50 29 -102 77 -442 -198 -895 -631
-1039 -80 -27 -251 -58 -261 -48 -2 2 144 179 325 394 180 215 331 399 335
408 13 35 5 67 -23 96 -40 39 -89 40 -130 2 -16 -16 -170 -196 -342 -402
l-313 -374 -9 39 c-5 21 -6 82 -3 134 28 446 345 806 779 885 81 15 226 19
244 7z"/>
<path d="M1295 4538 c-36 -32 -43 -85 -16 -120 20 -25 334 -214 406 -244 86
-36 163 65 105 138 -11 14 -107 76 -213 137 -209 120 -236 128 -282 89z"/>
<path d="M5427 4451 c-103 -59 -199 -118 -212 -131 -27 -26 -33 -76 -14 -112
16 -30 72 -50 106 -37 48 18 389 218 409 240 30 33 25 96 -9 125 -48 41 -75
33 -280 -85z"/>
<path d="M959 3291 c-37 -37 -38 -79 -3 -120 l26 -31 248 0 c233 0 249 1 273
20 14 11 28 33 32 49 7 34 -15 85 -44 101 -12 6 -115 10 -261 10 l-242 0 -29
-29z"/>
<path d="M5493 3296 c-22 -19 -28 -32 -28 -66 0 -34 6 -47 28 -66 28 -24 29
-24 277 -24 l248 0 26 31 c35 41 34 83 -3 120 l-29 29 -246 0 c-244 0 -245 0
-273 -24z"/>
<path d="M1496 2181 c-104 -61 -199 -119 -210 -130 -32 -32 -28 -96 7 -127 48
-41 75 -33 277 82 102 59 197 118 213 132 58 55 20 152 -60 152 -30 0 -77 -23
-227 -109z"/>
<path d="M5215 2264 c-28 -30 -33 -87 -11 -117 7 -9 103 -69 212 -132 216
-125 242 -133 291 -91 35 31 39 95 7 127 -11 11 -106 69 -210 130 -212 122
-244 131 -289 83z"/>
</g>
</svg>
