<?xml version="1.0" standalone="no"?>
<!DOCTYPE svg PUBLIC "-//W3C//DTD SVG 20010904//EN"
 "http://www.w3.org/TR/2001/REC-SVG-20010904/DTD/svg10.dtd">
<svg version="1.0" xmlns="http://www.w3.org/2000/svg"
 width="700.000000pt" height="604.000000pt" viewBox="0 0 700.000000 604.000000"
 preserveAspectRatio="xMidYMid meet">

<g transform="translate(0.000000,604.000000) scale(0.100000,-0.100000)"
fill="#000000" stroke="none">
<path d="M3330 5799 c-324 -18 -686 -108 -968 -240 l-103 -48 20 -40 21 -39
127 55 c226 98 435 158 698 200 153 25 603 25 753 0 563 -92 1051 -324 1429
-681 60 -57 99 -86 114 -86 14 0 42 18 70 46 l46 45 73 -291 c40 -160 71 -293
69 -295 -4 -4 -570 135 -578 142 -3 2 19 27 47 56 74 75 72 86 -34 181 -744
668 -1789 816 -2671 379 l-93 -46 22 -36 c12 -20 22 -37 24 -39 1 -2 44 17 95
42 646 309 1377 309 2014 0 182 -88 389 -227 528 -354 l58 -53 -71 -72 c-38
-40 -70 -77 -70 -83 0 -37 39 -51 420 -145 388 -97 409 -100 424 -62 8 22
-183 783 -201 801 -24 24 -42 16 -108 -47 l-64 -61 -73 66 c-168 155 -381 301
-598 410 -441 224 -920 323 -1420 295z"/>
<path d="M1792 5241 c-237 -60 -387 -102 -392 -111 -17 -27 -10 -41 51 -105
l60 -63 -62 -69 c-211 -232 -390 -519 -512 -818 -278 -680 -266 -1467 30
-2145 26 -58 48 -107 50 -109 4 -6 83 31 83 38 0 4 -20 51 -45 106 -89 196
-163 455 -202 705 -27 175 -25 575 5 765 61 386 208 767 420 1085 83 125 237
315 311 384 44 42 41 70 -15 127 l-45 46 291 73 c160 40 293 71 295 69 4 -4
-135 -570 -142 -578 -2 -3 -27 19 -56 47 -31 31 -62 52 -75 52 -14 0 -45 -24
-88 -69 -406 -427 -645 -1032 -644 -1631 1 -372 77 -701 242 -1048 l48 -102
28 14 c56 31 56 26 4 137 -104 221 -173 450 -208 684 -21 145 -24 445 -5 585
63 475 249 894 549 1237 l74 84 73 -70 c40 -39 77 -71 82 -71 34 0 47 36 138
400 52 206 95 387 95 402 0 25 -24 50 -47 47 -4 0 -180 -44 -391 -98z"/>
<path d="M2931 4939 c-222 -60 -443 -186 -608 -348 -99 -97 -273 -310 -273
-334 0 -33 387 -417 420 -417 18 0 53 28 127 102 l103 103 0 -268 0 -267 50 0
50 0 0 331 c0 208 -4 337 -10 350 -23 42 -55 24 -193 -110 l-133 -130 -154
154 c-141 141 -152 155 -139 172 74 94 209 247 253 286 79 69 198 148 295 196
95 48 261 105 271 94 4 -5 12 -32 18 -61 40 -180 206 -343 390 -381 165 -34
331 16 453 138 73 74 122 161 141 252 14 68 4 66 148 17 237 -82 426 -223 628
-467 l70 -85 -151 -157 -152 -158 -130 130 c-102 101 -136 129 -157 129 -17 0
-31 -8 -38 -19 -7 -13 -10 -266 -10 -750 l0 -731 -243 0 -242 0 -48 124 c-27
69 -55 130 -62 136 -11 9 -36 9 -104 0 -112 -16 -152 -9 -196 35 -45 45 -51
85 -32 199 8 50 11 98 7 106 -10 18 -236 120 -267 120 -14 0 -42 -25 -87 -80
-76 -91 -94 -104 -156 -104 -64 0 -101 26 -160 111 -28 40 -59 77 -69 83 -15
7 -49 -2 -147 -41 -71 -28 -133 -54 -138 -60 -6 -5 -5 -48 3 -112 14 -120 6
-154 -48 -200 -44 -36 -82 -41 -190 -22 -115 20 -108 26 -180 -138 -40 -91
-49 -122 -41 -136 5 -10 39 -42 75 -70 80 -63 105 -101 105 -161 0 -63 -26
-99 -114 -161 -42 -29 -78 -60 -81 -70 -8 -23 92 -276 111 -283 9 -3 57 -1
108 5 109 14 133 9 181 -32 51 -45 59 -84 38 -201 -13 -76 -14 -100 -4 -111
16 -20 236 -117 265 -117 17 0 38 19 81 75 64 84 100 108 161 108 60 0 101
-29 161 -113 29 -40 59 -77 67 -82 19 -11 267 84 283 109 10 14 10 34 3 78
-25 151 -2 217 85 251 43 16 51 16 141 0 61 -11 100 -14 111 -7 19 10 122 235
123 267 0 15 -24 40 -79 82 -79 62 -111 109 -111 164 0 40 40 105 80 132 l40
26 285 0 c157 0 285 -2 285 -5 0 -3 -11 -22 -23 -43 -92 -146 -100 -346 -21
-509 28 -58 108 -151 166 -194 l38 -27 -87 -91 c-47 -51 -135 -133 -195 -183
l-109 -91 23 -26 c12 -14 26 -30 30 -35 11 -14 180 129 312 264 l119 122 46
-14 c25 -7 87 -12 136 -12 205 2 390 122 480 309 135 284 155 654 50 961 -15
43 -65 154 -111 245 -112 223 -123 225 -209 45 -30 -62 -82 -155 -116 -207
-73 -109 -248 -290 -356 -367 l-73 -52 0 667 0 667 104 -102 c73 -73 110 -102
127 -102 19 0 75 50 227 203 164 165 201 207 195 223 -14 40 -260 319 -337
384 -147 123 -291 205 -474 268 l-107 37 -515 2 c-487 2 -519 1 -589 -18z
m979 -78 c0 -24 -40 -135 -63 -174 -79 -134 -256 -215 -409 -188 -88 15 -176
61 -232 121 -50 53 -100 149 -112 213 l-6 37 411 0 c240 0 411 -4 411 -9z
m-1370 -1571 c115 -179 312 -190 444 -24 l48 62 80 -36 c69 -31 78 -39 73 -56
-14 -48 -17 -164 -6 -199 20 -60 67 -115 123 -144 53 -27 82 -29 221 -20 27 2
31 -3 58 -72 33 -82 34 -81 -38 -130 -88 -60 -130 -143 -120 -238 8 -73 46
-134 118 -190 32 -26 59 -47 59 -49 0 -2 -16 -37 -35 -80 -33 -73 -36 -76 -62
-70 -16 3 -57 9 -93 12 -84 8 -153 -19 -209 -82 -51 -58 -65 -113 -57 -217 l7
-82 -78 -29 -77 -29 -21 29 c-78 110 -153 158 -244 158 -91 -1 -163 -43 -226
-134 -15 -22 -32 -40 -37 -40 -5 0 -42 15 -82 34 l-73 33 13 74 c24 138 -21
235 -136 295 -36 19 -156 26 -211 11 -25 -6 -27 -3 -58 75 -17 44 -30 82 -29
83 2 1 19 12 38 25 136 91 183 214 126 335 -21 46 -58 86 -129 142 l-27 21 34
76 c19 42 40 76 46 76 6 0 42 -5 79 -11 56 -9 77 -9 122 4 72 21 130 72 159
139 20 47 22 63 17 144 l-6 91 77 31 c42 17 78 31 78 31 1 1 16 -22 34 -49z
m2455 -91 c71 -141 111 -261 131 -391 18 -118 16 -307 -4 -330 -6 -8 -42 -30
-79 -49 -54 -27 -81 -35 -141 -38 -40 -2 -78 1 -84 7 -6 6 1 40 22 98 17 49
45 138 61 199 30 116 29 123 -18 126 -13 1 -28 2 -34 3 -6 1 -23 -48 -39 -109
-34 -133 -76 -248 -135 -373 l-44 -93 -32 18 c-56 33 -108 112 -130 196 l-11
47 -46 0 -45 0 7 -47 c13 -99 99 -230 186 -284 l24 -16 -41 -66 c-23 -36 -60
-91 -83 -122 -47 -63 -46 -64 -128 10 -97 88 -149 238 -130 377 18 134 85 227
245 342 98 69 229 198 307 299 58 76 176 273 176 294 0 27 12 10 65 -98z m115
-853 c0 -16 -57 -173 -81 -224 -83 -172 -281 -276 -472 -248 l-45 7 82 122
c44 68 101 164 126 214 l45 91 35 -6 c76 -14 173 -6 235 20 62 27 75 31 75 24z"/>
<path d="M2680 2796 c-71 -16 -112 -38 -162 -88 -157 -157 -111 -426 90 -525
49 -24 69 -28 142 -28 73 0 93 4 142 28 121 60 199 197 184 325 -23 198 -206
331 -396 288z m158 -102 c163 -68 194 -294 54 -401 -153 -117 -372 -11 -372
180 0 98 50 179 135 218 49 23 133 24 183 3z"/>
<path d="M5935 4243 c-16 -8 -32 -17 -34 -19 -2 -2 19 -54 47 -116 89 -202
160 -451 197 -688 35 -228 30 -567 -11 -820 -83 -503 -327 -1001 -671 -1370
-44 -47 -82 -93 -86 -103 -5 -13 7 -33 43 -71 l50 -53 -290 -73 c-160 -40
-293 -70 -296 -68 -5 6 133 569 142 577 2 3 28 -19 57 -47 74 -73 88 -71 174
26 280 313 460 644 558 1027 58 226 70 330 70 605 -1 208 -4 264 -23 370 -28
160 -71 320 -117 446 -46 123 -135 314 -147 314 -8 0 -67 -28 -76 -35 -2 -2
13 -35 32 -73 109 -216 185 -459 221 -705 96 -662 -116 -1366 -561 -1855 l-57
-63 -72 71 c-59 58 -77 71 -94 65 -11 -3 -25 -14 -30 -23 -20 -41 -193 -763
-187 -786 3 -13 13 -26 21 -30 14 -5 671 153 773 185 21 7 34 19 38 36 6 21
-3 35 -56 88 l-63 64 60 65 c203 216 394 520 516 821 192 471 249 1009 160
1515 -22 125 -67 302 -108 421 -48 138 -127 319 -140 318 -5 0 -23 -7 -40 -16z"/>
<path d="M3690 4070 l0 -50 185 0 185 0 0 50 0 50 -185 0 -185 0 0 -50z"/>
<path d="M1210 1750 c-8 -15 11 -104 86 -405 53 -213 103 -393 111 -401 24
-24 42 -16 109 47 l63 62 71 -66 c352 -326 848 -572 1335 -662 213 -39 335
-48 588 -42 311 7 518 42 793 132 134 45 340 130 350 146 4 7 -19 63 -32 78
-2 2 -54 -19 -116 -47 -560 -248 -1215 -290 -1819 -117 -383 110 -769 329
-1056 599 -60 57 -99 86 -114 86 -14 0 -42 -18 -70 -46 l-46 -45 -73 291 c-40
160 -70 293 -67 296 4 5 565 -134 576 -143 2 -1 -21 -29 -52 -62 -41 -43 -54
-64 -51 -79 7 -23 125 -132 244 -224 625 -481 1449 -624 2196 -383 119 39 346
136 383 164 23 17 23 18 6 52 -10 19 -19 35 -20 37 -1 1 -49 -20 -106 -47
-330 -154 -637 -224 -989 -224 -365 -1 -679 69 -995 222 -215 104 -393 221
-553 366 l-53 48 71 72 c38 40 70 77 70 82 0 34 -36 47 -400 138 -206 52 -387
95 -402 95 -17 0 -31 -7 -38 -20z"/>
</g>
</svg>
