<?xml version="1.0" standalone="no"?>
<!DOCTYPE svg PUBLIC "-//W3C//DTD SVG 20010904//EN"
 "http://www.w3.org/TR/2001/REC-SVG-20010904/DTD/svg10.dtd">
<svg version="1.0" xmlns="http://www.w3.org/2000/svg"
 width="700.000000pt" height="582.000000pt" viewBox="0 0 700.000000 582.000000"
 preserveAspectRatio="xMidYMid meet">

<g transform="translate(0.000000,582.000000) scale(0.100000,-0.100000)"
fill="#000000" stroke="none">
<path d="M2600 4822 c-93 -97 -197 -294 -225 -429 -8 -36 -15 -66 -17 -68 -2
-2 -35 5 -73 16 -138 38 -342 18 -367 -36 -14 -31 20 -170 68 -281 19 -43 34
-79 34 -80 0 0 -17 -6 -38 -12 -57 -17 -76 -43 -68 -89 12 -65 57 -206 82
-256 14 -26 22 -52 19 -56 -2 -5 -21 -12 -40 -15 -54 -11 -69 -41 -55 -112 16
-75 46 -166 77 -232 14 -29 23 -54 22 -56 -2 -1 -23 -8 -47 -15 -63 -18 -70
-40 -42 -149 12 -49 37 -125 56 -168 34 -80 33 -93 -7 -94 -9 0 -29 -10 -44
-21 -25 -20 -26 -26 -20 -68 9 -62 52 -196 81 -253 13 -26 24 -51 24 -56 0 -4
-20 -13 -45 -20 -66 -18 -73 -39 -46 -148 55 -219 145 -352 281 -417 55 -26
76 -31 145 -31 44 -1 96 1 115 4 l35 5 0 -178 0 -178 -125 -43 c-232 -80 -410
-167 -585 -287 -117 -79 -185 -139 -185 -163 0 -9 11 -28 25 -41 l24 -25 1841
0 1841 0 25 25 c46 46 18 81 -161 204 -173 119 -352 206 -585 287 l-125 43 0
178 0 178 35 -5 c19 -3 71 -5 115 -4 111 1 184 34 265 120 71 76 121 176 157
315 32 122 27 143 -42 161 -25 7 -45 16 -45 20 0 5 11 30 24 56 29 57 72 191
81 253 6 42 5 48 -20 68 -15 11 -35 21 -44 21 -40 1 -41 14 -7 94 19 43 44
119 56 168 28 111 22 132 -45 150 -25 7 -45 16 -45 20 0 5 10 28 21 51 28 54
64 160 79 232 14 70 -1 101 -55 111 -19 3 -38 10 -40 15 -3 4 5 30 19 56 25
50 70 191 82 256 8 46 -11 72 -68 89 -21 6 -38 12 -38 13 0 1 15 37 34 81 49
112 82 248 68 279 -25 54 -229 74 -367 36 -74 -21 -85 -18 -85 25 0 28 -36
135 -71 213 -59 130 -183 291 -224 291 -26 0 -84 -61 -142 -147 -77 -116 -129
-241 -158 -376 -4 -22 -10 -27 -23 -22 -141 55 -395 43 -423 -19 -8 -18 -6
-44 11 -109 21 -88 64 -204 81 -222 18 -18 8 -32 -29 -43 -21 -7 -47 -21 -57
-32 -18 -20 -18 -23 4 -113 12 -51 37 -128 56 -171 19 -44 32 -82 30 -86 -3
-4 -21 -11 -40 -14 -54 -10 -69 -41 -55 -111 15 -72 51 -178 79 -232 11 -23
21 -46 21 -51 0 -4 -20 -13 -45 -20 -69 -18 -74 -39 -42 -164 15 -56 42 -132
60 -169 l32 -68 -42 -10 c-62 -16 -78 -44 -63 -116 15 -72 51 -178 79 -232 11
-23 21 -46 21 -51 0 -4 -20 -13 -45 -20 -66 -17 -72 -38 -45 -145 55 -222 148
-360 285 -424 51 -24 73 -28 150 -28 50 0 102 3 118 8 l28 8 -3 -143 c-2 -97
-7 -142 -14 -141 -223 40 -327 48 -664 48 -337 0 -441 -8 -664 -48 -7 -1 -12
44 -14 141 l-3 143 28 -8 c16 -5 69 -8 118 -8 77 0 99 4 150 28 71 33 143 100
190 177 37 61 86 195 104 282 16 73 5 94 -54 110 -25 7 -45 15 -45 19 0 4 13
35 30 70 16 35 42 110 56 166 25 97 26 103 10 127 -10 16 -32 30 -59 37 l-42
10 32 68 c18 37 45 113 60 169 32 125 27 146 -42 164 -25 7 -45 16 -45 20 0 5
10 28 21 51 28 54 64 160 79 232 14 70 -1 101 -55 111 -19 3 -37 10 -40 14 -2
4 11 42 30 86 19 43 44 120 56 171 22 90 22 93 4 113 -10 11 -36 25 -57 32
-37 11 -47 25 -29 43 17 18 60 134 81 222 28 110 22 126 -56 149 -72 21 -256
15 -323 -10 -24 -9 -46 -15 -48 -13 -1 2 -12 37 -22 79 -25 97 -62 184 -120
282 -53 91 -138 186 -166 186 -10 0 -40 -22 -65 -48z m165 -267 c59 -122 77
-179 79 -251 l1 -61 -62 -63 c-61 -63 -61 -63 -118 -63 -56 0 -58 1 -116 59
-71 70 -79 98 -55 198 19 80 88 228 137 296 l32 44 29 -34 c16 -19 48 -75 73
-125z m1675 -10 c56 -112 86 -223 76 -276 -4 -24 -24 -52 -65 -93 -58 -58 -60
-59 -116 -59 -56 0 -57 1 -115 60 -70 72 -78 100 -55 198 18 78 86 227 136
295 l32 44 29 -34 c16 -19 51 -80 78 -135z m-2168 -326 c76 -25 112 -48 175
-110 51 -51 129 -181 119 -198 -8 -12 -94 -41 -123 -41 -13 0 -47 12 -75 26
-40 21 -155 53 -190 54 -26 0 -109 167 -132 262 -6 25 -4 27 31 30 60 6 133
-3 195 -23z m990 21 l26 0 -15 -56 c-18 -72 -57 -159 -88 -200 -20 -26 -35
-34 -89 -44 -36 -7 -93 -25 -127 -41 -33 -16 -70 -29 -82 -29 -31 0 -127 32
-127 43 0 5 16 40 36 77 57 109 139 184 245 224 53 20 144 36 174 30 11 -2 32
-4 47 -4z m681 -22 c74 -24 127 -57 182 -115 46 -48 120 -177 111 -192 -8 -12
-94 -41 -122 -41 -12 0 -50 13 -83 29 -34 16 -91 34 -127 41 -54 10 -69 18
-89 44 -28 37 -69 125 -85 185 -6 23 -13 48 -16 56 -11 29 134 25 229 -7z
m1015 17 c6 -5 -52 -164 -75 -207 -36 -66 -48 -75 -129 -92 -39 -8 -94 -26
-122 -40 -28 -14 -62 -26 -75 -26 -29 0 -115 29 -123 41 -10 17 68 147 119
198 79 78 153 116 258 130 45 7 137 4 147 -4z m-2729 -416 c118 -27 245 -126
302 -234 49 -92 49 -91 -29 -115 -69 -21 -69 -21 -103 -1 -43 24 -162 61 -199
61 -31 0 -50 21 -90 100 -28 54 -70 182 -63 192 6 11 130 9 182 -3z m1054 5
c7 -8 -19 -96 -49 -164 -40 -88 -73 -130 -103 -130 -40 0 -127 -26 -186 -54
l-52 -26 -67 20 c-36 12 -66 26 -66 32 0 5 15 37 32 71 64 119 172 210 288
241 55 15 191 21 203 10z m632 -9 c120 -31 228 -121 293 -242 17 -34 32 -66
32 -71 0 -6 -30 -20 -66 -32 l-67 -20 -52 26 c-59 28 -146 54 -186 54 -30 0
-63 42 -103 130 -30 68 -56 156 -49 164 12 12 140 6 198 -9z m1038 8 c16 -25
-90 -267 -124 -284 -8 -4 -43 -12 -79 -19 -36 -6 -93 -25 -126 -41 l-62 -29
-66 21 c-76 23 -76 22 -27 114 55 106 184 207 298 234 47 11 180 14 186 4z
m-2195 -44 l24 -9 -30 -38 c-16 -20 -43 -62 -60 -92 -18 -30 -32 -50 -32 -43
0 6 -24 48 -54 93 -53 78 -54 81 -33 89 12 5 38 15 57 23 31 13 39 13 70 0 19
-8 45 -18 58 -23z m1669 0 c21 -8 20 -11 -33 -89 -30 -45 -54 -87 -54 -93 0
-7 -14 13 -32 43 -17 30 -44 72 -60 92 l-30 38 24 9 c13 5 39 15 58 23 31 13
39 13 70 0 19 -8 45 -18 57 -23z m-2221 -370 c86 -16 177 -63 237 -123 51 -50
133 -188 123 -204 -3 -5 -32 -17 -65 -27 l-60 -18 -60 27 c-33 14 -90 33 -128
42 -37 9 -75 19 -83 23 -23 12 -75 105 -98 174 -36 112 -35 105 -10 110 43 8
84 7 144 -4z m1061 3 l23 -7 -33 -95 c-36 -104 -88 -190 -115 -190 -32 0 -135
-30 -195 -57 l-58 -26 -60 18 c-33 10 -62 22 -65 27 -3 4 9 38 27 74 39 79
123 168 197 207 81 44 215 67 279 49z m670 -17 c77 -23 169 -89 220 -159 47
-62 87 -142 79 -155 -3 -4 -32 -16 -65 -26 l-60 -18 -60 27 c-33 14 -90 34
-128 42 -37 9 -73 18 -80 20 -22 6 -67 88 -100 184 l-33 95 23 7 c32 10 144 1
204 -17z m1019 13 c9 -9 -49 -168 -79 -218 -37 -61 -40 -63 -130 -84 -38 -9
-95 -28 -128 -42 l-60 -27 -60 18 c-33 10 -62 22 -65 27 -7 11 40 102 82 159
82 112 238 184 377 175 32 -3 60 -6 63 -8z m-2227 -31 l52 -23 -31 -39 c-18
-22 -43 -61 -56 -87 -13 -27 -26 -48 -29 -48 -3 0 -14 19 -26 43 -12 23 -38
62 -57 86 -20 25 -32 46 -27 48 6 2 28 12 50 22 53 25 63 25 124 -2z m1670 0
l52 -23 -34 -44 c-19 -25 -44 -64 -56 -87 -12 -24 -23 -43 -26 -43 -3 0 -16
21 -29 48 -13 26 -38 65 -56 87 l-31 39 48 22 c62 29 70 29 132 1z m-2140
-396 c84 -26 140 -61 197 -124 45 -49 114 -161 114 -185 0 -8 -73 -35 -120
-44 -8 -2 -43 10 -77 25 -35 15 -95 35 -135 43 -78 16 -84 21 -127 104 -23 44
-71 177 -71 196 0 13 166 2 219 -15z m1024 12 c9 -14 -50 -171 -84 -228 -28
-46 -39 -56 -69 -61 -62 -10 -143 -35 -190 -58 -25 -13 -49 -22 -55 -20 -76
20 -125 38 -125 46 0 26 69 138 113 186 91 95 196 141 329 141 42 1 79 -2 81
-6z m646 -12 c83 -26 137 -60 198 -123 44 -48 113 -160 113 -186 0 -8 -49 -26
-125 -46 -5 -2 -30 7 -55 20 -47 23 -128 48 -190 58 -30 5 -41 15 -69 61 -34
57 -93 214 -84 228 9 15 151 7 212 -12z m1025 -8 c-15 -62 -53 -156 -85 -208
-28 -46 -39 -56 -69 -61 -62 -10 -143 -35 -190 -58 -25 -13 -49 -22 -55 -20
-76 20 -125 38 -125 46 0 25 65 132 111 182 90 99 196 145 337 145 l82 1 -6
-27z m-2234 -5 c30 -12 56 -23 58 -24 2 -1 -13 -24 -34 -51 -20 -26 -46 -67
-57 -90 l-21 -42 -29 52 c-17 29 -43 69 -60 90 -16 21 -28 39 -26 40 6 4 103
45 109 46 2 1 29 -9 60 -21z m1670 0 c30 -12 57 -23 59 -25 2 -1 -10 -19 -26
-40 -17 -21 -44 -62 -60 -91 l-30 -53 -13 32 c-8 17 -33 58 -57 91 -25 33 -43
61 -41 62 6 3 103 44 108 45 2 1 29 -9 60 -21z m-2179 -388 c138 -26 262 -122
328 -254 40 -77 40 -76 -48 -102 l-53 -16 -67 31 c-36 16 -97 36 -135 43 -68
13 -70 14 -103 65 -43 68 -97 224 -80 235 17 11 95 10 158 -2z m1066 2 c22
-14 -55 -214 -103 -268 -13 -14 -41 -25 -82 -32 -35 -6 -94 -25 -131 -42 l-68
-32 -62 18 c-34 9 -64 21 -67 26 -12 19 59 141 116 199 62 63 151 112 231 128
56 11 150 13 166 3z m604 -2 c89 -17 175 -63 239 -129 57 -58 128 -180 116
-199 -3 -5 -33 -17 -67 -26 l-62 -18 -68 32 c-37 17 -96 36 -131 42 -41 7 -69
18 -82 32 -48 54 -125 254 -103 268 17 11 96 10 158 -2z m1066 2 c22 -14 -55
-214 -103 -268 -13 -14 -41 -25 -82 -32 -35 -6 -94 -25 -132 -43 l-68 -31 -53
16 c-88 26 -88 25 -48 102 64 128 191 228 320 253 56 11 150 13 166 3z m-2183
-46 c17 -6 17 -8 -7 -40 -15 -18 -42 -59 -61 -91 l-34 -57 -22 43 c-13 24 -38
66 -58 92 -31 44 -33 49 -16 53 11 3 37 13 59 23 38 17 42 17 80 1 22 -10 48
-20 59 -24z m1669 0 c17 -5 15 -11 -16 -54 -19 -26 -44 -67 -57 -91 l-22 -43
-34 57 c-19 32 -47 73 -61 92 -25 32 -25 34 -7 39 10 3 37 13 59 23 38 17 42
17 80 1 22 -10 48 -20 58 -24z m-2221 -371 c74 -9 177 -66 240 -133 62 -64
126 -178 110 -194 -16 -16 -142 -48 -187 -48 -95 0 -174 43 -230 124 -33 49
-84 166 -99 228 -6 25 -4 27 31 30 39 4 54 3 135 -7z m1076 0 c6 -5 -52 -164
-75 -207 -32 -58 -93 -121 -141 -144 -51 -25 -168 -25 -249 0 -35 11 -63 23
-63 29 0 5 16 40 36 77 76 144 199 231 351 249 49 6 131 4 141 -4z m655 -17
c74 -24 127 -57 182 -115 46 -48 120 -177 110 -192 -3 -5 -29 -18 -58 -28 -71
-24 -199 -24 -249 0 -48 24 -110 87 -141 145 -20 37 -77 191 -77 208 0 6 75 9
125 5 28 -2 76 -12 108 -23z m1015 17 c1 -1 -9 -37 -24 -81 -78 -242 -203
-328 -402 -279 -110 27 -112 29 -68 112 73 138 206 235 347 252 53 6 137 4
147 -4z m-2237 -27 c30 -12 55 -23 57 -24 2 -1 -13 -23 -33 -50 -20 -26 -45
-64 -56 -86 -11 -21 -21 -38 -24 -38 -3 0 -13 17 -24 38 -11 22 -36 60 -56 86
-20 27 -35 49 -33 50 6 4 103 44 109 45 4 1 31 -9 60 -21z m1670 0 c30 -12 55
-23 57 -24 2 -1 -13 -23 -33 -50 -20 -26 -45 -64 -56 -86 -11 -21 -21 -38 -24
-38 -3 0 -13 17 -24 38 -11 22 -36 60 -56 86 -20 27 -35 49 -33 50 6 4 103 44
109 45 4 1 31 -9 60 -21z m-1691 -583 c0 -95 -3 -176 -7 -178 -5 -2 -20 -7
-35 -11 l-28 -6 0 184 c0 165 2 186 17 195 11 6 24 6 35 0 16 -9 18 -27 18
-184z m1670 -11 l0 -184 -27 6 c-16 4 -31 9 -35 11 -5 2 -8 82 -8 178 0 154 2
175 17 184 11 6 24 6 35 0 16 -9 18 -28 18 -195z m-496 -219 c338 -36 651
-116 918 -235 123 -54 280 -139 323 -175 l30 -24 -1645 0 -1645 0 30 24 c43
36 200 121 323 175 261 116 580 199 905 234 171 19 588 19 761 1z"/>
</g>
</svg>
