<?xml version="1.0" standalone="no"?>
<!DOCTYPE svg PUBLIC "-//W3C//DTD SVG 20010904//EN"
 "http://www.w3.org/TR/2001/REC-SVG-20010904/DTD/svg10.dtd">
<svg version="1.0" xmlns="http://www.w3.org/2000/svg"
 width="700.000000pt" height="606.000000pt" viewBox="0 0 700.000000 606.000000"
 preserveAspectRatio="xMidYMid meet">

<g transform="translate(0.000000,606.000000) scale(0.100000,-0.100000)"
fill="#000000" stroke="none">
<path d="M4906 5254 c-180 -43 -333 -204 -366 -383 -6 -29 -10 -166 -10 -303
l0 -249 -69 78 c-265 298 -676 540 -1075 633 -238 55 -555 70 -781 36 -470
-71 -876 -275 -1205 -606 -236 -237 -402 -505 -507 -817 -290 -869 4 -1815
736 -2366 758 -571 1812 -565 2558 15 35 26 64 48 67 48 2 0 22 -31 45 -69
137 -231 357 -377 619 -412 337 -45 685 137 841 441 70 136 92 230 92 395 -1
235 -96 449 -271 607 l-70 63 0 1240 c0 814 -4 1255 -11 1285 -60 260 -332
427 -593 364z m250 -207 c28 -14 70 -47 92 -72 77 -88 72 10 72 -1400 0 -897
3 -1271 11 -1294 7 -19 29 -44 54 -61 269 -185 358 -543 207 -835 -49 -96
-182 -228 -274 -273 -263 -129 -548 -82 -753 123 -129 129 -185 265 -185 452
0 182 55 318 180 443 41 41 93 89 115 106 l40 31 5 1299 5 1299 22 41 c43 81
98 129 182 161 56 21 165 11 227 -20z m-2075 -157 c207 -21 435 -81 604 -160
80 -37 81 -37 98 -91 57 -174 15 -335 -123 -470 -92 -90 -195 -141 -352 -173
-265 -55 -363 -165 -469 -531 -41 -142 -46 -152 -90 -197 -69 -69 -153 -86
-236 -48 -23 10 -72 48 -107 85 -45 45 -86 76 -130 96 -61 29 -72 30 -168 28
-214 -5 -221 -5 -280 24 -108 53 -151 127 -174 300 -12 95 -21 126 -58 202
-23 50 -71 127 -104 172 -34 44 -62 85 -62 90 0 17 233 238 310 295 400 293
869 425 1341 378z m1006 -402 c151 -119 303 -281 402 -427 l41 -60 0 -429 0
-429 -28 -39 c-54 -75 -128 -127 -217 -154 -25 -7 -157 -15 -345 -20 -329 -9
-368 -14 -487 -70 -80 -37 -139 -78 -197 -136 -91 -91 -121 -168 -142 -368
-21 -206 -69 -360 -129 -416 -23 -21 -29 -22 -92 -14 -37 5 -120 9 -183 9
-109 0 -118 -2 -185 -33 -109 -51 -147 -95 -196 -226 -26 -71 -72 -110 -164
-139 -59 -18 -93 -22 -215 -21 -156 0 -305 17 -357 41 -52 24 -213 211 -313
363 -367 560 -411 1290 -114 1895 29 61 73 141 98 179 l43 69 53 -74 c75 -105
99 -164 110 -272 12 -112 23 -154 62 -231 42 -84 118 -155 214 -202 l79 -39
175 -1 c202 0 204 -1 290 -89 30 -31 75 -69 100 -85 197 -125 467 -44 571 171
15 30 43 113 63 184 50 176 88 256 148 310 46 41 119 75 162 75 40 0 153 33
224 66 263 120 441 371 442 622 0 28 2 52 4 52 3 0 40 -28 83 -62z m364 -2196
c-96 -94 -169 -203 -210 -316 -42 -116 -54 -197 -49 -328 l3 -110 -72 -60
c-522 -426 -1217 -550 -1857 -332 -98 34 -366 160 -366 173 0 3 44 7 98 9 285
9 441 98 508 291 23 67 66 105 142 127 50 15 67 16 137 5 147 -23 180 -24 234
-6 66 22 126 81 172 170 62 120 90 227 109 414 5 57 15 121 20 142 17 62 72
131 144 180 114 78 129 81 481 90 223 5 327 12 371 23 66 16 157 54 189 79 20
15 20 14 23 -230 l2 -245 -79 -76z"/>
<path d="M4959 4781 l-29 -29 0 -1331 c0 -1200 -2 -1331 -16 -1331 -32 0 -126
-53 -179 -101 -214 -196 -160 -546 103 -676 74 -37 79 -38 186 -38 105 0 115
2 177 32 263 129 318 477 108 678 -52 50 -144 105 -176 105 -10 0 -13 285 -15
1331 l-3 1331 -33 29 c-43 39 -84 39 -123 0z m181 -2899 c70 -43 104 -99 108
-180 5 -82 -21 -146 -77 -193 -192 -159 -466 57 -355 279 61 122 208 165 324
94z"/>
<path d="M5755 4576 c-59 -26 -72 -101 -26 -147 l29 -29 201 0 c193 0 201 1
226 23 15 13 28 37 31 58 5 31 1 42 -24 70 l-30 34 -189 2 c-140 2 -196 -1
-218 -11z"/>
<path d="M5755 3966 c-59 -26 -72 -101 -26 -147 l29 -29 200 0 c186 0 201 1
225 20 55 43 40 136 -24 159 -47 16 -366 14 -404 -3z"/>
<path d="M5749 3355 c-52 -28 -62 -111 -17 -151 18 -17 42 -19 210 -22 133 -2
200 0 220 9 29 12 58 54 58 84 0 29 -28 71 -55 83 -39 18 -382 16 -416 -3z"/>
<path d="M5743 2740 c-57 -35 -54 -124 6 -155 38 -19 374 -22 416 -3 27 12 55
54 55 83 0 29 -28 71 -55 83 -17 8 -88 12 -208 12 -163 0 -185 -2 -214 -20z"/>
</g>
</svg>
