<?xml version="1.0" standalone="no"?>
<!DOCTYPE svg PUBLIC "-//W3C//DTD SVG 20010904//EN"
 "http://www.w3.org/TR/2001/REC-SVG-20010904/DTD/svg10.dtd">
<svg version="1.0" xmlns="http://www.w3.org/2000/svg"
 width="700.000000pt" height="600.000000pt" viewBox="0 0 700.000000 600.000000"
 preserveAspectRatio="xMidYMid meet">

<g transform="translate(0.000000,600.000000) scale(0.100000,-0.100000)"
fill="#000000" stroke="none">
<path d="M803 5410 c-12 -5 -29 -20 -38 -33 -14 -22 -15 -230 -13 -2138 l3
-2114 30 -85 c36 -105 107 -212 188 -285 68 -62 205 -134 297 -157 82 -20
4378 -20 4460 0 30 8 96 33 145 57 160 77 277 209 339 384 l31 86 3 1395 c1
767 0 1405 -3 1417 -3 12 -15 32 -27 43 -20 19 -35 20 -219 20 l-196 0 -27
-26 c-33 -34 -34 -74 -2 -111 24 -28 25 -28 165 -31 l141 -4 0 -1326 c0 -1090
-3 -1336 -14 -1378 -64 -241 -306 -402 -551 -367 -215 31 -392 203 -425 413
-6 42 -10 657 -10 1738 l0 1672 210 0 210 0 0 -1680 0 -1681 25 -24 c46 -47
125 -25 140 37 3 13 4 799 3 1746 l-3 1724 -28 24 -28 24 -265 0 -264 0 0 304
c0 167 -3 312 -6 321 -18 47 80 45 -2156 44 -1185 0 -2103 -4 -2115 -9z m4117
-2208 c0 -1790 2 -2056 15 -2108 24 -94 90 -217 152 -284 l55 -60 -1888 0
c-2078 0 -1954 -3 -2075 61 -72 38 -167 136 -204 209 -58 114 -55 -14 -55
2193 l0 2037 2000 0 2000 0 0 -2048z"/>
<path d="M1215 4909 c-46 -26 -45 -5 -45 -744 l0 -702 23 -21 23 -22 702 0
c686 0 702 0 722 20 11 11 22 30 25 42 3 13 4 330 3 705 l-3 682 -23 23 -23
23 -692 2 c-490 2 -698 -1 -712 -8z m1285 -744 l0 -585 -582 2 -583 3 -3 583
-2 582 585 0 585 0 0 -585z"/>
<path d="M3000 4900 c-37 -13 -68 -33 -97 -63 -110 -117 -86 -297 52 -382 l48
-30 726 -3 c483 -2 738 0 762 7 183 54 233 300 86 426 -77 66 -65 65 -831 65
-651 -1 -694 -2 -746 -20z m1468 -170 c46 -43 37 -109 -18 -137 -20 -10 -175
-12 -713 -10 l-689 2 -24 28 c-32 37 -31 77 2 111 l27 26 696 0 c687 0 698 0
719 -20z"/>
<path d="M2965 4158 c-52 -28 -62 -92 -20 -133 l24 -25 781 0 781 0 24 25 c25
24 32 65 19 100 -18 45 -17 45 -826 45 -533 -1 -769 -4 -783 -12z"/>
<path d="M2945 3725 c-41 -40 -33 -105 16 -130 42 -22 1536 -22 1578 0 49 25
57 90 16 130 l-24 25 -781 0 -781 0 -24 -25z"/>
<path d="M1880 3157 c-54 -27 -61 -99 -13 -137 25 -20 44 -20 1345 -20 l1319
0 24 25 c25 24 32 65 19 100 -18 46 22 45 -1366 45 -1030 0 -1308 -3 -1328
-13z"/>
<path d="M1275 2805 c-16 -15 -25 -36 -25 -55 0 -19 9 -40 25 -55 l24 -25
1619 0 1619 0 21 23 c30 32 29 87 -1 115 l-23 22 -1618 0 -1617 0 -24 -25z"/>
<path d="M1276 2474 c-33 -34 -34 -74 -2 -111 l24 -28 1599 -3 c879 -1 1608 0
1621 3 62 15 84 94 37 140 l-24 25 -1614 0 -1614 0 -27 -26z"/>
<path d="M1304 2160 c-46 -18 -69 -85 -41 -121 7 -9 22 -21 34 -27 16 -9 426
-12 1628 -12 l1606 0 24 25 c25 24 32 65 19 100 -18 47 43 45 -1656 44 -876 0
-1603 -4 -1614 -9z"/>
<path d="M1275 1805 c-16 -15 -25 -36 -25 -55 0 -19 9 -40 25 -55 l24 -25
1201 0 1201 0 24 25 c16 15 25 36 25 55 0 19 -9 40 -25 55 l-24 25 -1201 0
-1201 0 -24 -25z"/>
</g>
</svg>
