<?xml version="1.0" encoding="UTF-8"?>
<!DOCTYPE svg PUBLIC "-//W3C//DTD SVG 1.1//EN" "http://www.w3.org/Graphics/SVG/1.1/DTD/svg11.dtd">
<svg xmlns="http://www.w3.org/2000/svg" version="1.1" width="700px" height="600px" style="shape-rendering:geometricPrecision; text-rendering:geometricPrecision; image-rendering:optimizeQuality; fill-rule:evenodd; clip-rule:evenodd" xmlns:xlink="http://www.w3.org/1999/xlink">
<g><path style="opacity:0.96" fill="#000000" d="M 338.5,36.5 C 386.269,34.2976 422.769,53.2976 448,93.5C 455.686,107.557 460.352,122.557 462,138.5C 462.667,187.167 462.667,235.833 462,284.5C 455.637,334.056 428.804,366.889 381.5,383C 325.71,395.507 282.21,378.007 251,330.5C 243.315,316.445 238.649,301.445 237,285.5C 236.333,236.5 236.333,187.5 237,138.5C 243.025,93.4806 266.859,61.9806 308.5,44C 318.399,40.5251 328.399,38.0251 338.5,36.5 Z M 340.5,62.5 C 382.289,60.9673 412.123,78.9673 430,116.5C 433.232,124.195 435.232,132.195 436,140.5C 436.667,188.167 436.667,235.833 436,283.5C 429.165,324.336 405.665,349.836 365.5,360C 322.909,365.123 291.409,348.956 271,311.5C 267.887,303.83 265.387,295.997 263.5,288C 293.5,287.667 323.5,287.333 353.5,287C 362.68,282.436 364.847,275.603 360,266.5C 358.269,264.383 356.102,262.883 353.5,262C 323.168,261.5 292.835,261.333 262.5,261.5C 262.5,249.167 262.5,236.833 262.5,224.5C 293.168,224.667 323.835,224.5 354.5,224C 363.203,218.444 364.703,211.277 359,202.5C 357.581,201.54 356.081,200.707 354.5,200C 323.835,199.5 293.168,199.333 262.5,199.5C 262.5,187.167 262.5,174.833 262.5,162.5C 292.835,162.667 323.168,162.5 353.5,162C 362.68,157.436 364.847,150.603 360,141.5C 358.269,139.383 356.102,137.883 353.5,137C 323.5,136.667 293.5,136.333 263.5,136C 273.116,94.548 298.783,70.048 340.5,62.5 Z"/></g>
<g><path style="opacity:0.954" fill="#000000" d="M 170.5,261.5 C 178.274,260.468 183.774,263.468 187,270.5C 189.587,343.226 223.753,394.726 289.5,425C 350.195,446.523 405.528,437.19 455.5,397C 492.669,363.207 511.502,321.041 512,270.5C 515.22,263.306 520.72,260.473 528.5,262C 532.667,263.5 535.5,266.333 537,270.5C 535.454,352.459 497.954,411.293 424.5,447C 404.656,455.336 383.99,460.169 362.5,461.5C 362.5,486.5 362.5,511.5 362.5,536.5C 392.835,536.333 423.168,536.5 453.5,537C 462.68,541.564 464.847,548.397 460,557.5C 458.269,559.617 456.102,561.117 453.5,562C 384.167,562.667 314.833,562.667 245.5,562C 236.32,557.436 234.153,550.603 239,541.5C 240.731,539.383 242.898,537.883 245.5,537C 275.832,536.5 306.165,536.333 336.5,536.5C 336.5,511.5 336.5,486.5 336.5,461.5C 267.109,454.9 215.609,421.233 182,360.5C 167.752,332.176 161.085,302.176 162,270.5C 163.688,266.315 166.521,263.315 170.5,261.5 Z"/></g>
</svg>
