<?xml version="1.0" standalone="no"?>
<!DOCTYPE svg PUBLIC "-//W3C//DTD SVG 20010904//EN"
 "http://www.w3.org/TR/2001/REC-SVG-20010904/DTD/svg10.dtd">
<svg version="1.0" xmlns="http://www.w3.org/2000/svg"
 width="700.000000pt" height="600.000000pt" viewBox="0 0 700.000000 600.000000"
 preserveAspectRatio="xMidYMid meet">

<g transform="translate(0.000000,600.000000) scale(0.100000,-0.100000)"
fill="#000000" stroke="none">
<path d="M1278 5502 c-63 -38 -58 154 -56 -2516 l3 -2436 33 -32 32 -33 1190
0 1190 0 32 33 33 32 3 739 2 739 98 7 c215 17 493 -10 727 -70 313 -80 579
-204 910 -423 96 -63 180 -112 193 -112 65 0 122 56 122 120 0 60 -24 85 -187
194 -343 228 -669 376 -1013 461 -230 56 -346 69 -612 70 l-238 0 0 447 0 446
98 7 c215 17 493 -10 727 -70 313 -80 579 -204 910 -422 96 -64 180 -113 193
-113 65 0 122 56 122 120 0 60 -24 85 -187 194 -343 228 -669 376 -1013 461
-230 56 -346 69 -612 70 l-238 0 0 447 0 446 98 7 c215 17 493 -10 727 -70
313 -80 579 -204 910 -422 96 -64 180 -113 193 -113 65 0 122 56 122 120 0 60
-24 85 -187 194 -343 228 -669 376 -1013 461 -230 56 -346 69 -612 70 l-237 0
-3 447 -3 448 -33 32 -32 33 -815 3 c-717 2 -819 0 -845 -13 -55 -28 -76 -105
-45 -165 32 -62 3 -60 805 -60 l730 0 0 -375 c0 -206 -3 -375 -6 -375 -16 0
-293 -43 -389 -61 -60 -11 -301 -62 -535 -114 -566 -125 -822 -165 -1051 -165
l-59 0 0 545 0 545 76 0 c47 0 88 6 108 15 84 40 87 160 6 209 -42 24 -333 23
-372 -2z m2222 -1667 c0 -245 -3 -445 -7 -445 -20 0 -290 -43 -388 -61 -60
-11 -301 -63 -535 -114 -557 -124 -817 -165 -1042 -165 l-68 0 0 448 0 449
168 6 c288 11 509 47 1082 177 262 59 471 102 675 139 28 5 65 9 83 10 l32 1
0 -445z m0 -1140 c0 -245 -3 -445 -7 -445 -20 0 -290 -43 -388 -61 -60 -11
-301 -63 -535 -114 -557 -124 -817 -165 -1042 -165 l-68 0 0 448 0 449 168 6
c288 11 509 47 1082 177 262 59 471 102 675 139 28 5 65 9 83 10 l32 1 0 -445z
m0 -1335 l0 -640 -1020 0 -1020 0 0 473 0 474 168 6 c288 11 509 47 1082 177
262 59 471 102 675 139 28 5 65 9 83 10 l32 1 0 -640z"/>
</g>
</svg>
