<?xml version="1.0" standalone="no"?>
<!DOCTYPE svg PUBLIC "-//W3C//DTD SVG 20010904//EN"
 "http://www.w3.org/TR/2001/REC-SVG-20010904/DTD/svg10.dtd">
<svg version="1.0" xmlns="http://www.w3.org/2000/svg"
 width="700.000000pt" height="610.000000pt" viewBox="0 0 700.000000 610.000000"
 preserveAspectRatio="xMidYMid meet">

<g transform="translate(0.000000,610.000000) scale(0.100000,-0.100000)"
fill="#000000" stroke="none">
<path d="M1467 5916 c-98 -41 -155 -97 -203 -201 -18 -38 -19 -87 -22 -931
l-3 -892 27 -31 c20 -24 34 -31 63 -31 48 0 48 0 316 348 l217 282 294 0 293
0 3 -412 c3 -403 4 -414 25 -461 34 -71 113 -149 186 -183 l62 -29 1310 -3
1310 -3 233 -304 c255 -331 266 -341 328 -312 19 10 39 29 44 43 7 17 10 336
8 908 l-3 881 -28 61 c-36 77 -104 145 -182 181 l-60 28 -467 3 -467 3 -3 407
-3 407 -26 56 c-36 76 -86 129 -161 170 l-63 34 -1485 2 -1485 3 -58 -24z
m2962 -157 c58 -13 97 -42 121 -89 19 -37 20 -61 20 -470 0 -409 -1 -433 -20
-470 -24 -47 -63 -76 -121 -89 -29 -7 -501 -11 -1342 -11 -776 0 -1305 -4
-1316 -9 -9 -5 -91 -106 -181 -224 l-165 -214 -3 720 c-2 713 -2 721 19 764
24 50 61 79 115 92 56 13 2817 13 2873 0z m1244 -1093 c43 -17 95 -78 102
-118 3 -18 4 -351 3 -741 l-3 -707 -165 214 c-91 118 -175 219 -188 225 -16 8
-422 11 -1330 11 -827 0 -1320 4 -1342 10 -41 11 -94 61 -109 103 -7 18 -11
166 -11 412 l0 385 933 2 932 3 53 28 c70 37 124 87 153 142 l24 45 458 0
c362 0 464 -3 490 -14z"/>
<path d="M1899 5261 c-20 -20 -29 -39 -29 -61 0 -22 9 -41 29 -61 l29 -29 365
0 365 0 31 26 c25 20 31 34 31 64 0 30 -6 44 -31 64 l-31 26 -365 0 -365 0
-29 -29z"/>
<path d="M3041 5264 c-25 -20 -31 -34 -31 -64 0 -30 6 -44 31 -64 l31 -26 489
0 c354 0 496 3 512 12 34 17 46 39 47 80 0 28 -7 42 -31 62 l-31 26 -493 0
-493 0 -31 -26z"/>
<path d="M3105 4175 c-17 -16 -25 -35 -25 -60 0 -25 8 -44 25 -60 l24 -25 506
0 506 0 24 25 c17 16 25 35 25 60 0 25 -8 44 -25 60 l-24 25 -506 0 -506 0
-24 -25z"/>
<path d="M4505 4175 c-17 -16 -25 -35 -25 -60 0 -25 8 -44 25 -60 l24 -25 376
0 376 0 24 25 c17 16 25 35 25 60 0 25 -8 44 -25 60 l-24 25 -376 0 -376 0
-24 -25z"/>
<path d="M1720 2895 c-200 -45 -332 -182 -374 -387 -54 -262 50 -574 237 -709
l38 -28 -48 -6 c-406 -53 -646 -170 -739 -360 l-29 -60 -3 -450 c-2 -289 0
-462 7 -485 15 -50 63 -104 116 -129 45 -21 48 -21 930 -21 720 0 892 3 918
13 47 20 95 64 120 111 21 40 22 50 25 448 2 256 -1 429 -7 465 -44 237 -256
383 -651 448 -52 8 -109 17 -126 20 l-31 5 77 79 c59 59 87 98 119 162 62 128
76 191 76 354 0 120 -3 149 -23 207 -56 161 -162 265 -321 314 -70 22 -234 27
-311 9z m317 -206 c115 -58 163 -155 163 -329 0 -166 -45 -286 -144 -386 -45
-45 -75 -65 -115 -79 -178 -59 -350 72 -412 313 -41 163 -16 333 64 419 73 79
143 103 284 100 82 -3 99 -6 160 -38z m217 -1123 c267 -51 399 -117 459 -230
21 -40 22 -52 25 -448 2 -278 -1 -414 -8 -428 -10 -18 -21 -20 -130 -20 l-119
0 -3 309 -3 309 -24 26 c-33 35 -92 36 -126 1 l-25 -24 0 -311 0 -310 -439 0
-440 0 -3 309 -3 309 -24 26 c-33 35 -92 36 -126 1 l-25 -24 0 -311 0 -310
-125 0 c-113 0 -125 2 -135 19 -14 27 -14 753 1 820 34 158 214 252 589 306
65 10 165 13 320 11 193 -3 245 -7 364 -30z"/>
<path d="M5050 2903 c-205 -31 -338 -144 -406 -343 -30 -86 -27 -319 4 -420
39 -124 88 -207 172 -292 l77 -77 -46 -7 c-102 -13 -300 -57 -371 -80 -218
-73 -359 -212 -390 -386 -7 -35 -10 -212 -8 -465 3 -399 4 -409 25 -449 25
-47 73 -91 120 -111 26 -10 197 -13 916 -13 l883 0 55 28 c35 18 64 42 84 70
l30 44 0 466 0 467 -32 67 c-73 154 -220 253 -467 312 -55 13 -135 29 -176 36
-41 6 -90 13 -108 16 l-33 5 38 28 c187 135 291 447 237 709 -42 208 -176 344
-379 387 -65 14 -167 17 -225 8z m258 -203 c116 -50 182 -171 182 -334 0 -207
-90 -385 -232 -455 -108 -55 -208 -37 -307 55 -107 99 -155 234 -149 419 3
105 5 117 38 181 39 76 93 121 179 149 69 22 221 15 289 -15z m109 -1115 c381
-50 568 -145 602 -306 14 -64 15 -778 1 -813 -10 -26 -10 -26 -135 -26 l-125
0 0 310 0 311 -25 24 c-34 35 -93 34 -126 -1 l-24 -26 -3 -309 -3 -309 -440 0
-439 0 0 310 0 311 -25 24 c-34 35 -93 34 -126 -1 l-24 -26 -3 -309 -3 -309
-119 0 c-109 0 -120 2 -130 20 -7 14 -10 150 -8 428 3 396 4 408 25 448 65
122 258 207 563 248 145 19 422 20 567 1z"/>
</g>
</svg>
