<?xml version="1.0" encoding="UTF-8"?>
<svg xmlns="http://www.w3.org/2000/svg" xmlns:xlink="http://www.w3.org/1999/xlink" width="20px" height="20px" viewBox="0 0 20 20" version="1.1">
<g id="surface1">
<path style=" stroke:none;fill-rule:nonzero;fill:rgb(0%,0%,0%);fill-opacity:1;" d="M 4.75 0.0429688 C 4.417969 0.0898438 3.839844 0.25 3.476562 0.394531 C 2.238281 0.882812 1.074219 1.988281 0.511719 3.210938 C 0.132812 4.027344 0 4.695312 0 5.769531 C 0 8.78125 1.011719 11.792969 2.84375 14.230469 C 4.996094 17.09375 8.058594 19.03125 11.523438 19.726562 C 12.59375 19.941406 12.972656 19.976562 14.179688 19.976562 L 15.292969 19.976562 L 15.742188 19.855469 C 16.855469 19.558594 17.664062 19.09375 18.410156 18.324219 C 19.15625 17.554688 19.585938 16.785156 19.851562 15.742188 C 19.96875 15.285156 20.042969 14.433594 19.984375 14.207031 C 19.917969 13.933594 19.953125 13.949219 16.53125 12.582031 C 13.195312 11.246094 13.105469 11.214844 12.878906 11.332031 C 12.671875 11.4375 12.605469 11.566406 12.046875 12.96875 L 11.472656 14.402344 L 11.273438 14.382812 C 11.164062 14.375 10.898438 14.332031 10.683594 14.292969 C 8.46875 13.855469 6.628906 12.242188 5.917969 10.105469 C 5.78125 9.691406 5.644531 9.074219 5.617188 8.726562 L 5.597656 8.527344 L 7.03125 7.953125 C 8.433594 7.394531 8.5625 7.328125 8.667969 7.121094 C 8.785156 6.894531 8.753906 6.804688 7.421875 3.472656 C 6.589844 1.390625 6.097656 0.21875 6.042969 0.167969 C 5.996094 0.125 5.917969 0.0664062 5.871094 0.0429688 C 5.773438 -0.0078125 5.09375 -0.0078125 4.75 0.0429688 Z M 6.257812 3.847656 C 6.835938 5.285156 7.296875 6.484375 7.289062 6.503906 C 7.28125 6.527344 6.683594 6.78125 5.960938 7.066406 C 4.617188 7.605469 4.507812 7.664062 4.417969 7.902344 C 4.363281 8.042969 4.363281 8.414062 4.417969 8.898438 C 4.703125 11.515625 6.273438 13.738281 8.636719 14.882812 C 9.601562 15.347656 10.769531 15.625 11.757812 15.625 C 12.289062 15.625 12.308594 15.601562 12.933594 14.039062 C 13.21875 13.316406 13.472656 12.71875 13.496094 12.710938 C 13.515625 12.703125 14.714844 13.167969 16.152344 13.742188 L 18.769531 14.792969 L 18.757812 14.964844 C 18.742188 15.238281 18.597656 15.769531 18.441406 16.132812 C 18.054688 17.027344 17.261719 17.886719 16.417969 18.3125 C 15.726562 18.667969 15.121094 18.796875 14.179688 18.792969 C 12.84375 18.789062 11.429688 18.542969 10.117188 18.09375 C 5.929688 16.660156 2.667969 13.125 1.601562 8.867188 C 1.3125 7.703125 1.234375 7.074219 1.230469 5.878906 C 1.230469 5 1.238281 4.871094 1.316406 4.570312 C 1.691406 3.101562 2.78125 1.914062 4.199219 1.425781 C 4.449219 1.339844 5.035156 1.210938 5.136719 1.222656 C 5.199219 1.230469 5.394531 1.691406 6.257812 3.847656 Z M 6.257812 3.847656 "/>
</g>
</svg>
