<?xml version="1.0" encoding="UTF-8"?>
<svg xmlns="http://www.w3.org/2000/svg" xmlns:xlink="http://www.w3.org/1999/xlink" width="17px" height="17px" viewBox="0 0 17 17" version="1.1">
<g id="surface1">
<path style=" stroke:none;fill-rule:nonzero;fill:rgb(108,152,225);fill-opacity:1;" d="M 2.871094 0.0507812 C 2.496094 0.164062 2.402344 0.246094 1.390625 1.257812 C 0.460938 2.1875 0.398438 2.253906 0.273438 2.511719 C 0.199219 2.664062 0.109375 2.902344 0.078125 3.042969 C -0.00390625 3.398438 -0.0078125 4.148438 0.078125 4.597656 C 0.5 6.910156 2.179688 9.652344 4.75 12.222656 C 7.34375 14.820312 10.105469 16.527344 12.367188 16.9375 C 12.703125 16.996094 12.851562 17.003906 13.28125 16.988281 C 13.855469 16.96875 14.054688 16.929688 14.445312 16.746094 C 14.675781 16.632812 14.765625 16.550781 15.691406 15.625 C 16.566406 14.753906 16.703125 14.597656 16.796875 14.410156 C 17.046875 13.898438 17.054688 13.355469 16.820312 12.863281 C 16.703125 12.617188 16.640625 12.546875 15.445312 11.34375 C 14.757812 10.65625 14.109375 10.023438 14 9.945312 C 13.714844 9.726562 13.496094 9.652344 13.082031 9.636719 C 12.675781 9.617188 12.429688 9.683594 12.128906 9.882812 C 11.832031 10.082031 11.703125 10.253906 11.5 10.726562 C 11.375 11.011719 11.230469 11.210938 11.027344 11.367188 C 10.546875 11.730469 10.035156 11.8125 9.464844 11.621094 C 8.007812 11.136719 6.296875 9.558594 5.566406 8.035156 C 5.386719 7.65625 5.214844 7.09375 5.214844 6.894531 C 5.21875 6.371094 5.628906 5.765625 6.132812 5.542969 C 6.65625 5.300781 6.734375 5.257812 6.910156 5.082031 C 7.292969 4.699219 7.457031 4.097656 7.320312 3.570312 C 7.207031 3.132812 7.140625 3.054688 5.828125 1.730469 C 4.382812 0.273438 4.285156 0.1875 3.8125 0.0546875 C 3.589844 -0.0117188 3.066406 -0.0117188 2.871094 0.0507812 Z M 2.871094 0.0507812 "/>
</g>
</svg>
