<?xml version="1.0" encoding="utf-8"?>
<svg width="30px" height="30px" viewBox="0 0 30 30" version="1.1" xmlns:xlink="http://www.w3.org/1999/xlink" xmlns="http://www.w3.org/2000/svg">
  <g id="Group-52">
    <path d="M0 15C0 6.71573 6.71573 0 15 0C23.2843 0 30 6.71573 30 15C30 23.2843 23.2843 30 15 30C6.71573 30 0 23.2843 0 15Z" id="Circle" fill="#00324C" fill-rule="evenodd" stroke="none" />
    <path d="M2.715 5.8425C3.795 7.965 5.535 9.6975 7.6575 10.785L9.3075 9.135C9.51 8.9325 9.81 8.865 10.0725 8.955C10.9125 9.2325 11.82 9.3825 12.75 9.3825C13.1625 9.3825 13.5 9.72 13.5 10.1325L13.5 12.75C13.5 13.1625 13.1625 13.5 12.75 13.5C5.7075 13.5 0 7.7925 0 0.75C0 0.3375 0.3375 0 0.75 0L3.375 0C3.7875 0 4.125 0.3375 4.125 0.75C4.125 1.6875 4.275 2.5875 4.5525 3.4275C4.635 3.69 4.575 3.9825 4.365 4.1925L2.715 5.8425L2.715 5.8425Z" transform="translate(8.25 8.25)" id="Shape" fill="#FFFFFF" fill-rule="evenodd" stroke="none" />
  </g>
</svg>