<?xml version="1.0" standalone="no"?>
<!DOCTYPE svg PUBLIC "-//W3C//DTD SVG 20010904//EN"
 "http://www.w3.org/TR/2001/REC-SVG-20010904/DTD/svg10.dtd">
<svg version="1.0" xmlns="http://www.w3.org/2000/svg"
 width="128.000000pt" height="128.000000pt" viewBox="0 0 128.000000 128.000000"
 preserveAspectRatio="xMidYMid meet">

<g transform="translate(0.000000,128.000000) scale(0.100000,-0.100000)"
fill="#000000" stroke="none">
<path d="M114 1188 c-97 -94 -114 -124 -114 -197 0 -59 30 -153 80 -256 204
-411 762 -817 991 -721 19 8 71 52 116 98 88 91 106 131 83 187 -6 16 -62 79
-124 140 l-113 111 -49 0 c-59 0 -87 -17 -114 -70 -62 -122 -186 -104 -341 49
-157 156 -177 284 -53 342 52 25 74 60 74 120 0 40 -5 47 -107 151 -118 120
-144 138 -199 138 -33 0 -47 -10 -130 -92z"/>
</g>
</svg>
