<?xml version="1.0" encoding="utf-8"?>
<svg width="14px" height="15px" viewBox="0 0 14 15" version="1.1" xmlns:xlink="http://www.w3.org/1999/xlink" xmlns="http://www.w3.org/2000/svg">
  <defs>
    <path d="M0 0L14 0L14 15L0 15L0 0Z" id="path_1" />
    <clipPath id="mask_1">
      <use xlink:href="#path_1" />
    </clipPath>
  </defs>
  <g id="Vector-(1)">
    <path d="M0 0L14 0L14 15L0 15L0 0Z" id="Background" fill="none" fill-rule="evenodd" stroke="none" />
    <g clip-path="url(#mask_1)">
      <path d="M7.30228 0C3.62966 0 0 1.98839 0 5.20645C0 7.25298 1.4175 8.41578 2.27659 8.41578C2.63097 8.41578 2.835 7.61345 2.835 7.3867C2.835 7.11635 1.98665 6.54076 1.98665 5.41575C1.98665 3.07852 4.17733 1.42153 7.01233 1.42153C9.45 1.42153 11.254 2.54654 11.254 4.61342C11.254 6.15704 10.4916 9.05242 8.02176 9.05242C7.13046 9.05242 6.36801 8.52916 6.36801 7.77915C6.36801 6.6803 7.31302 5.61634 7.31302 4.4826C7.31302 2.55817 3.95182 2.90701 3.95182 5.23261C3.95182 5.72099 4.02699 6.26169 4.29546 6.70646C3.80148 8.43322 2.79205 11.0059 2.79205 12.785C2.79205 13.3344 2.8887 13.8751 2.95313 14.4246C3.07483 14.535 3.01398 14.5234 3.20012 14.4682C5.00421 12.4623 4.93978 12.0699 5.75591 9.44486C6.1962 10.1251 7.33449 10.4914 8.23654 10.4914C12.038 10.4914 13.7454 7.48263 13.7454 4.7704C13.7454 1.88374 10.6742 0 7.30228 0L7.30228 0Z" transform="translate(0.072753906 0)" id="Shape" fill="#ACB8C1" fill-rule="evenodd" stroke="none" />
    </g>
  </g>
</svg>