<?xml version="1.0" standalone="no"?>
<!DOCTYPE svg PUBLIC "-//W3C//DTD SVG 20010904//EN"
 "http://www.w3.org/TR/2001/REC-SVG-20010904/DTD/svg10.dtd">
<svg version="1.0" xmlns="http://www.w3.org/2000/svg"
 width="128.000000pt" height="128.000000pt" viewBox="0 0 128.000000 128.000000"
 preserveAspectRatio="xMidYMid meet">

<g transform="translate(0.000000,128.000000) scale(0.100000,-0.100000)"
fill="#000000" stroke="none">
<path d="M521 1264 c-118 -32 -237 -125 -293 -230 -55 -102 -72 -235 -44 -340
19 -74 87 -202 180 -344 102 -154 256 -349 276 -349 20 0 174 195 276 349 143
217 194 337 194 455 0 127 -49 244 -140 335 -120 120 -290 167 -449 124z m224
-238 c89 -41 135 -116 135 -218 0 -71 -16 -113 -65 -166 -114 -127 -334 -86
-401 74 -18 44 -18 142 1 187 37 88 126 147 225 147 37 0 72 -8 105 -24z"/>
</g>
</svg>
