<svg version="1.1" xmlns="http://www.w3.org/2000/svg" width="50" height="50" viewBox="0 0 32 32">
        <path d="M24.948 28.128c-0.693 0-1.369-0.239-1.909-0.669l-9.456-7.565c-0.159-0.127-0.251-0.316-0.251-0.521v-9.333c0-0.203 0.092-0.395 0.251-0.52l9.456-7.565c0.893-0.716 2.195-0.864 3.231-0.368 1.051 0.505 1.731 1.587 1.731 2.753v20.733c0 1.167-0.68 2.247-1.731 2.752-0.409 0.197-0.867 0.304-1.321 0.304zM14.667 19.055l9.205 7.361c0.504 0.404 1.232 0.489 1.817 0.205 0.591-0.284 0.973-0.893 0.973-1.549v-20.733c0-0.657-0.383-1.267-0.973-1.552-0.584-0.281-1.312-0.197-1.817 0.208l-9.205 7.365v8.695zM28 18.705c-0.367 0-0.667-0.3-0.667-0.667s0.3-0.667 0.667-0.667c1.472 0 2.667-1.196 2.667-2.667 0-1.469-1.195-2.667-2.667-2.667-0.367 0-0.667-0.299-0.667-0.667s0.3-0.667 0.667-0.667c2.205 0 4 1.795 4 4 0 2.207-1.795 4-4 4zM14.027 30.705c-0.005 0-0.017 0-0.027 0h-5.333c-0.305 0-0.573-0.208-0.645-0.505l-2.541-10.161h-2.813c-1.472 0-2.667-1.195-2.667-2.667v-5.333c0-1.469 1.195-2.667 2.667-2.667h11.333c0.367 0 0.667 0.299 0.667 0.667v9.333c0 0.367-0.3 0.667-0.667 0.667h-1.812l2.417 9.665c0.056 0.099 0.087 0.213 0.087 0.335 0.001 0.368-0.297 0.667-0.665 0.667zM9.188 29.372h3.959l-2.459-9.839c-0.049-0.197-0.005-0.412 0.12-0.573 0.129-0.161 0.32-0.255 0.528-0.255h2v-8h-10.667c-0.736 0-1.333 0.597-1.333 1.333v5.333c0 0.736 0.597 1.333 1.333 1.333h3.333c0.305 0 0.576 0.208 0.645 0.505l2.54 10.161zM3.333 16.705c-0.367 0-0.667-0.299-0.667-0.667v-2.667c0-0.368 0.3-0.667 0.667-0.667s0.667 0.299 0.667 0.667v2.667c0 0.368-0.3 0.667-0.667 0.667zM6 16.705c-0.367 0-0.667-0.299-0.667-0.667v-2.667c0-0.368 0.3-0.667 0.667-0.667s0.667 0.299 0.667 0.667v2.667c0 0.368-0.3 0.667-0.667 0.667z"></path>
        </svg>