<?xml version="1.0" encoding="utf-8"?>
<svg width="30px" height="30px" viewBox="0 0 30 30" version="1.1" xmlns:xlink="http://www.w3.org/1999/xlink" xmlns="http://www.w3.org/2000/svg">
  <g id="Group-51">
    <path d="M0 15C0 6.71573 6.71573 0 15 0C23.2843 0 30 6.71573 30 15C30 23.2843 23.2843 30 15 30C6.71573 30 0 23.2843 0 15Z" id="Circle" fill="#00324C" fill-rule="evenodd" stroke="none" />
    <path d="M5.25 0C2.3475 0 0 2.3475 0 5.25C0 9.1875 5.25 15 5.25 15C5.25 15 10.5 9.1875 10.5 5.25C10.5 2.3475 8.1525 0 5.25 0L5.25 0ZM5.25 7.125C4.215 7.125 3.375 6.285 3.375 5.25C3.375 4.215 4.215 3.375 5.25 3.375C6.285 3.375 7.125 4.215 7.125 5.25C7.125 6.285 6.285 7.125 5.25 7.125L5.25 7.125Z" transform="translate(9.75 7.5)" id="Shape" fill="#FFFFFF" fill-rule="evenodd" stroke="none" />
  </g>
</svg>