<?xml version="1.0" standalone="no"?>
<!DOCTYPE svg PUBLIC "-//W3C//DTD SVG 20010904//EN"
 "http://www.w3.org/TR/2001/REC-SVG-20010904/DTD/svg10.dtd">
<svg version="1.0" xmlns="http://www.w3.org/2000/svg"
 width="512.000000pt" height="512.000000pt" viewBox="0 0 512.000000 512.000000"
 preserveAspectRatio="xMidYMid meet">
<defs>
    <style>
        .cls-1 {
            fill: #39bc5b;
            fill-rule: evenodd;
        }
    </style>
</defs>
<g transform="translate(0.000000,512.000000) scale(0.100000,-0.100000)"
fill="#000000" stroke="none">
<path class="cls-1" d="M1310 4940 c-20 -20 -20 -33 -20 -974 l0 -953 -71 -7 c-92 -9 -224
-47 -317 -91 -224 -106 -426 -319 -515 -546 -135 -340 -84 -717 134 -1005 61
-81 56 -97 -26 -88 -106 13 -114 8 -294 -169 -99 -99 -171 -178 -182 -202 -65
-140 65 -294 215 -254 34 9 72 41 210 177 92 92 174 181 182 199 16 37 18 91
5 126 -8 20 -6 29 9 42 18 16 22 14 87 -35 134 -102 335 -182 496 -197 l67 -6
0 -141 c0 -201 -21 -186 251 -186 l219 0 0 -215 c0 -202 1 -216 20 -235 20
-20 33 -20 1660 -20 1627 0 1640 0 1660 20 20 20 20 33 20 2148 0 2050 -1
2130 -18 2145 -16 15 -48 17 -235 17 l-217 0 0 218 c0 199 -2 220 -18 235 -17
16 -147 17 -1660 17 -1629 0 -1642 0 -1662 -20z m3220 -2145 l0 -2045 -1560 0
-1560 0 0 104 0 103 58 5 c136 13 311 77 437 160 445 295 593 870 346 1345
-147 282 -446 494 -756 536 l-85 11 0 913 0 913 1560 0 1560 0 0 -2045z m470
-470 l0 -2045 -1560 0 -1560 0 0 175 0 175 1373 0 c1055 0 1376 3 1385 12 9 9
12 438 12 1870 l0 1858 175 0 175 0 0 -2045z m-3510 554 c169 -27 338 -111
467 -233 265 -250 356 -608 242 -951 -49 -147 -118 -254 -235 -366 -171 -163
-349 -237 -590 -246 -197 -8 -341 28 -512 129 -82 48 -250 218 -301 304 -78
133 -131 323 -131 469 0 147 54 337 131 468 50 83 171 213 254 272 102 72 237
131 356 154 63 13 243 13 319 0z m-986 -1741 c31 -44 21 -59 -143 -222 -138
-137 -162 -157 -183 -151 -30 9 -58 42 -58 68 0 15 51 73 152 174 134 134 157
153 185 153 22 0 37 -7 47 -22z"/>
<path class="cls-1" d="M3732 4644 l-22 -15 0 -773 c0 -707 1 -775 17 -787 11 -10 58 -15
169 -17 153 -3 154 -3 179 22 l25 25 0 761 c0 747 0 760 -20 780 -18 18 -33
20 -173 20 -122 0 -157 -3 -175 -16z m248 -789 l0 -685 -75 0 -75 0 0 685 0
685 75 0 75 0 0 -685z"/>
<path class="cls-1" d="M3112 4404 l-22 -15 0 -653 c0 -595 1 -655 17 -667 11 -10 58 -15
169 -17 153 -3 154 -3 179 22 l25 25 0 641 c0 627 0 640 -20 660 -18 18 -33
20 -173 20 -122 0 -157 -3 -175 -16z m248 -669 l0 -565 -75 0 -75 0 0 565 0
565 75 0 75 0 0 -565z"/>
<path class="cls-1" d="M2487 4092 c-15 -17 -17 -67 -17 -514 0 -448 2 -497 17 -509 11 -10
58 -15 169 -17 153 -3 154 -3 179 22 l25 25 0 483 c0 421 -2 486 -16 506 -15
21 -21 22 -178 22 -145 0 -165 -2 -179 -18z m253 -512 l0 -410 -75 0 -75 0 0
410 0 410 75 0 75 0 0 -410z"/>
<path class="cls-1" d="M1866 3674 c-14 -13 -16 -55 -16 -303 0 -256 2 -290 17 -302 11 -10
58 -15 169 -17 153 -3 154 -3 179 22 l25 25 0 273 c0 231 -2 277 -16 296 -15
21 -21 22 -179 22 -135 0 -166 -3 -179 -16z m254 -304 l0 -200 -75 0 -75 0 0
200 0 200 75 0 75 0 0 -200z"/>
<path class="cls-1" d="M2270 2770 c-11 -11 -20 -29 -20 -40 0 -11 9 -29 20 -40 20 -20 33
-20 1003 -20 873 0 985 2 1005 16 27 19 29 64 4 87 -17 16 -101 17 -1005 17
-974 0 -987 0 -1007 -20z"/>
<path class="cls-1" d="M2474 2362 c-6 -4 -17 -18 -24 -31 -10 -20 -9 -27 8 -50 l19 -26 888
-3 c783 -2 891 0 912 13 28 19 31 65 5 88 -17 16 -94 17 -908 17 -489 0 -894
-4 -900 -8z"/>
<path class="cls-1" d="M2474 1942 c-24 -16 -35 -51 -23 -74 7 -13 17 -26 23 -30 6 -4 409
-8 896 -8 976 0 930 -3 930 60 0 63 46 60 -930 60 -487 0 -890 -4 -896 -8z"/>
<path class="cls-1" d="M2468 1513 c-8 -10 -18 -24 -22 -30 -7 -13 10 -53 28 -65 6 -4 412
-8 902 -8 850 0 892 1 907 18 24 26 21 68 -5 86 -20 14 -123 16 -909 16 -831
0 -887 -1 -901 -17z"/>
<path class="cls-1" d="M2310 1090 c-25 -25 -26 -62 -2 -83 17 -16 100 -17 989 -17 927 0
971 1 986 18 24 26 21 68 -5 86 -20 14 -130 16 -985 16 -950 0 -963 0 -983
-20z"/>
<path class="cls-1" d="M1176 2674 c-12 -11 -16 -35 -16 -85 0 -69 0 -70 -32 -84 -33 -14
-33 -13 -83 36 -33 32 -59 49 -75 49 -19 0 -53 -28 -129 -104 -124 -124 -127
-134 -56 -206 43 -44 46 -51 38 -77 -9 -27 -13 -28 -87 -33 -106 -7 -106 -7
-106 -187 0 -177 3 -183 109 -183 67 0 69 -1 81 -31 13 -29 11 -32 -35 -79
-71 -72 -68 -82 56 -206 76 -76 110 -104 129 -104 16 0 42 17 75 49 50 49 50
50 83 36 32 -14 32 -15 32 -84 0 -101 -1 -101 184 -101 105 0 156 4 164 12 7
7 12 42 12 85 0 73 0 73 33 87 32 13 33 13 82 -35 74 -71 81 -69 208 60 59 59
107 116 107 125 0 10 -23 42 -51 71 -50 53 -51 56 -39 85 12 29 14 30 81 30
106 0 109 5 109 185 0 180 -3 185 -109 185 -67 0 -69 1 -81 30 -12 29 -11 32
39 85 28 29 51 61 51 71 0 28 -209 234 -238 234 -14 0 -43 -19 -75 -49 -46
-43 -55 -47 -78 -39 -25 8 -27 14 -31 85 -4 59 -9 79 -24 90 -28 21 -307 19
-328 -3z m227 -165 c3 -34 11 -67 19 -74 16 -16 134 -65 171 -72 24 -5 36 2
73 38 l44 43 45 -44 44 -44 -44 -47 c-25 -27 -45 -53 -45 -59 0 -6 11 -35 24
-63 13 -29 27 -63 31 -77 15 -49 33 -60 102 -60 l63 0 0 -65 0 -65 -63 0 c-69
0 -87 -11 -102 -60 -4 -14 -18 -48 -31 -77 -13 -28 -24 -57 -24 -63 0 -6 20
-32 45 -59 l44 -47 -44 -44 -45 -44 -44 43 c-37 36 -49 43 -73 38 -37 -7 -155
-56 -171 -72 -8 -7 -16 -40 -19 -74 l-6 -61 -58 0 -59 0 0 54 c0 68 -15 86
-100 121 -104 43 -112 43 -165 -6 l-46 -42 -44 43 -44 44 44 47 c25 27 45 55
45 64 0 9 -11 37 -24 63 -13 26 -27 58 -31 72 -15 49 -33 60 -102 60 l-63 0 0
65 0 65 63 0 c69 0 87 11 102 60 4 14 18 46 31 72 13 26 24 54 24 63 0 9 -20
37 -45 64 l-44 47 44 44 45 44 43 -42 c23 -23 52 -42 64 -42 12 0 45 11 75 25
29 14 61 25 70 25 32 0 58 48 58 106 l0 54 59 0 58 0 6 -61z"/>
<path class="cls-1" d="M1228 2337 c-171 -64 -272 -219 -254 -390 12 -121 93 -237 203 -292
79 -41 210 -47 295 -15 80 30 159 104 200 188 30 60 33 75 33 157 0 77 -4 98
-27 147 -36 76 -107 151 -177 185 -45 22 -73 27 -146 30 -59 2 -103 -1 -127
-10z m206 -121 c87 -36 156 -138 156 -231 0 -92 -68 -194 -152 -229 -46 -20
-148 -21 -192 -2 -47 19 -104 73 -129 120 -30 57 -30 165 0 222 25 46 81 100
127 120 41 17 148 18 190 0z"/>
</g>
</svg>
