<?xml version="1.0" standalone="no"?>
<!DOCTYPE svg PUBLIC "-//W3C//DTD SVG 20010904//EN"
 "http://www.w3.org/TR/2001/REC-SVG-20010904/DTD/svg10.dtd">
<svg version="1.0" xmlns="http://www.w3.org/2000/svg"
 width="512.000000pt" height="512.000000pt" viewBox="0 0 512.000000 512.000000"
 preserveAspectRatio="xMidYMid meet">
<defs>
    <style>
        .cls-1 {
            fill: #39bc5b;
            fill-rule: evenodd;
        }
    </style>
</defs>
<g transform="translate(0.000000,512.000000) scale(0.100000,-0.100000)"
fill="#000000" stroke="none">
<path class="cls-1" d="M1185 5073 c-188 -25 -384 -165 -468 -333 -54 -110 -67 -172 -67
-335 l-1 -140 -52 -30 c-35 -20 -61 -46 -82 -79 l-30 -49 0 -336 c0 -328 1
-337 22 -378 27 -50 85 -100 134 -115 32 -9 38 -16 43 -47 16 -94 105 -214
192 -259 42 -22 136 -42 192 -42 24 0 55 -14 103 -46 l69 -46 0 -164 0 -164
-42 0 c-24 0 -74 -5 -113 -10 -461 -66 -840 -384 -984 -828 -55 -168 -56 -186
-56 -857 0 -607 0 -621 20 -655 12 -19 40 -48 64 -65 l43 -30 1085 -3 c740 -2
1097 1 1124 8 48 13 107 64 125 107 8 18 14 67 14 110 l1 78 21 -30 c12 -16
51 -59 88 -95 169 -167 410 -220 638 -140 191 67 341 234 392 436 18 71 20
112 20 519 l0 442 308 67 c169 37 321 76 339 86 47 27 380 307 398 334 9 13
19 40 22 59 18 110 -58 199 -169 199 -46 0 -61 -7 -223 -115 l-173 -116 -469
-11 c-264 -6 -483 -15 -503 -21 -57 -17 -127 -74 -159 -130 l-29 -50 -42 78
c-60 112 -128 199 -229 295 -203 193 -444 304 -723 333 l-68 7 0 167 0 166 38
21 c67 39 140 104 188 167 52 69 108 182 119 240 4 20 10 39 14 42 4 2 30 -7
57 -21 41 -21 60 -25 115 -22 90 5 150 42 193 118 l31 55 3 287 c2 168 -1 309
-7 342 -12 66 -51 128 -97 157 l-34 21 0 131 c0 144 -16 241 -50 308 -29 56
-111 142 -167 175 -33 19 -43 30 -38 42 4 10 11 41 16 70 9 44 7 58 -6 78
l-15 24 -553 -1 c-303 -1 -565 -4 -582 -6z m1065 -112 c-26 -91 -84 -159 -170
-200 -54 -26 -58 -26 -355 -32 -290 -5 -303 -6 -380 -32 -212 -70 -385 -242
-445 -444 -15 -48 -16 -49 -42 -26 -10 9 -42 24 -70 34 l-53 18 1 130 c2 184
39 293 138 407 64 75 186 143 291 164 22 4 277 8 567 9 l527 1 -9 -29z m81
-179 c56 -36 95 -82 128 -152 24 -50 26 -68 29 -207 l4 -153 -38 0 c-23 0 -58
-11 -90 -30 l-53 -29 -16 52 c-41 126 -157 278 -267 349 l-49 32 62 13 c74 15
159 64 203 115 17 21 33 38 37 38 3 0 25 -13 50 -28z m-542 -157 c205 -49 387
-231 436 -436 22 -95 22 -795 -1 -882 -36 -141 -136 -280 -258 -359 -162 -104
-446 -127 -634 -50 l-67 27 95 6 c145 10 205 28 273 85 22 19 40 24 81 24 68
0 113 29 145 93 32 65 24 123 -26 178 -41 45 -81 59 -176 59 -82 0 -122 -15
-164 -63 -57 -65 -54 -151 8 -222 l31 -35 -29 -12 c-17 -7 -96 -14 -199 -16
l-170 -4 -36 44 c-49 60 -102 160 -125 233 -16 54 -18 101 -18 445 0 291 3
398 14 440 52 212 232 394 439 444 79 20 300 20 381 1z m-984 -469 c14 -9 33
-31 42 -49 16 -29 18 -64 18 -337 0 -287 -1 -307 -20 -339 -45 -76 -120 -99
-194 -59 -80 43 -81 49 -81 396 0 326 1 332 53 381 45 41 125 45 182 7z m1754
5 c14 -9 34 -30 45 -45 20 -26 21 -40 21 -346 0 -306 -1 -320 -21 -346 -37
-50 -70 -68 -124 -68 -54 0 -87 18 -124 68 -20 26 -21 43 -24 319 -2 161 0
307 3 325 8 42 58 99 99 111 40 13 94 5 125 -18z m-1669 -888 c19 -68 54 -145
89 -197 17 -25 31 -47 31 -50 0 -9 -51 5 -91 25 -50 25 -95 72 -124 130 -36
69 -33 83 23 112 26 13 50 25 53 26 4 0 12 -20 19 -46z m875 -18 c40 -40 30
-96 -22 -123 -30 -17 -128 -15 -162 3 -48 24 -56 81 -16 120 21 22 33 25 100
25 67 0 79 -3 100 -25z m-360 -470 c37 -9 111 -15 195 -15 84 0 158 6 195 15
33 8 63 14 68 15 4 0 7 -73 7 -163 0 -197 -12 -248 -73 -314 -62 -67 -107 -87
-197 -88 -65 0 -82 4 -129 30 -29 16 -66 45 -82 64 -50 61 -59 106 -59 298 0
95 3 173 8 173 4 -1 34 -7 67 -15z m-135 -422 c32 -78 118 -164 188 -189 29
-10 52 -21 52 -24 0 -10 -248 -265 -252 -260 -3 3 -45 120 -95 260 -104 291
-105 267 18 269 l65 1 24 -57z m814 47 c32 -5 61 -11 63 -14 5 -5 -182 -494
-192 -504 -4 -5 -42 35 -208 214 l-47 51 48 21 c77 35 127 85 168 168 36 72
38 74 73 74 20 0 62 -4 95 -10z m-995 -312 c57 -161 110 -303 118 -315 23 -39
56 -29 111 33 l49 56 7 -72 c7 -78 16 -101 54 -142 l25 -27 -26 -30 c-50 -60
-52 -78 -52 -486 0 -344 2 -384 18 -427 21 -54 93 -124 141 -136 l31 -8 3
-197 2 -197 -420 0 -420 0 0 718 c0 545 -3 721 -12 730 -18 18 -56 14 -68 -7
-7 -13 -10 -260 -10 -730 l0 -711 -215 0 c-232 0 -256 5 -281 51 -22 44 -21
1157 2 1290 60 350 284 653 601 813 66 33 204 85 228 86 6 0 57 -132 114 -292z
m1276 231 c228 -95 450 -306 560 -534 103 -213 115 -291 115 -738 0 -312 2
-352 17 -369 20 -22 37 -23 57 -2 13 13 16 45 16 190 l0 174 230 0 230 0 0
-222 c0 -241 -7 -285 -56 -385 -15 -31 -55 -86 -90 -123 -207 -219 -544 -226
-759 -16 -59 58 -97 120 -134 215 l-26 66 -3 502 c-4 543 -2 533 -57 519 l-25
-6 0 -676 c0 -725 0 -722 -51 -758 -21 -14 -66 -16 -376 -16 l-353 0 0 195 0
194 43 19 c24 11 60 36 80 57 64 65 67 91 67 499 0 227 -4 376 -11 401 -6 22
-24 57 -41 78 l-30 39 25 26 c37 38 57 93 57 154 l0 53 51 -52 c56 -58 81 -65
103 -30 8 12 63 145 121 296 58 151 109 279 112 284 7 11 41 2 128 -34z m2270
-194 c33 -32 34 -85 3 -118 -13 -14 -90 -80 -173 -147 -82 -68 -157 -129 -167
-137 -9 -8 -166 -47 -349 -87 -254 -56 -335 -77 -346 -91 -8 -12 -13 -48 -13
-102 l0 -83 -230 0 -229 0 -5 33 c-3 17 -10 66 -16 107 -7 42 -10 119 -9 171
4 85 7 100 32 136 15 22 46 50 68 63 41 22 48 23 498 32 251 5 471 11 489 14
20 3 103 52 203 120 103 69 180 114 195 114 14 0 36 -11 49 -25z m-2947 -94
l72 -80 0 -105 c0 -96 -2 -107 -24 -133 -22 -25 -31 -28 -105 -31 -145 -7
-171 19 -171 173 l0 96 73 80 c39 43 75 79 78 79 3 0 38 -36 77 -79z m3 -464
c68 -45 69 -49 69 -462 0 -332 -2 -374 -18 -405 -53 -107 -206 -107 -264 0
-17 33 -18 59 -16 415 3 358 4 382 23 409 45 67 140 87 206 43z m1899 -372 l0
-75 -230 0 -230 0 0 75 0 75 230 0 230 0 0 -75z"/>
<path class="cls-1" d="M2756 5065 c-46 -16 -89 -56 -111 -100 -17 -37 -21 -156 -5 -185 15
-29 65 -40 176 -40 l104 0 0 -595 0 -596 23 -8 c12 -5 30 -5 40 1 16 8 17 47
17 603 l0 595 819 2 c939 3 861 -5 861 95 0 103 46 161 118 150 22 -4 46 -17
60 -32 l22 -26 0 -675 c0 -658 0 -674 20 -694 15 -15 25 -17 42 -11 l23 8 3
679 c2 453 -1 691 -8 715 -13 46 -76 104 -127 118 -26 7 -363 11 -1038 11
-823 -1 -1007 -3 -1039 -15z m1859 -92 c-5 -10 -10 -46 -13 -80 l-4 -63 -939
0 -939 0 0 48 c0 52 19 88 54 102 11 5 432 9 935 9 866 1 913 0 906 -16z"/>
<path class="cls-1" d="M4262 4468 c-9 -9 -12 -92 -12 -310 l0 -298 -60 0 -60 0 0 250 0 250
-26 10 c-14 6 -81 10 -150 10 -176 0 -164 20 -164 -280 l0 -240 -55 0 -55 0 0
184 c0 154 -3 187 -16 200 -23 23 -285 23 -308 0 -13 -13 -16 -46 -16 -200 l0
-184 -84 0 c-64 0 -88 -4 -100 -16 -20 -20 -20 -38 0 -58 14 -14 99 -16 789
-16 690 0 775 2 789 16 40 40 2 74 -82 74 l-62 0 0 298 c0 218 -3 301 -12 310
-8 8 -58 12 -158 12 -100 0 -150 -4 -158 -12z m238 -338 l0 -270 -80 0 -80 0
0 270 0 270 80 0 80 0 0 -270z m-460 -55 l0 -215 -80 0 -80 0 0 215 0 215 80
0 80 0 0 -215z m-450 -60 l0 -155 -80 0 -80 0 0 155 0 155 80 0 80 0 0 -155z"/>
<path class="cls-1" d="M2958 3351 l-33 -29 -3 -461 c-2 -406 -1 -465 13 -492 32 -62 -8 -60
1031 -57 l946 3 29 33 29 32 0 460 c0 335 -3 466 -12 485 -26 57 15 55 -1017
55 l-951 0 -32 -29z m269 -103 c-8 -61 -52 -118 -116 -150 -30 -16 -65 -28
-78 -28 -23 0 -23 2 -23 110 l0 110 111 0 112 0 -6 -42z m246 -15 c-86 -106
-128 -230 -127 -378 1 -147 55 -286 155 -399 l51 -56 -110 0 -109 0 -7 48
c-19 141 -122 240 -278 267 l-38 6 0 128 0 128 58 12 c129 25 227 128 248 259
l7 42 98 0 99 0 -47 -57z m837 -10 c106 -110 150 -216 150 -363 0 -165 -78
-317 -213 -416 l-59 -44 -238 0 -238 0 -60 41 c-263 175 -296 561 -67 785 l65
64 297 0 297 0 66 -67z m272 -3 c30 -126 108 -206 233 -237 l66 -16 -3 -126
-3 -126 -46 -6 c-126 -18 -223 -116 -250 -251 l-12 -58 -114 0 -115 0 55 60
c121 131 180 334 148 506 -19 97 -73 212 -137 292 l-27 32 95 0 94 0 16 -70z
m298 -46 l0 -116 -37 7 c-95 18 -164 88 -179 184 l-7 41 112 0 111 0 0 -116z
m-1743 -580 c60 -35 103 -106 103 -170 0 -24 -1 -24 -115 -24 l-115 0 0 116 0
117 43 -7 c23 -4 61 -18 84 -32z m1743 -79 l0 -115 -111 0 -112 0 7 41 c9 53
26 86 69 127 33 32 93 61 130 62 15 0 17 -12 17 -115z"/>
<path class="cls-1" d="M3916 3214 c-9 -8 -16 -22 -16 -30 0 -10 -12 -14 -44 -14 -84 0 -145
-63 -153 -158 -11 -118 47 -198 152 -210 l45 -5 0 -93 0 -94 -35 0 c-51 0 -75
28 -75 88 0 35 -5 54 -18 65 -24 22 -35 21 -57 -3 -14 -16 -17 -31 -12 -80 9
-98 71 -160 161 -160 26 0 36 -5 41 -19 10 -33 46 -37 70 -9 15 18 35 27 67
30 54 6 101 37 125 81 26 47 24 162 -3 207 -25 44 -87 80 -136 80 l-38 0 0
101 0 102 38 -6 c50 -8 72 -38 72 -96 0 -52 13 -71 47 -71 32 0 47 34 40 93
-12 94 -73 157 -153 157 -32 0 -44 4 -44 14 0 18 -27 46 -45 46 -7 0 -21 -7
-29 -16z m-16 -224 l0 -100 -32 0 c-50 0 -78 33 -78 92 0 75 25 106 88 107 21
1 22 -2 22 -99z m166 -198 c21 -13 34 -51 34 -94 0 -57 -27 -88 -75 -88 l-35
0 0 95 0 95 33 0 c17 0 37 -4 43 -8z"/>
<path class="cls-1" d="M4320 1305 c-228 -43 -435 -237 -496 -465 -22 -86 -22 -234 0 -320
46 -170 178 -331 336 -409 348 -171 754 -2 884 369 27 76 30 98 30 200 0 99
-4 126 -28 195 -36 104 -83 180 -157 254 -149 149 -362 215 -569 176z m226
-86 c157 -28 317 -152 387 -299 77 -163 77 -316 1 -477 -111 -233 -374 -357
-622 -295 -106 27 -181 70 -258 146 -75 76 -119 151 -144 252 -25 98 -25 170
0 268 24 95 57 158 121 229 131 147 320 212 515 176z"/>
<path class="cls-1" d="M4372 1148 c-7 -7 -12 -29 -12 -50 0 -36 -1 -38 -41 -44 -51 -9 -97
-40 -123 -84 -17 -28 -21 -52 -21 -125 0 -73 4 -97 21 -125 28 -48 78 -80 125
-80 l39 0 0 -125 0 -125 -25 0 c-14 0 -37 11 -50 25 -20 19 -25 34 -25 74 0
67 -7 81 -41 81 -33 0 -49 -23 -49 -72 0 -98 53 -171 138 -190 49 -12 52 -15
52 -44 0 -18 8 -38 20 -49 18 -17 21 -17 45 -1 19 12 25 25 25 51 l0 35 53 0
c75 0 118 15 155 53 39 40 52 81 52 167 0 48 -6 77 -22 110 -35 67 -65 84
-159 89 l-79 3 0 125 0 125 66 -4 c84 -5 104 -25 104 -102 0 -57 12 -76 47
-76 60 0 56 145 -5 213 -29 32 -71 48 -143 54 l-69 6 0 36 c0 42 -14 61 -45
61 -12 0 -26 -5 -33 -12z m-12 -303 c0 -135 -1 -138 -53 -114 -33 15 -47 49
-47 114 0 87 23 122 83 124 15 1 17 -11 17 -124z m209 -216 c42 -15 51 -35 51
-119 0 -62 -3 -74 -25 -95 -20 -21 -34 -25 -85 -25 l-60 0 0 125 0 125 44 0
c23 0 57 -5 75 -11z"/>
</g>
</svg>
