<?xml version="1.0" standalone="no"?>
<!DOCTYPE svg PUBLIC "-//W3C//DTD SVG 20010904//EN"
 "http://www.w3.org/TR/2001/REC-SVG-20010904/DTD/svg10.dtd">
<svg version="1.0" xmlns="http://www.w3.org/2000/svg"
 width="512.000000pt" height="512.000000pt" viewBox="0 0 512.000000 512.000000"
 preserveAspectRatio="xMidYMid meet">
<defs>
    <style>
        .cls-1 {
            fill: #39bc5b;
            fill-rule: evenodd;
        }
    </style>
</defs>
<g transform="translate(0.000000,512.000000) scale(0.100000,-0.100000)"
fill="#000000" stroke="none">
<path class="cls-1" d="M1378 4663 l-358 -358 0 -1181 0 -1182 -74 -4 c-83 -4 -114 -20 -153
-78 -21 -30 -23 -45 -23 -149 0 -83 4 -124 15 -144 13 -25 13 -32 0 -57 -10
-19 -15 -58 -15 -110 l0 -80 -63 0 c-35 0 -98 -9 -141 -20 -224 -57 -389 -222
-446 -446 -101 -392 226 -782 629 -750 47 4 93 6 101 5 8 -1 237 -3 509 -5
485 -4 494 -4 537 16 26 13 53 36 66 58 21 33 23 50 23 152 0 88 -4 122 -17
145 -15 28 -15 32 0 60 24 43 24 250 1 286 -14 21 -15 29 -4 50 8 13 17 41 20
62 l7 37 576 -2 577 -3 5 -340 c5 -324 6 -342 27 -380 25 -47 74 -95 123 -121
33 -18 73 -19 785 -19 712 0 752 1 785 19 49 26 98 74 123 121 l22 40 3 1114
c3 1228 6 1166 -59 1244 -17 21 -54 50 -83 65 l-51 27 -362 3 -363 3 0 1040
c0 1128 3 1067 -54 1142 -14 19 -50 47 -78 63 l-53 29 -1090 3 -1090 2 -357
-357z m2528 221 c18 -9 43 -31 54 -49 20 -32 20 -47 20 -1063 l0 -1031 -317
-3 c-351 -3 -353 -4 -428 -69 -21 -19 -49 -56 -61 -84 l-24 -50 0 -722 0 -723
-580 0 -579 0 -11 38 c-5 20 -14 43 -19 51 -6 10 -4 23 7 40 24 36 24 243 0
286 -15 28 -15 32 0 60 13 23 17 57 17 145 0 103 -2 119 -24 153 -12 21 -40
46 -62 57 -36 19 -60 20 -399 20 l-360 0 0 1140 0 1140 223 0 c249 0 290 7
356 59 23 19 52 56 68 89 28 57 28 58 31 295 l4 237 1025 0 c921 0 1028 -2
1059 -16z m-2211 -409 c-8 -56 -36 -98 -78 -118 -29 -14 -67 -17 -213 -17
l-179 0 235 235 235 235 3 -147 c2 -82 0 -166 -3 -188z m3144 -1884 c64 -46
61 16 61 -1173 0 -1011 -1 -1085 -18 -1117 -9 -19 -30 -44 -45 -55 -28 -21
-38 -21 -740 -24 -498 -2 -720 1 -738 9 -15 6 -40 24 -55 40 l-29 30 -3 1097
c-1 603 0 1107 3 1119 8 34 54 82 88 92 19 6 326 9 737 8 l705 -2 34 -24z
m-2985 -787 c20 -20 23 -161 4 -187 -12 -16 -50 -17 -488 -15 l-475 3 -3 94
c-2 60 1 98 9 107 9 12 90 14 475 14 407 0 464 -2 478 -16z m-4 -344 c17 -17
20 -33 20 -97 0 -123 39 -113 -454 -113 -410 0 -422 1 -473 22 l-53 22 0 82
c0 69 3 85 18 93 11 7 181 11 470 11 439 0 453 -1 472 -20z m-1027 -275 c182
-47 315 -180 362 -362 66 -254 -97 -519 -362 -588 -343 -90 -678 245 -588 588
69 265 334 428 588 362z m1037 -74 c13 -25 13 -157 0 -182 -10 -18 -24 -19
-293 -19 l-282 0 -25 57 c-13 31 -38 75 -55 98 -17 22 -34 46 -39 53 -6 9 64
12 338 12 331 0 346 -1 356 -19z m-8 -338 c14 -13 18 -31 18 -95 0 -124 14
-119 -303 -116 -227 3 -261 5 -258 18 2 8 6 59 9 113 l5 97 255 0 c224 0 258
-2 274 -17z m8 -352 c17 -32 13 -167 -6 -185 -13 -14 -63 -16 -394 -16 l-379
0 62 63 c34 35 74 85 87 110 l25 47 297 0 c284 0 298 -1 308 -19z"/>
<path class="cls-1" d="M2380 4619 c-413 -106 -646 -542 -503 -943 60 -169 199 -328 355
-404 121 -60 192 -76 328 -76 197 0 351 60 490 191 278 262 314 662 87 970
-93 125 -259 233 -414 267 -99 22 -249 20 -343 -5z m325 -114 c169 -43 318
-162 394 -316 123 -249 72 -525 -134 -717 -227 -213 -583 -213 -810 0 -117
109 -183 242 -199 398 -15 146 48 332 151 449 78 89 213 166 338 194 48 11
205 6 260 -8z"/>
<path class="cls-1" d="M2234 4311 c-68 -31 -104 -101 -104 -200 1 -93 56 -180 126 -197 89
-22 181 44 203 146 23 106 -18 207 -99 248 -53 27 -73 27 -126 3z m99 -142
c27 -53 3 -139 -39 -139 -36 0 -58 95 -33 143 25 47 46 46 72 -4z"/>
<path class="cls-1" d="M2855 4290 c-36 -15 -675 -664 -675 -686 0 -33 28 -64 58 -64 23 0
87 60 365 338 233 233 337 344 337 359 0 12 -12 31 -26 42 -29 23 -30 23 -59
11z"/>
<path class="cls-1" d="M2760 3908 c-160 -81 -130 -372 40 -395 52 -7 82 1 121 34 44 37 69
96 69 164 0 99 -36 169 -104 200 -53 24 -73 24 -126 -3z m76 -106 c35 -23 46
-111 18 -150 -49 -70 -109 58 -61 131 18 28 25 31 43 19z"/>
<path class="cls-1" d="M1496 2948 c-23 -32 -20 -54 10 -77 27 -21 30 -21 1056 -21 l1029 0
24 25 c29 28 31 42 9 73 l-15 22 -1049 0 -1049 0 -15 -22z"/>
<path class="cls-1" d="M1500 2600 c-11 -11 -20 -29 -20 -40 0 -11 9 -29 20 -40 20 -20 33
-20 758 -20 405 0 742 4 748 8 24 16 35 51 23 75 -7 12 -17 25 -23 29 -6 4
-343 8 -748 8 -725 0 -738 0 -758 -20z"/>
<path class="cls-1" d="M1506 2249 c-30 -23 -33 -45 -10 -77 l15 -22 744 0 744 0 15 22 c23
32 20 54 -10 77 -26 21 -33 21 -749 21 -716 0 -723 0 -749 -21z"/>
<path class="cls-1" d="M3488 2444 c-54 -29 -58 -49 -58 -329 0 -213 3 -263 16 -290 31 -66
21 -65 641 -65 511 0 561 1 593 18 58 29 60 39 60 339 l0 273 -29 32 -29 33
-584 2 c-502 2 -587 0 -610 -13z m1132 -334 l0 -230 -535 0 -535 0 0 230 0
230 535 0 535 0 0 -230z"/>
<path class="cls-1" d="M3484 1611 c-47 -28 -56 -64 -52 -191 l3 -112 33 -29 c32 -28 34 -29
148 -29 181 0 193 12 194 189 l0 123 -34 34 -34 34 -113 0 c-94 0 -119 -3
-145 -19z m206 -171 l0 -70 -70 0 -70 0 0 70 0 70 70 0 70 0 0 -70z"/>
<path class="cls-1" d="M3949 1613 c-39 -24 -50 -48 -56 -122 -9 -110 4 -180 39 -213 30 -28
32 -28 152 -28 176 0 196 19 196 190 0 167 -24 190 -197 190 -82 0 -114 -4
-134 -17z m211 -173 l0 -70 -70 0 -70 0 0 70 0 70 70 0 70 0 0 -70z"/>
<path class="cls-1" d="M4424 1621 c-12 -5 -31 -22 -43 -37 -19 -24 -21 -39 -21 -146 l0
-120 34 -34 34 -34 122 0 122 0 34 34 34 34 0 121 c0 119 0 121 -29 153 l-29
33 -119 2 c-65 2 -128 -1 -139 -6z m196 -181 l0 -70 -70 0 -70 0 0 70 0 70 70
0 70 0 0 -70z"/>
<path class="cls-1" d="M3520 1163 c-73 -24 -90 -59 -90 -188 0 -162 22 -187 171 -193 110
-5 159 7 189 45 18 23 20 41 20 147 0 136 -8 158 -66 182 -32 13 -190 19 -224
7z m170 -188 l0 -75 -70 0 -70 0 0 75 0 75 70 0 70 0 0 -75z"/>
<path class="cls-1" d="M3963 1156 c-57 -26 -68 -56 -68 -181 0 -91 3 -116 18 -139 30 -46
77 -59 194 -54 101 3 104 4 136 36 l32 32 0 125 0 125 -33 32 c-32 32 -33 33
-140 36 -77 2 -116 -2 -139 -12z m197 -181 l0 -75 -70 0 -70 0 0 75 0 75 70 0
70 0 0 -75z"/>
<path class="cls-1" d="M4423 1155 c-61 -26 -63 -37 -63 -419 l0 -346 29 -32 29 -33 132 0
132 0 29 33 29 32 0 346 c0 384 -1 393 -65 420 -45 18 -209 18 -252 -1z m197
-410 l0 -305 -70 0 -70 0 0 305 0 305 70 0 70 0 0 -305z"/>
<path class="cls-1" d="M3468 671 l-33 -29 -3 -115 c-6 -184 16 -207 199 -207 l111 0 34 34
34 34 0 123 c-1 177 -13 189 -194 189 -114 0 -116 -1 -148 -29z m222 -161 l0
-70 -70 0 -70 0 0 70 0 70 70 0 70 0 0 -70z"/>
<path class="cls-1" d="M3932 672 c-35 -33 -48 -103 -39 -213 10 -119 38 -139 192 -139 171
0 195 23 195 190 0 171 -20 190 -196 190 -120 0 -122 0 -152 -28z m228 -162
l0 -70 -70 0 -70 0 0 70 0 70 70 0 70 0 0 -70z"/>
<path class="cls-1" d="M667 1032 c-10 -10 -17 -25 -17 -33 -1 -8 -15 -23 -33 -34 -49 -31
-77 -80 -77 -137 0 -95 56 -158 155 -177 26 -5 51 -15 56 -22 16 -26 9 -58
-15 -74 -26 -17 -50 -11 -76 19 -15 19 -71 21 -88 4 -7 -7 -12 -26 -12 -44 0
-24 9 -40 35 -63 20 -17 40 -31 45 -31 6 0 10 -8 10 -18 0 -26 31 -52 62 -52
26 0 58 27 58 51 1 8 15 23 33 34 78 50 101 148 52 231 -26 45 -90 84 -137 84
-56 0 -79 66 -34 95 26 17 50 11 76 -19 15 -19 71 -21 88 -4 7 7 12 26 12 44
0 24 -9 40 -35 63 -20 17 -40 31 -45 31 -6 0 -10 8 -10 18 0 46 -72 69 -103
34z"/>
</g>
</svg>
