<?xml version="1.0" standalone="no"?>
<!DOCTYPE svg PUBLIC "-//W3C//DTD SVG 20010904//EN"
 "http://www.w3.org/TR/2001/REC-SVG-20010904/DTD/svg10.dtd">
<svg version="1.0" xmlns="http://www.w3.org/2000/svg"
 width="128.000000pt" height="128.000000pt" viewBox="0 0 128.000000 128.000000"
 preserveAspectRatio="xMidYMid meet">

<g transform="translate(0.000000,128.000000) scale(0.100000,-0.100000)"
fill="#000000" stroke="none">
<path d="M490 1214 c-209 -55 -372 -221 -426 -434 -22 -88 -15 -251 16 -337
58 -166 201 -307 368 -365 97 -33 287 -33 384 0 167 58 310 199 368 365 31 86
38 249 16 337 -29 113 -71 187 -160 276 -87 87 -162 131 -271 159 -74 19 -222
18 -295 -1z m281 -90 c222 -65 369 -258 369 -484 0 -277 -223 -500 -500 -500
-277 0 -500 223 -500 500 0 276 221 499 496 500 45 0 104 -7 135 -16z"/>
<path d="M597 1004 c-4 -4 -7 -91 -7 -192 l0 -185 112 -114 c62 -62 117 -113
123 -113 14 0 55 42 55 56 0 5 -43 52 -95 104 l-95 94 -2 176 -3 175 -40 3
c-23 2 -44 0 -48 -4z"/>
</g>
</svg>
